<?xml version="1.0" encoding="utf-8"?>
<!-- Generator: Adobe Illustrator 16.0.0, SVG Export Plug-In . SVG Version: 6.00 Build 0)  -->
<!DOCTYPE svg PUBLIC "-//W3C//DTD SVG 1.1//EN" "http://www.w3.org/Graphics/SVG/1.1/DTD/svg11.dtd">
<svg version="1.1" id="Layer_2" xmlns="http://www.w3.org/2000/svg" xmlns:xlink="http://www.w3.org/1999/xlink" x="0px" y="0px"
	 width="391.89px" height="475.041px" viewBox="0 0 391.89 475.041" enable-background="new 0 0 391.89 475.041"
	 xml:space="preserve">
<rect x="1" y="196.408" fill="#FFFFFF" stroke="#80191D" stroke-width="2" stroke-miterlimit="10" width="245" height="43"/>
<path fill="#FFFFFF" stroke="#80191D" stroke-width="2" stroke-miterlimit="10" d="M272,240.408c0,4.971-4.029,9-9,9l0,0
	c-4.971,0-9-4.029-9-9v-44c0-4.971,4.029-9,9-9l0,0c4.971,0,9,4.029,9,9V240.408z"/>
<path fill="#FFFFFF" stroke="#80191D" stroke-width="2" stroke-miterlimit="10" d="M329,201.908c0,0,4-6,0.5-15
	c-30,17-49.5,6.5-49.5,6.5v54c0,0,34.75,14.25,6.5,42.5c5,2.5,28.5,6,28.5,6s24.955-16.772,32-43.5
	C351.357,235.879,349.252,206.685,329,201.908z M324.5,213.408c0,0,9,13,9,17C333.5,239.408,304.5,222.908,324.5,213.408z"/>
<polygon fill="#FFFFFF" stroke="#80191D" stroke-width="2" stroke-miterlimit="10" points="302,13.408 324.667,1.408 
	390.667,170.075 381.333,179.408 "/>
<polygon fill="#FFFFFF" stroke="#80191D" stroke-width="2" stroke-miterlimit="10" points="280,98.742 308.667,81.408 388,210.075 
	373.333,217.908 "/>
<polygon fill="#FFFFFF" stroke="#80191D" stroke-width="2" stroke-miterlimit="10" points="376,263.408 282.667,376.075 
	314.443,392.075 388,268.741 "/>
<polygon fill="#FFFFFF" stroke="#80191D" stroke-width="2" stroke-miterlimit="10" points="382,304.075 305.333,454.075 
	330,473.408 390.667,309.408 "/>
<polygon fill="#FFFFFF" stroke="#80191D" stroke-width="2" stroke-miterlimit="10" points="70.917,58.075 177,107.075 177,69.408 
	321.25,177.075 196,108.409 196,142.485 68,100.152 "/>
<polygon fill="#FFFFFF" stroke="#80191D" stroke-width="2" stroke-miterlimit="10" points="314.443,304.075 180.092,345.493 
	214.59,370.992 68,428.045 106.566,461.016 246,376.992 216.812,352.416 "/>
</svg>
