<?xml version="1.0" encoding="utf-8"?>
<!-- Generator: Adobe Illustrator 17.1.0, SVG Export Plug-In . SVG Version: 6.00 Build 0)  -->
<!DOCTYPE svg PUBLIC "-//W3C//DTD SVG 1.1//EN" "http://www.w3.org/Graphics/SVG/1.1/DTD/svg11.dtd">
<svg version="1.1" xmlns="http://www.w3.org/2000/svg" xmlns:xlink="http://www.w3.org/1999/xlink" x="0px" y="0px"
	 viewBox="0 0 512 512" enable-background="new 0 0 512 512" xml:space="preserve">
<g id="Layer_1">
	<g>
		<circle fill="#C0CBD1" cx="256" cy="256" r="256"/>
	</g>
	<g>
		<defs>
			<circle id="SVGID_3_" cx="257" cy="812" r="256"/>
		</defs>
		<clipPath id="SVGID_2_">
			<use xlink:href="#SVGID_3_"  overflow="visible"/>
		</clipPath>
		<polyline clip-path="url(#SVGID_2_)" fill="#71A39D" points="112.7,508.2 130,830.6 111,930.9 111,976 197.7,976 198.4,940 
			294.1,976 432,976 432,945.9 411.1,921.7 319.9,900.2 256,829.3 324,546.5 222.1,514.2 109.4,508.2 		"/>
	</g>
</g>
<g id="Layer_2">
	<path fill="#FFFFFF" d="M254.5,237.3"/>
	<g>
		<defs>
			<circle id="SVGID_11_" cx="256" cy="255.8" r="256"/>
		</defs>
		<clipPath id="SVGID_4_">
			<use xlink:href="#SVGID_11_"  overflow="visible"/>
		</clipPath>
		<g clip-path="url(#SVGID_4_)">
			<g>
				<path fill="#E2E9F6" d="M252.3,795.6c-4.7,0-9.5-0.2-14.2-0.4c-58.8-3.7-112.6-30.1-151.5-74.3C47.7,676.6,28.3,619.9,32,561.1
					c3.6-56.3,28.2-108.5,69.4-147.1c41-38.4,94.4-59.5,150.4-59.5c4.7,0,9.5,0.2,14.2,0.4c58.8,3.7,112.6,30.1,151.5,74.3
					c38.9,44.2,58.3,100.9,54.6,159.7c-3.6,56.3-28.2,108.5-69.4,147.1C361.7,774.4,308.3,795.6,252.3,795.6z"/>
				<path fill="#FFFFFF" d="M251.9,362c4.5,0,9.1,0.2,13.7,0.5c28.7,1.8,56.2,9.2,81.7,22c24.6,12.3,46.4,29.1,64.7,49.8
					c18.3,20.8,32.2,44.5,41.3,70.5c9.4,26.9,13.3,55.1,11.5,83.8c-3.4,54.4-27.3,104.9-67.1,142.1c-39.6,37.1-91.2,57.5-145.3,57.5
					c-4.5,0-9.1-0.1-13.7-0.4c-28.7-1.8-56.2-9.2-81.7-21.9c-24.6-12.3-46.4-29.1-64.7-49.8C74,695.1,60.1,671.4,51,645.4
					c-9.4-26.9-13.3-55.1-11.5-83.8c3.4-54.4,27.3-104.9,67.1-142.1C146.2,382.5,197.8,362,251.9,362h0.1 M251.9,347.1
					c-119.3,0-219.7,92.8-227.3,213.6c-8,125.7,87.5,234,213.1,241.9c4.9,0.3,9.8,0.5,14.6,0.5c119.3,0,219.7-92.8,227.3-213.6
					c8-125.7-87.5-234-213.1-241.9C261.6,347.2,256.7,347.1,251.9,347.1L251.9,347.1z"/>
			</g>
			<g>
				<g>
					<path fill="#71A39D" d="M57.2,117.9c0,0,82.7,95.2,165.3,190.4c5.2,6,10.3,11.9,15.5,17.8c2.6,3,5.1,5.9,7.7,8.9
						c1.3,1.5,2.6,2.9,3.8,4.4l1,1.1l0.1,0.1c0.3,0.4-0.3-0.4-0.2-0.3l0.3,0.3l0.5,0.5l0.2,0.3c0,0,0,0,0-0.1c0,0,0-0.1,0-0.1
						c0,0,0,0,0,0l0.1,0c0.1,0,0.1,0.1,0.2,0.1c0.9,0.5,2.1,0.5,3,0.1c0.4-0.2,0.8-0.5,1.1-0.9c0.1-0.1,0.1-0.2,0.2-0.3l0.9-1.1
						l1.8-2.2c4.7-6,9.4-11.9,14-17.7c18.3-23.2,35.4-44.8,50.1-63.4c29.3-37.1,48.9-61.8,48.9-61.8l24.1,20.3
						c0,0-21.1,23.5-52.6,58.6c-15.8,17.6-34.2,38.1-54,60.1c-4.9,5.5-10,11.1-15,16.7l-1.9,2.1l-1,1.1c-0.6,0.6-1.2,1.2-1.8,1.8
						c-2.5,2.3-5.5,4-8.7,5c-6.4,2-13.6,0.9-19.2-2.8l-1-0.7l-0.5-0.4l-0.6-0.5c-0.4-0.3-0.7-0.7-1.1-1l-0.5-0.5l-0.2-0.3l-0.5-0.6
						l-0.2-0.3c0,0-0.7-0.8-0.5-0.5l-0.1-0.1l-0.9-1.2c-1.2-1.5-2.4-3.1-3.6-4.6c-2.4-3.1-4.8-6.2-7.1-9.3
						c-4.8-6.2-9.6-12.5-14.3-18.8C133.7,218.1,57.2,117.9,57.2,117.9z"/>
					<g>
						<polygon fill="#71A39D" points="451,124.3 402.1,275.9 378.5,210.3 309.9,198.3 						"/>
					</g>
				</g>
			</g>
		</g>
	</g>
</g>
</svg>
