<?xml version="1.0" encoding="utf-8"?>
<!-- Generator: Adobe Illustrator 17.1.0, SVG Export Plug-In . SVG Version: 6.00 Build 0)  -->
<!DOCTYPE svg PUBLIC "-//W3C//DTD SVG 1.1//EN" "http://www.w3.org/Graphics/SVG/1.1/DTD/svg11.dtd">
<svg version="1.1" id="Layer_1" xmlns="http://www.w3.org/2000/svg" xmlns:xlink="http://www.w3.org/1999/xlink" x="0px" y="0px"
	 viewBox="0 0 512 512" enable-background="new 0 0 512 512" xml:space="preserve">
<path fill="#F3F3F1" d="M448.9,237c0-106.1-85.6-192.1-191.5-192.9l-1.4-0.7l-1.4,0.7C148.7,44.8,63.1,130.9,63.1,237
	c0,35.4,9.5,68.6,26.2,97.1l-1,29.8l23.1,0.8c4.6,5.2,9.5,9.8,14.6,14.5l10.1,76l120,38l115.8-38l14.4-76.1
	c5.1-4.7,9.9-9.4,14.5-14.6l23.3-0.7l-1-29.9C439.4,305.3,448.9,272.3,448.9,237z M169.9,326.1c-27.3,0-49.5-22.1-49.5-49.5
	s22.1-49.5,49.5-49.5c27.3,0,49.5,22.1,49.5,49.5S197.3,326.1,169.9,326.1z M243.6,351l12.4-75l12.4,75H243.6z M341.2,326.1
	c-27.3,0-49.5-22.1-49.5-49.5s22.1-49.5,49.5-49.5s49.5,22.1,49.5,49.5S368.5,326.1,341.2,326.1z"/>
</svg>
