<?xml version="1.0" encoding="utf-8"?>
<!-- Generator: Adobe Illustrator 17.1.0, SVG Export Plug-In . SVG Version: 6.00 Build 0)  -->
<!DOCTYPE svg PUBLIC "-//W3C//DTD SVG 1.1//EN" "http://www.w3.org/Graphics/SVG/1.1/DTD/svg11.dtd">
<svg version="1.1" xmlns="http://www.w3.org/2000/svg" xmlns:xlink="http://www.w3.org/1999/xlink" x="0px" y="0px"
	 viewBox="0 0 512 512" enable-background="new 0 0 512 512" xml:space="preserve">
<g id="Color">
	<g>
		<g>
			<path fill="#4D4D4D" d="M510.2,257.5c-0.2,91.7-50.6,177.2-130.5,222.2c-80.9,45.5-183,41.7-261-8.1
				C41.2,422-3.4,332.2,2.3,240.7C8,149.7,64.5,67.5,146.3,28c83.6-40.4,185.2-30.1,260,24.4C471.4,99.8,510,177.2,510.2,257.5
				c0,2.3,3.5,2.3,3.5,0c-0.2-89.2-47.2-173-123.1-219.9c-76.9-47.5-175.8-49.9-255.5-7.9C56.7,71.2,4.8,152.4-1.2,240.7
				c-6,89.3,36.5,176.5,109.4,228c73.8,52.1,172.3,60.6,254.4,23.5c80.6-36.3,137.4-114,149-201.4c1.5-11.1,2.1-22.2,2.2-33.4
				C513.8,255.2,510.3,255.2,510.2,257.5z"/>
		</g>
	</g>
	<path fill="#333333" d="M252.3,74.4"/>
	<g>
		<path fill="#333333" d="M274.4,417.6c-2.2-1.6-5.5-1.2-7.3-0.2l1.7,1.7c1.1-0.3,2.4-0.1,3.4,0.6c1.6,1.2,2,3.4,2.1,4.9l3.5,3.5
			C277.1,424.5,277.2,419.6,274.4,417.6z"/>
		<path fill="#333333" d="M344.2,390.5c1.5-1.1,1.8-3.2,0.7-4.7c-1.3-1.9-3.9-2.3-5.8-1c-2.3,1.7-2.8,5-1.2,7.4c2.1,3,6.1,3.6,9,1.5
			c3.6-2.7,4.4-7.8,1.8-11.5c-3.3-4.6-9.6-5.7-14.1-2.4c-5.6,4.2-6.9,12.2-2.8,18c2,2.9,5.2,4.6,8.9,5.6c7.2-0.7,14.3-1.7,20.9-2.6
			c-1.9-0.8-3.6-1.9-4.9-3.5c-1.7-1.9-2.4-4.1-2.3-6.3c-0.9,1.9-2.3,3.6-4.1,4.9c-4.6,3.3-11,2.3-14.3-2.3
			c-2.7-3.7-1.8-8.8,1.9-11.5c2.9-2.1,7-1.5,9.2,1.5c1.7,2.4,1.2,5.6-1.2,7.3c-1.9,1.4-4.3,0.9-5.7-1
			C341.2,391.2,343.1,391.4,344.2,390.5z"/>
		<path fill="#333333" d="M271.6,420.7c-0.5-0.3-1.3-0.2-1.6-0.5l3,3C272.5,422.7,272.4,421.3,271.6,420.7z"/>
		<path fill="#333333" d="M329.6,367.3c-0.6,7.5-4.5,14.7-11.1,19.4c-9.5,6.9-22.9,4.7-29.7-4.9c-5.5-7.6-3.8-18.3,3.8-23.8
			c0.8-0.5,1.5-1,2.4-1.4c-2.5-1.3-5-2.8-7.4-4.5c-0.6,0.3-1.1,0.7-1.7,1.1c-11.7,8.6-14.3,25.3-5.8,37.3
			c8.8,12.5,27.9,14.8,48.2,13.8c-0.6-0.6-1.2-1.3-1.7-2.1c-6.6-8.9-4.4-21.5,4.5-28c7.2-5.2,17.2-3.6,22.4,3.6
			c1.9,2.7,2.7,5.9,2.3,8.9c0.9-1.7,2.4-3.2,4.3-4.4c4.6-2.8,11-2,14.3,1.7c2.6,3,1.7,7.2-2,9.5c-3,1.8-7,1.3-9.1-1.1
			c-1.7-1.9-1.1-4.6,1.3-6.1c1.9-1.1,4.5-0.8,5.8,0.7c1.1,1.2,0.7,3-0.8,3.9c-1.2,0.7-2.8,0.5-3.6-0.5c0.5,0.6,1.7,0.7,2.5,0.3
			c1-0.6,1.2-1.7,0.5-2.5c-0.8-1-2.5-1.2-3.7-0.5c-1.5,0.9-1.9,2.7-0.8,3.9c1.3,1.5,3.9,1.9,5.7,0.7c2.3-1.4,2.9-4.2,1.3-6.1
			c-2-2.4-6.1-2.9-9-1.1c-3.6,2.2-4.3,6.7-1.7,9.7c3,3.5,9.8,3.6,17.2,3.4l32.3-32.3C386.5,367.2,357,371.1,329.6,367.3z"/>
		<path fill="#333333" d="M310.8,422c2.9,5.6,1.3,12.4-4,16.2c-4.6,3.3-11.1,2.2-14.4-2.4c-2.7-3.7-1.8-8.8,1.8-11.5
			c2.9-2.1,7-1.5,9.2,1.5c1.7,2.4,1.2,5.6-1.2,7.3c-1.9,1.4-4.3,0.9-5.7-1c0.9,1.2,2.7,1.4,3.9,0.6c1.5-1.1,1.8-3.2,0.7-4.7
			c-1.3-1.9-3.9-2.3-5.8-1c-2.3,1.7-2.8,5-1.2,7.4c2.1,3,6.1,3.6,9,1.5c3.6-2.7,4.4-7.8,1.8-11.5c-3.3-4.6-9.6-5.7-14.1-2.4
			c-5.6,4.2-6.9,12.2-2.8,18c6.2,8.7,22.7,7.2,36.4,5.4c-3.3-0.6-6.3-2-8.4-4.8c-3.2-4.3-2.1-10.4,2.2-13.5
			c3.5-2.5,8.3-1.7,10.8,1.8c2,2.8,1.4,6.6-1.4,8.7c-2.2,1.6-5.3,1.1-6.9-1.1c-1.3-1.8-0.9-4.3,0.9-5.5c1.4-1,3.4-0.7,4.4,0.7
			c0.8,1.1,0.6,2.7-0.6,3.5c-0.9,0.7-2.1,0.4-2.7-0.5c0.4,0.6,1.3,0.7,1.9,0.3c0.7-0.5,0.9-1.5,0.4-2.3c-0.6-0.9-1.9-1.1-2.8-0.5
			c-1.1,0.8-1.4,2.4-0.6,3.6c1,1.4,3,1.8,4.4,0.7c1.7-1.3,2.1-3.8,0.9-5.6c-1.6-2.2-4.6-2.7-6.8-1.1c-2.7,2-3.1,6.1-1.1,8.9
			c2.7,3.8,8.7,3,15.7,3.1l19.8-19.8C340.9,422.8,325.3,423.8,310.8,422z"/>
		<path fill="#333333" d="M406.9,306.7c-1.4,1.8-3.1,3.4-5,4.7c-9.5,6.9-22.8,4.7-29.7-4.8c-5.5-7.6-3.8-18.3,3.8-23.7
			c6.1-4.4,14.6-3,19,3.1c3.5,4.9,2.4,11.7-2.5,15.2c-3.9,2.8-8.9,1.8-11.7-2.1c1.8,2.5,5.6,3,8.1,1.2c3.1-2.3,3.8-6.6,1.5-9.8
			c-2.8-3.9-8.1-4.8-12-2c-4.8,3.5-5.9,10.4-2.4,15.3c4.3,6.1,12.7,7.5,18.7,3.1c7.5-5.5,9.2-16.2,3.7-23.8
			c-6.8-9.6-19.8-11.8-29.2-4.9c-11.7,8.6-14.3,25.3-5.8,37.3c9.4,13.2,30.1,15.1,51.7,13.6c-1.9-1.4-3.7-3.1-5.2-5.2
			C406.2,318.7,405.3,312.4,406.9,306.7z"/>
		<path fill="#333333" d="M303.5,453.8l9.5,9.5l8.5-8.5C315,454.3,309,455,303.5,453.8z"/>
		<path fill="#333333" d="M323.9,300c4.5-3.3,5.5-9.7,2.2-14.2c-4-5.7-11.8-7-17.4-2.9c-7,5.1-8.5,15.1-3.5,22.2
			c6.3,8.9,18.5,11,27.2,4.5c10.9-8,13.3-23.6,5.4-34.7c-9.9-13.9-28.9-17.1-42.5-7.1c-17,12.5-20.9,36.8-8.5,54.2
			c15.2,21.3,50.9,22.3,85.8,19c-8-3.5-15.1-8.6-20.6-16.2c-2.6-3.6-4.6-7.4-5.9-11.4c-1.1,1-2.2,1.9-3.5,2.8
			c-13.9,10-33.2,6.9-43.2-7c-8-11.1-5.5-26.6,5.6-34.6c8.9-6.4,21.3-4.4,27.7,4.5c5.1,7.1,3.5,17-3.6,22.1c-5.7,4.1-13,2.7-17.1-3
			C314.7,301.9,320.4,302.6,323.9,300z"/>
		<path fill="#333333" d="M305.5,375.5c3.1-2.3,3.8-6.6,1.5-9.8c-2.8-3.9-8.1-4.8-12-2c-4.8,3.5-5.9,10.4-2.4,15.3
			c4.3,6.1,12.7,7.5,18.7,3.1c5.4-4,7.8-10.7,6.6-17.1c-1.7-0.4-3.3-0.8-5-1.3c1.7,4.5,0.2,9.7-3.8,12.6c-3.9,2.8-8.9,1.8-11.7-2.1
			C299.1,376.8,303,377.3,305.5,375.5z"/>
		<g>
			<path fill="#333333" d="M197.8,198.6l-13.1-42.5l-29.4,29.4L197.8,198.6z M188.5,189.4l-20.8-6.4l14.4-14.4L188.5,189.4z"/>
			<path fill="#333333" d="M50,200.3l214.7,214.7c2.6-1.7,8.4-2.8,12.1-0.1c2.9,2.2,4.4,5.2,5,8.6c1.4-3.1,3.6-5.9,6.6-8.1
				c0.4-0.3,0.8-0.5,1.2-0.7c-7.6-3.5-14.4-8.5-19.7-15.8c-3.9-5.2-6.3-11.1-7.3-17.1c-0.4-0.6-0.5-1.7-0.4-3.3
				c-0.5-5.5,0.1-11.1,1.8-16.4c0.2-5.4-0.5-10.4-3.9-12.8c-3.3-2.4-8-1.6-10.4,1.6c-1.9,2.6-1.3,6.3,1.4,8.2c2.1,1.5,5.1,1,6.7-1
				c1.2-1.7,0.8-4-0.9-5.2c-1.4-1-3.3-0.7-4.3,0.7c-0.8,1.1-0.5,2.6,0.6,3.3c0.9,0.6,2.1,0.4,2.7-0.4c0.5-0.7,0.4-1.8-0.3-2.3
				c1.1,0.8,1.4,2.2,0.6,3.3c-1,1.4-2.9,1.7-4.2,0.7c-1.7-1.2-2.1-3.6-0.9-5.3c1.5-2.1,4.5-2.6,6.6-1.1c2.7,1.9,3.3,5.6,1.3,8.3
				c-2.4,3.3-7,4.1-10.4,1.7c-4.2-3-5.1-8.8-2.1-13c3.7-5.2,11-6.4,16.2-2.6c2.6,1.9,4.2,4.5,5.1,7.4c2.6-4.3,5.9-8.3,10.1-11.5
				c-2.2-2.3-4.3-4.7-6.3-7.4c-7.2-9.7-10.9-20.9-11.5-32.1c-0.5-1.7-0.3-4.8,0.2-8.6c0.2-1.7,0.4-3.4,0.7-5.1
				c1.8-12.8,4.2-29.9-4.4-36c-5.2-3.7-12.5-2.5-16.2,2.5c-3,4.1-2,9.8,2.1,12.7c3.3,2.4,8,1.6,10.4-1.6c1.9-2.6,1.3-6.2-1.4-8.1
				c-2.1-1.5-5.1-1-6.6,1c-1.2,1.7-0.8,4,0.9,5.2c1.4,1,3.3,0.7,4.2-0.7c0.8-1.1,0.6-2.7-0.5-3.5c1.7,1.2,2.1,3.4,0.9,5.1
				c-1.5,2.1-4.5,2.6-6.6,1.1c-2.7-1.9-3.3-5.6-1.3-8.3c2.4-3.3,7-4.1,10.3-1.7c4.1,3,5.1,8.8,2.1,12.9c-3.7,5.2-11,6.4-16.1,2.6
				c-6.5-4.7-7.9-13.7-3.3-20.2c5.8-8.1,17.2-10,25.2-4.1c6,4.4,8.5,11,9.4,18.1c4-6,9-11.4,15.2-15.8
				c21.7-15.6,51.9-10.7,67.5,10.9c2,2.8,3.6,5.9,4.8,9c1.6-1.6,3.3-3.1,5.1-4.4c14.9-10.7,35.7-7.4,46.4,7.5
				c5.3,7.3,6.3,16.4,3.5,24.3c0.9-1,1.9-1.9,3.1-2.7c7.2-5.2,17.2-3.6,22.4,3.6c4.1,5.7,2.8,13.8-2.9,17.9
				c-4.6,3.3-11,2.3-14.3-2.3c-2.7-3.7-1.8-8.8,1.9-11.5c2.9-2.1,7-1.5,9.2,1.5c1.7,2.4,1.2,5.6-1.2,7.3c-1.9,1.4-4.3,0.9-5.7-1
				c0.9,1.2,2.7,1.4,3.9,0.6c1.5-1.1,1.8-3.2,0.7-4.7c-1.3-1.9-3.9-2.3-5.8-1c-2.3,1.7-2.8,5-1.2,7.4c2.1,3,6.1,3.6,9,1.5
				c3.6-2.7,4.4-7.8,1.8-11.5c-3.3-4.6-9.6-5.7-14.1-2.4c-5.6,4.2-6.9,12.2-2.8,18c5.6,7.8,19.5,7.4,32.2,5.9
				c-2.9-0.7-5.5-2-7.3-4.5c-3-4.1-2.1-10,2.1-13c3.3-2.4,8-1.6,10.4,1.7c1.9,2.7,1.3,6.4-1.3,8.3c-2.1,1.5-5.1,1.1-6.6-1.1
				c-1.2-1.7-0.8-4.1,0.9-5.3c1.4-1,3.3-0.7,4.2,0.7c0.8,1.1,0.5,2.6-0.6,3.4c-0.9,0.6-2,0.4-2.6-0.5c0.4,0.6,1.3,0.7,1.8,0.3
				c0.7-0.5,0.8-1.5,0.3-2.2c-0.6-0.9-1.8-1.1-2.7-0.4c-1.1,0.8-1.3,2.3-0.5,3.4c1,1.4,2.8,1.7,4.2,0.7c1.7-1.2,2-3.6,0.8-5.3
				c-1.5-2.1-4.4-2.6-6.5-1.1c-2.6,1.9-3,5.9-1.1,8.6c2,2.8,6.6,3.6,11.2,3.3l6.2-6.2l-263-263L50,200.3z M206.4,183.5l27.6,51.7
				l-51.7-27.6l-40.6,42.3l10.3-57.7l-52.7-25.5l58-8l8-58l25.5,52.7l57.7-10.3L206.4,183.5z"/>
		</g>
	</g>
</g>
<g id="BW" display="none">
</g>
</svg>
