<?xml version="1.0" encoding="utf-8"?>
<!-- Generator: Adobe Illustrator 17.1.0, SVG Export Plug-In . SVG Version: 6.00 Build 0)  -->
<!DOCTYPE svg PUBLIC "-//W3C//DTD SVG 1.1//EN" "http://www.w3.org/Graphics/SVG/1.1/DTD/svg11.dtd">
<svg version="1.1" id="Layer_1" xmlns="http://www.w3.org/2000/svg" xmlns:xlink="http://www.w3.org/1999/xlink" x="0px" y="0px"
	 viewBox="0 0 512 512" enable-background="new 0 0 512 512" xml:space="preserve">
<g>
	<g>
		<path fill="#F2F2F2" d="M507,256c-0.2,91.6-51,176.9-131.3,220.8c-81.3,44.5-183.3,39.1-260.1-12.3C39,413.4-3.1,322.2,5.7,230.9
			C14.3,140.4,74,60.6,157.2,24.8C242.5-12,343.9,3.3,415.5,62.1C473.2,109.5,506.8,181.4,507,256c0,2.2,3.5,2.2,3.5,0
			c-0.2-89.1-47.6-172.6-123.9-218.6c-77.2-46.6-176.2-47.6-254.8-4C54.1,76.5,4.2,159.1,1.1,247.6
			c-3.2,89.1,42.4,174.6,117.1,222.9c75.7,49,174.6,53,254.6,11.9c78.7-40.5,131.1-121.4,137.2-209.5c0.4-5.6,0.5-11.2,0.5-16.8
			C510.4,253.8,507,253.8,507,256z"/>
	</g>
</g>
<g>
	<path fill="#F3F3F1" d="M372.5,208.6c0-64.2-51.8-116.3-115.9-116.7l-0.8-0.4l-0.8,0.4c-64.1,0.4-115.9,52.5-115.9,116.7
		c0,21.4,5.8,41.5,15.8,58.8l-0.6,18l14,0.5c2.8,3.1,5.7,6.6,8.8,9.5l6.1,46.7h142.7l8.7-46.8c3.1-2.8,6-6,8.8-9.2l14.1-0.6
		l-0.6-18.2C366.7,250,372.5,230,372.5,208.6z M203.6,262.5c-16.5,0-29.9-13.4-29.9-29.9s13.4-29.9,29.9-29.9s29.9,13.4,29.9,29.9
		S220.2,262.5,203.6,262.5z M245.9,294l9.8-17l9.8,17H245.9z M307.3,262.5c-16.5,0-29.9-13.4-29.9-29.9s13.4-29.9,29.9-29.9
		s29.9,13.4,29.9,29.9S323.8,262.5,307.3,262.5z"/>
	<polygon fill="#F3F3F1" points="190.3,397 315.6,397 322.6,362 185.3,362 	"/>
</g>
</svg>
