<?xml version="1.0" encoding="utf-8"?>
<!-- Generator: Adobe Illustrator 16.0.0, SVG Export Plug-In . SVG Version: 6.00 Build 0)  -->
<!DOCTYPE svg PUBLIC "-//W3C//DTD SVG 1.1//EN" "http://www.w3.org/Graphics/SVG/1.1/DTD/svg11.dtd">
<svg version="1.1" id="Layer_2" xmlns="http://www.w3.org/2000/svg" xmlns:xlink="http://www.w3.org/1999/xlink" x="0px" y="0px"
	 width="367.749px" height="382px" viewBox="0 0 367.749 382" enable-background="new 0 0 367.749 382" xml:space="preserve">
<rect x="-78.667" y="-53.333" display="none" width="512" height="512"/>
<g>
	<g>
		<path fill="#FFFFFF" d="M272.303,281.667c25.499,0,55.976,19.395,75.164,33.863c12.01-13.241,19.282-27.846,19.282-43.196
			c0-7.333-23.958-15.999-23.958-49.333c0-8.667,7.938-43.334,7.938-62S364.833,1,183.833,1C3.333,1,17,142.333,17,161
			s8,53.333,8,62c0,33.334-24,42-24,49.333c0,15.436,7.381,30.117,19.544,43.417C39.715,301.259,70.37,281.667,96,281.667
			c7.405,0-3.079,32.727-31.129,67.101C101.766,368.667,147.843,381,183.833,381c36.334,0,82.574-12.398,119.474-32.388
			C275.351,314.295,264.909,281.667,272.303,281.667z M101,258.251c-31.333,0-51.333-25.332-51.333-31c0-43,36-70.333,60.667-70.333
			c0,0,50.667-9.334,50.667,70.333C161,230.919,129.667,258.251,101,258.251z M183.833,310.75c0,0-18.667-18.668-18.667-51.334
			c0-7.333,5.667-9.333,18.667-9.333s18.667,2,18.667,9.333C202.5,292.083,183.833,310.75,183.833,310.75z M206.666,227.251
			c0-79.667,50.667-70.333,50.667-70.333c24.666,0,60.666,27.333,60.666,70.333c0,5.668-20,31-51.333,31
			C237.999,258.251,206.666,230.919,206.666,227.251z"/>
	</g>
	<g>
		<path fill="none" stroke="#000000" stroke-width="2" stroke-miterlimit="10" d="M272.303,281.667
			c25.499,0,55.976,19.395,75.164,33.863c12.01-13.241,19.282-27.846,19.282-43.196c0-7.333-23.958-15.999-23.958-49.333
			c0-8.667,7.938-43.334,7.938-62S364.833,1,183.833,1C3.333,1,17,142.333,17,161s8,53.333,8,62c0,33.334-24,42-24,49.333
			c0,15.436,7.381,30.117,19.544,43.417C39.715,301.259,70.37,281.667,96,281.667c7.405,0-3.079,32.727-31.129,67.101
			C101.766,368.667,147.843,381,183.833,381c36.334,0,82.574-12.398,119.474-32.388
			C275.351,314.295,264.909,281.667,272.303,281.667z M101,258.251c-31.333,0-51.333-25.332-51.333-31c0-43,36-70.333,60.667-70.333
			c0,0,50.667-9.334,50.667,70.333C161,230.919,129.667,258.251,101,258.251z M183.833,310.75c0,0-18.667-18.668-18.667-51.334
			c0-7.333,5.667-9.333,18.667-9.333s18.667,2,18.667,9.333C202.5,292.083,183.833,310.75,183.833,310.75z M206.666,227.251
			c0-79.667,50.667-70.333,50.667-70.333c24.666,0,60.666,27.333,60.666,70.333c0,5.668-20,31-51.333,31
			C237.999,258.251,206.666,230.919,206.666,227.251z"/>
	</g>
</g>
</svg>
