<?xml version="1.0" encoding="utf-8"?>
<!-- Generator: Adobe Illustrator 17.1.0, SVG Export Plug-In . SVG Version: 6.00 Build 0)  -->
<!DOCTYPE svg PUBLIC "-//W3C//DTD SVG 1.1//EN" "http://www.w3.org/Graphics/SVG/1.1/DTD/svg11.dtd">
<svg version="1.1" id="Layer_1" xmlns="http://www.w3.org/2000/svg" xmlns:xlink="http://www.w3.org/1999/xlink" x="0px" y="0px"
	 viewBox="0 0 512 512" enable-background="new 0 0 512 512" xml:space="preserve">
<g>
	<path fill="#F3F3F1" d="M278.4,450.3c-2.7-1.9-6.6-1.5-8.9-0.3l2.1,2.1c1.4-0.3,2.9-0.1,4.2,0.8c1.9,1.4,2.4,4.1,2.6,5.9l4.2,4.2
		C281.7,458.7,281.8,452.7,278.4,450.3z"/>
	<path fill="#F3F3F1" d="M363.2,417.4c1.8-1.3,2.2-3.9,0.9-5.7c-1.6-2.3-4.8-2.8-7-1.2c-2.8,2.1-3.4,6.1-1.4,8.9
		c2.5,3.6,7.4,4.4,10.9,1.8c4.4-3.2,5.4-9.5,2.2-14c-4-5.6-11.6-6.9-17.1-2.9c-6.8,5-8.4,14.8-3.4,21.8c2.5,3.5,6.3,5.6,10.8,6.8
		c8.7-0.9,17.4-2.1,25.4-3.2c-2.3-1-4.3-2.4-6-4.2c-2-2.3-2.9-5-2.8-7.7c-1.1,2.3-2.8,4.4-5,6c-5.6,4-13.4,2.8-17.4-2.8
		c-3.2-4.5-2.2-10.7,2.3-13.9c3.6-2.6,8.6-1.8,11.1,1.8c2.1,2.9,1.4,6.8-1.4,8.9c-2.3,1.6-5.2,1.1-6.9-1.2
		C359.5,418.2,361.7,418.5,363.2,417.4z"/>
	<path fill="#F3F3F1" d="M275,454.1c-0.6-0.4-1.6-0.3-2-0.6l3.6,3.6C276,456.5,276,454.8,275,454.1z"/>
	<path fill="#F3F3F1" d="M345.4,389.3c-0.7,9.2-5.4,17.8-13.4,23.6c-11.6,8.3-27.8,5.7-36.1-5.9c-6.7-9.3-4.6-22.2,4.6-28.9
		c0.9-0.7,1.9-1.2,2.9-1.7c-3.1-1.6-6.1-3.4-9-5.4c-0.7,0.4-1.4,0.8-2,1.3c-14.2,10.4-17.4,30.7-7.1,45.2
		c10.7,15.1,33.9,18,58.5,16.8c-0.7-0.8-1.4-1.6-2.1-2.5c-8-10.8-5.4-26.1,5.5-34c8.7-6.3,20.9-4.3,27.2,4.4
		c2.4,3.3,3.2,7.1,2.8,10.9c1.1-2.1,2.9-3.9,5.3-5.4c5.6-3.4,13.4-2.5,17.3,2.1c3.1,3.6,2.1,8.8-2.4,11.5c-3.6,2.2-8.6,1.6-11.1-1.3
		c-2-2.3-1.3-5.6,1.6-7.4c2.3-1.4,5.5-1,7.1,0.8c1.3,1.5,0.8,3.6-1,4.7c-1.5,0.9-3.3,0.6-4.4-0.6c0.7,0.8,2.1,0.9,3,0.3
		c1.2-0.7,1.4-2.1,0.6-3c-1-1.2-3-1.4-4.5-0.6c-1.8,1.1-2.2,3.2-1,4.7c1.6,1.9,4.7,2.3,7,0.9c2.8-1.7,3.5-5,1.5-7.4
		c-2.5-2.9-7.4-3.5-10.9-1.4c-4.4,2.7-5.2,8.2-2.1,11.8c3.6,4.2,11.9,4.4,20.8,4.1l39.2-39.2C414.5,389.1,378.7,393.9,345.4,389.3z"
		/>
	<path fill="#F3F3F1" d="M322.5,455.6c3.5,6.8,1.5,15.1-4.8,19.7c-5.6,4-13.4,2.7-17.5-2.9c-3.2-4.5-2.2-10.7,2.2-13.9
		c3.6-2.6,8.5-1.8,11.1,1.8c2.1,2.9,1.4,6.8-1.5,8.9c-2.3,1.6-5.2,1.1-6.9-1.2c1,1.5,3.3,1.7,4.7,0.7c1.8-1.3,2.2-3.9,0.9-5.7
		c-1.6-2.3-4.8-2.8-7-1.2c-2.8,2.1-3.4,6.1-1.4,8.9c2.5,3.6,7.4,4.4,10.9,1.8c4.4-3.2,5.4-9.5,2.2-14c-4-5.6-11.6-6.9-17.1-2.9
		c-6.8,5-8.4,14.8-3.4,21.8c7.5,10.6,27.6,8.7,44.1,6.5c-4-0.8-7.6-2.4-10.2-5.9c-3.9-5.2-2.6-12.6,2.7-16.4
		c4.2-3,10.1-2.1,13.1,2.1c2.4,3.4,1.7,8.1-1.7,10.5c-2.7,1.9-6.5,1.3-8.4-1.4c-1.6-2.2-1.1-5.2,1.1-6.7c1.7-1.2,4.1-0.9,5.4,0.9
		c1,1.4,0.7,3.3-0.7,4.3c-1.1,0.8-2.5,0.5-3.3-0.6c0.5,0.7,1.6,0.8,2.3,0.3c0.9-0.6,1.1-1.9,0.4-2.8c-0.8-1.1-2.3-1.4-3.4-0.6
		c-1.4,1-1.7,2.9-0.7,4.3c1.2,1.7,3.6,2.1,5.3,0.9c2.1-1.6,2.6-4.6,1.1-6.7c-1.9-2.7-5.6-3.3-8.3-1.4c-3.3,2.4-3.8,7.4-1.4,10.8
		c3.2,4.6,10.6,3.6,19,3.8l24-24C359.1,456.6,340.2,457.8,322.5,455.6z"/>
	<path fill="#F3F3F1" d="M439.2,315.6c-1.7,2.1-3.8,4.1-6.1,5.8c-11.6,8.3-27.7,5.7-36-5.8c-6.7-9.3-4.6-22.2,4.7-28.8
		c7.4-5.3,17.7-3.7,23.1,3.7c4.3,5.9,2.9,14.2-3,18.5c-4.7,3.4-10.8,2.2-14.2-2.5c2.2,3,6.8,3.6,9.8,1.4c3.7-2.7,4.6-8,1.9-11.9
		c-3.4-4.8-9.9-5.8-14.5-2.4c-5.8,4.3-7.1,12.6-2.9,18.5c5.3,7.4,15.4,9.1,22.7,3.8c9.1-6.7,11.1-19.6,4.5-28.9
		c-8.2-11.6-24.1-14.3-35.4-5.9c-14.2,10.4-17.4,30.7-7.1,45.2c11.4,16,36.6,18.3,62.7,16.6c-2.4-1.7-4.5-3.7-6.4-6.3
		C438.3,330.3,437.2,322.6,439.2,315.6z"/>
	<path fill="#F3F3F1" d="M313.7,494.2l11.6,11.6l10.4-10.4C327.6,494.8,320.4,495.7,313.7,494.2z"/>
	<path fill="#F3F3F1" d="M338.5,307.5c5.4-4,6.6-11.7,2.7-17.3c-4.9-6.9-14.4-8.5-21.1-3.5c-8.5,6.2-10.4,18.3-4.2,27
		c7.7,10.8,22.4,13.3,33,5.5c13.2-9.7,16.2-28.6,6.6-42.1c-12-16.9-35.1-20.8-51.6-8.6c-20.7,15.2-25.3,44.7-10.3,65.8
		c18.4,25.9,61.8,27.1,104.2,23.1c-9.7-4.2-18.3-10.5-25.1-19.7c-3.2-4.3-5.5-9-7.1-13.8c-1.3,1.2-2.7,2.3-4.2,3.4
		c-16.8,12.1-40.3,8.3-52.5-8.5c-9.7-13.5-6.7-32.3,6.8-42c10.8-7.8,25.8-5.3,33.6,5.4c6.2,8.6,4.3,20.6-4.4,26.9
		c-6.9,5-15.7,3.2-20.7-3.7C327.3,309.8,334.2,310.7,338.5,307.5z"/>
	<path fill="#F3F3F1" d="M316.1,399.1c3.7-2.7,4.6-8,1.9-11.9c-3.4-4.8-9.9-5.8-14.5-2.4c-5.8,4.3-7.1,12.6-2.9,18.5
		c5.3,7.4,15.4,9.1,22.7,3.8c6.6-4.9,9.5-13,8-20.7c-2-0.5-4.1-1-6.1-1.6c2,5.4,0.3,11.8-4.6,15.3c-4.7,3.4-10.8,2.2-14.2-2.5
		C308.4,400.7,313.1,401.3,316.1,399.1z"/>
	<g>
		<path fill="#F3F3F1" d="M185.4,184.5l-15.9-51.6l-35.6,35.6L185.4,184.5z M174.2,173.2l-25.2-7.8l17.4-17.4L174.2,173.2z"/>
		<path fill="#F3F3F1" d="M6,186.5L266.6,447c3.1-2,10.2-3.4,14.6-0.1c3.6,2.6,5.3,6.4,6.1,10.5c1.7-3.8,4.4-7.2,8-9.8
			c0.5-0.3,0.9-0.6,1.4-0.9c-9.2-4.2-17.4-10.3-24-19.2c-4.7-6.4-7.6-13.5-8.9-20.8c-0.5-0.7-0.6-2.1-0.5-4
			c-0.6-6.7,0.1-13.5,2.2-19.9c0.2-6.6-0.7-12.7-4.7-15.5c-4.1-2.9-9.7-2-12.6,2c-2.3,3.2-1.6,7.6,1.7,9.9c2.6,1.8,6.2,1.3,8.1-1.3
			c1.5-2,1-4.9-1.1-6.3c-1.7-1.2-4-0.8-5.2,0.8c-1,1.3-0.7,3.1,0.7,4.1c1.1,0.8,2.5,0.5,3.3-0.5c0.6-0.8,0.5-2.1-0.4-2.7
			c1.3,1,1.7,2.7,0.7,4c-1.2,1.7-3.5,2-5.2,0.8c-2.1-1.5-2.5-4.4-1-6.4c1.9-2.6,5.5-3.2,8.1-1.3c3.2,2.3,4,6.8,1.6,10.1
			c-2.9,4-8.5,4.9-12.6,2c-5-3.6-6.2-10.7-2.5-15.7c4.5-6.3,13.4-7.8,19.7-3.2c3.2,2.3,5.1,5.5,6.2,8.9c3.1-5.3,7.2-10,12.2-14
			c-2.7-2.8-5.3-5.7-7.6-9c-8.7-11.8-13.2-25.3-13.9-38.9c-0.6-2.1-0.4-5.8,0.2-10.4c0.2-2.1,0.5-4.1,0.8-6.2
			c2.2-15.5,5.1-36.3-5.3-43.7c-6.3-4.5-15.1-3.1-19.7,3.1c-3.6,4.9-2.5,11.8,2.6,15.4c4,2.9,9.7,2,12.6-2c2.3-3.2,1.6-7.6-1.6-9.9
			c-2.6-1.8-6.2-1.3-8.1,1.3c-1.5,2-1,4.8,1.1,6.3c1.7,1.2,4,0.8,5.2-0.8c1-1.3,0.7-3.3-0.6-4.3c2.1,1.5,2.6,4.1,1.1,6.2
			c-1.9,2.6-5.5,3.2-8,1.3c-3.2-2.3-3.9-6.8-1.6-10c2.9-4,8.5-4.9,12.5-2c5,3.6,6.2,10.6,2.5,15.7c-4.5,6.3-13.3,7.7-19.6,3.2
			c-7.9-5.7-9.6-16.6-4-24.5c7.1-9.8,20.9-12.1,30.6-5c7.3,5.4,10.3,13.4,11.4,21.9c4.8-7.3,10.9-13.8,18.4-19.2
			c26.3-19,63-13,82,13.3c2.5,3.4,4.4,7.1,5.9,10.9c1.9-1.9,4-3.7,6.2-5.3c18.1-13,43.3-8.9,56.3,9.1c6.4,8.9,7.6,19.9,4.3,29.5
			c1.1-1.2,2.3-2.3,3.7-3.3c8.7-6.3,20.9-4.3,27.2,4.4c5,7,3.5,16.7-3.5,21.7c-5.6,4-13.4,2.8-17.4-2.8c-3.2-4.5-2.2-10.7,2.3-13.9
			c3.6-2.6,8.6-1.8,11.1,1.8c2.1,2.9,1.4,6.8-1.4,8.9c-2.3,1.6-5.2,1.1-6.9-1.2c1,1.5,3.3,1.7,4.7,0.7c1.8-1.3,2.2-3.9,0.9-5.7
			c-1.6-2.3-4.8-2.8-7-1.2c-2.8,2.1-3.4,6.1-1.4,8.9c2.5,3.6,7.4,4.4,10.9,1.8c4.4-3.2,5.4-9.5,2.2-14c-4-5.6-11.6-6.9-17.1-2.9
			c-6.8,5-8.4,14.8-3.4,21.8c6.7,9.5,23.7,9,39,7.2c-3.5-0.8-6.7-2.4-8.9-5.5c-3.7-5-2.5-12.1,2.5-15.7c4-2.9,9.7-2,12.6,2
			c2.3,3.2,1.6,7.7-1.6,10.1c-2.6,1.9-6.2,1.3-8.1-1.3c-1.5-2.1-1-5,1-6.4c1.7-1.2,4-0.8,5.2,0.8c1,1.3,0.7,3.2-0.7,4.1
			c-1.1,0.8-2.4,0.5-3.2-0.6c0.5,0.7,1.5,0.8,2.2,0.3c0.8-0.6,1-1.8,0.4-2.6c-0.8-1.1-2.2-1.3-3.2-0.5c-1.3,1-1.6,2.8-0.6,4.1
			c1.2,1.7,3.4,2,5.1,0.8c2-1.5,2.5-4.4,1-6.5c-1.8-2.6-5.4-3.2-7.9-1.3c-3.2,2.3-3.6,7.1-1.3,10.4c2.4,3.4,8,4.4,13.5,4l7.5-7.5
			L186.3,6.2L6,186.5z M195.8,166.1l33.6,62.7l-62.7-33.6l-49.3,51.3l12.5-70l-64-31l70.5-9.7l9.7-70.5l31,64l70-12.5L195.8,166.1z"
			/>
	</g>
</g>
</svg>
