<?xml version="1.0" encoding="utf-8"?>
<!-- Generator: Adobe Illustrator 17.1.0, SVG Export Plug-In . SVG Version: 6.00 Build 0)  -->
<!DOCTYPE svg PUBLIC "-//W3C//DTD SVG 1.1//EN" "http://www.w3.org/Graphics/SVG/1.1/DTD/svg11.dtd">
<svg version="1.1" id="Layer_1" xmlns="http://www.w3.org/2000/svg" xmlns:xlink="http://www.w3.org/1999/xlink" x="0px" y="0px"
	 viewBox="0 0 512 512" enable-background="new 0 0 512 512" xml:space="preserve">
<g>
	<g>
		<g>
			<path fill="#F3F3F1" d="M507.8,256c-0.3,91.8-51.1,177.2-131.6,221.3c-81.5,44.6-183.7,39.2-260.6-12.3
				C38.9,413.7-3.3,322.4,5.5,230.9C14.1,140.2,74,60.2,157.3,24.3c85.5-36.8,187.1-21.5,258.8,37.4
				C473.9,109.2,507.6,181.3,507.8,256c0,2.2,3.5,2.2,3.5,0C511,166.7,463.5,83.1,387.1,37c-77.4-46.7-176.5-47.7-255.3-4
				C54,76.1,4,158.9,0.9,247.5c-3.2,89.3,42.5,174.9,117.3,223.3c75.9,49.1,174.9,53.1,255.1,11.9
				c78.9-40.6,131.4-121.7,137.4-209.9c0.4-5.6,0.5-11.2,0.6-16.8C511.2,253.8,507.8,253.8,507.8,256z"/>
		</g>
	</g>
	<g>
		<path fill="#F3F3F1" d="M274.5,414.6c-2.2-1.6-5.4-1.2-7.2-0.2l1.7,1.7c1.1-0.3,2.4-0.1,3.4,0.6c1.6,1.1,2,3.4,2.1,4.8l3.5,3.5
			C277.1,421.4,277.2,416.5,274.5,414.6z"/>
		<path fill="#F3F3F1" d="M343.6,387.7c1.5-1.1,1.8-3.2,0.7-4.7c-1.3-1.9-3.9-2.3-5.7-1c-2.3,1.7-2.8,4.9-1.1,7.3
			c2.1,2.9,6.1,3.6,8.9,1.5c3.6-2.6,4.4-7.7,1.8-11.4c-3.2-4.6-9.5-5.6-13.9-2.3c-5.6,4.1-6.8,12.1-2.8,17.8c2,2.8,5.1,4.6,8.8,5.6
			c7.1-0.7,14.2-1.7,20.7-2.6c-1.9-0.8-3.5-1.9-4.9-3.5c-1.7-1.9-2.4-4.1-2.3-6.3c-0.9,1.9-2.2,3.6-4.1,4.9
			c-4.6,3.3-10.9,2.3-14.2-2.3c-2.6-3.6-1.8-8.7,1.8-11.3c2.9-2.1,7-1.4,9.1,1.5c1.7,2.3,1.2,5.6-1.2,7.3c-1.9,1.3-4.3,0.9-5.6-1
			C340.6,388.4,342.4,388.6,343.6,387.7z"/>
		<path fill="#F3F3F1" d="M271.6,417.6c-0.5-0.3-1.3-0.2-1.6-0.5l3,3C272.5,419.6,272.5,418.2,271.6,417.6z"/>
		<path fill="#F3F3F1" d="M329.1,364.8c-0.6,7.5-4.4,14.5-11,19.2c-9.4,6.8-22.7,4.6-29.5-4.8c-5.4-7.5-3.8-18.1,3.8-23.5
			c0.8-0.5,1.5-1,2.3-1.4c-2.5-1.3-5-2.8-7.3-4.4c-0.6,0.3-1.1,0.7-1.6,1.1c-11.6,8.5-14.2,25.1-5.8,36.9
			c8.8,12.3,27.6,14.7,47.7,13.7c-0.6-0.6-1.2-1.3-1.7-2c-6.5-8.8-4.4-21.3,4.5-27.7c7.1-5.1,17-3.5,22.2,3.6
			c1.9,2.7,2.6,5.8,2.3,8.9c0.9-1.7,2.3-3.2,4.3-4.4c4.6-2.8,10.9-2,14.1,1.7c2.6,3,1.7,7.2-2,9.4c-2.9,1.8-7,1.3-9-1.1
			c-1.6-1.9-1.1-4.6,1.3-6c1.9-1.1,4.5-0.8,5.8,0.7c1.1,1.2,0.7,2.9-0.8,3.8c-1.2,0.7-2.7,0.5-3.6-0.5c0.5,0.6,1.7,0.7,2.5,0.3
			c0.9-0.6,1.2-1.7,0.5-2.5c-0.8-1-2.5-1.2-3.6-0.5c-1.5,0.9-1.8,2.6-0.8,3.9c1.3,1.5,3.8,1.8,5.7,0.7c2.3-1.4,2.9-4.1,1.2-6
			c-2-2.4-6-2.9-8.9-1.1c-3.6,2.2-4.3,6.7-1.7,9.6c2.9,3.5,9.7,3.6,17,3.4l31.9-31.9C385.5,364.7,356.2,368.5,329.1,364.8z"/>
		<path fill="#F3F3F1" d="M310.5,418.9c2.9,5.5,1.3,12.3-3.9,16.1c-4.6,3.3-11,2.2-14.2-2.4c-2.6-3.6-1.8-8.8,1.8-11.4
			c2.9-2.1,7-1.5,9.1,1.5c1.7,2.3,1.1,5.6-1.2,7.3c-1.9,1.3-4.3,0.9-5.6-1c0.8,1.2,2.7,1.4,3.9,0.6c1.5-1.1,1.8-3.2,0.7-4.7
			c-1.3-1.9-3.9-2.3-5.7-1c-2.3,1.7-2.8,4.9-1.1,7.3c2.1,2.9,6.1,3.6,8.9,1.5c3.6-2.6,4.4-7.7,1.8-11.4c-3.2-4.6-9.5-5.6-13.9-2.3
			c-5.6,4.1-6.8,12.1-2.8,17.8c6.1,8.6,22.5,7.1,36,5.3c-3.2-0.6-6.2-2-8.3-4.8c-3.1-4.3-2.1-10.3,2.2-13.4
			c3.4-2.5,8.2-1.7,10.7,1.7c2,2.7,1.4,6.6-1.4,8.6c-2.2,1.6-5.3,1.1-6.9-1.1c-1.3-1.8-0.9-4.2,0.9-5.5c1.4-1,3.4-0.7,4.4,0.7
			c0.8,1.1,0.6,2.7-0.6,3.5c-0.9,0.6-2.1,0.4-2.7-0.5c0.4,0.6,1.3,0.7,1.9,0.3c0.7-0.5,0.9-1.5,0.4-2.3c-0.6-0.9-1.9-1.1-2.8-0.5
			c-1.1,0.8-1.4,2.4-0.6,3.5c1,1.4,2.9,1.7,4.3,0.7c1.7-1.3,2.1-3.7,0.9-5.5c-1.6-2.2-4.6-2.7-6.7-1.1c-2.7,2-3.1,6.1-1.1,8.8
			c2.6,3.7,8.7,2.9,15.5,3.1l19.6-19.6C340.3,419.7,324.9,420.7,310.5,418.9z"/>
		<path fill="#F3F3F1" d="M405.7,304.7c-1.4,1.7-3.1,3.3-5,4.7c-9.4,6.8-22.6,4.7-29.4-4.8c-5.4-7.5-3.7-18.1,3.8-23.5
			c6-4.4,14.5-3,18.8,3c3.5,4.8,2.4,11.6-2.4,15.1c-3.9,2.8-8.8,1.8-11.6-2.1c1.8,2.5,5.6,2.9,8,1.2c3-2.2,3.7-6.6,1.5-9.7
			c-2.7-3.9-8-4.8-11.8-2c-4.7,3.5-5.8,10.3-2.4,15.1c4.3,6.1,12.6,7.5,18.5,3.1c7.4-5.5,9.1-16,3.7-23.6
			c-6.7-9.5-19.6-11.6-28.9-4.8c-11.6,8.5-14.2,25.1-5.8,36.9c9.3,13.1,29.9,14.9,51.2,13.5c-1.9-1.4-3.7-3.1-5.2-5.1
			C404.9,316.6,404,310.4,405.7,304.7z"/>
		<path fill="#F3F3F1" d="M303.3,450.4l9.4,9.4l8.5-8.5C314.6,450.9,308.7,451.6,303.3,450.4z"/>
		<path fill="#F3F3F1" d="M323.5,298c4.4-3.3,5.4-9.6,2.2-14.1c-4-5.7-11.7-6.9-17.2-2.9c-6.9,5.1-8.4,14.9-3.5,22
			c6.2,8.8,18.3,10.9,26.9,4.5c10.8-7.9,13.2-23.3,5.4-34.4c-9.8-13.8-28.6-17-42.1-7c-16.9,12.4-20.7,36.5-8.4,53.7
			c15,21.1,50.4,22.1,85,18.8c-7.9-3.4-14.9-8.5-20.4-16.1c-2.6-3.5-4.5-7.3-5.8-11.2c-1.1,1-2.2,1.9-3.4,2.8
			c-13.7,9.9-32.9,6.8-42.8-6.9c-7.9-11-5.4-26.3,5.5-34.2c8.8-6.3,21.1-4.4,27.4,4.4c5.1,7,3.5,16.8-3.6,21.9
			c-5.6,4.1-12.8,2.6-16.9-3C314.4,300,319.9,300.6,323.5,298z"/>
		<path fill="#F3F3F1" d="M305.2,372.8c3-2.2,3.7-6.6,1.5-9.7c-2.7-3.9-8-4.8-11.8-2c-4.7,3.5-5.8,10.3-2.4,15.1
			c4.3,6.1,12.6,7.5,18.5,3.1c5.4-4,7.7-10.6,6.5-16.9c-1.7-0.4-3.3-0.8-5-1.3c1.7,4.4,0.2,9.6-3.8,12.5c-3.9,2.8-8.8,1.8-11.6-2.1
			C298.9,374.1,302.8,374.6,305.2,372.8z"/>
		<g>
			<path fill="#F3F3F1" d="M198.6,197.7l-13-42.1l-29.1,29.1L198.6,197.7z M189.4,188.5l-20.6-6.4l14.2-14.2L189.4,188.5z"/>
			<path fill="#F3F3F1" d="M52.2,199.3l212.6,212.6c2.5-1.7,8.3-2.8,11.9-0.1c2.9,2.1,4.3,5.2,5,8.5c1.4-3.1,3.6-5.9,6.5-8
				c0.4-0.3,0.8-0.5,1.1-0.7c-7.5-3.4-14.2-8.4-19.5-15.6c-3.8-5.2-6.2-11-7.3-17c-0.4-0.6-0.5-1.7-0.4-3.2
				c-0.5-5.5,0.1-11,1.8-16.2c0.2-5.4-0.5-10.3-3.9-12.7c-3.3-2.3-7.9-1.6-10.3,1.6c-1.9,2.6-1.3,6.2,1.3,8.1c2.1,1.5,5.1,1,6.6-1
				c1.2-1.7,0.8-4-0.9-5.2c-1.4-1-3.2-0.7-4.2,0.7c-0.8,1.1-0.5,2.5,0.6,3.3c0.9,0.6,2.1,0.4,2.7-0.4c0.5-0.7,0.4-1.7-0.3-2.2
				c1.1,0.8,1.4,2.2,0.6,3.2c-1,1.3-2.9,1.7-4.2,0.7c-1.7-1.2-2.1-3.6-0.9-5.3c1.5-2.1,4.5-2.6,6.6-1.1c2.6,1.9,3.2,5.6,1.3,8.2
				c-2.4,3.3-7,4-10.3,1.7c-4.1-3-5-8.7-2.1-12.8c3.7-5.1,10.9-6.4,16-2.6c2.6,1.9,4.2,4.5,5.1,7.3c2.5-4.3,5.9-8.2,10-11.4
				c-2.2-2.3-4.3-4.7-6.2-7.3c-7.1-9.6-10.8-20.7-11.3-31.8c-0.5-1.7-0.3-4.7,0.2-8.5c0.2-1.7,0.4-3.4,0.7-5
				c1.8-12.7,4.1-29.6-4.3-35.7c-5.1-3.7-12.3-2.5-16,2.5c-3,4-2,9.7,2.1,12.6c3.3,2.3,7.9,1.6,10.3-1.6c1.9-2.6,1.3-6.2-1.3-8
				c-2.1-1.5-5.1-1-6.6,1c-1.2,1.7-0.8,4,0.9,5.1c1.4,1,3.2,0.7,4.2-0.7c0.8-1.1,0.6-2.7-0.5-3.5c1.7,1.2,2.1,3.4,0.9,5.1
				c-1.5,2.1-4.4,2.6-6.5,1.1c-2.6-1.9-3.2-5.6-1.3-8.2c2.4-3.3,6.9-4,10.2-1.7c4.1,3,5,8.7,2.1,12.8c-3.7,5.1-10.9,6.3-16,2.6
				c-6.4-4.6-7.9-13.6-3.2-20c5.8-8,17-9.9,25-4c5.9,4.4,8.4,10.9,9.3,17.9c3.9-5.9,8.9-11.2,15-15.6c21.5-15.5,51.4-10.6,66.9,10.8
				c2,2.8,3.6,5.8,4.8,8.9c1.6-1.6,3.3-3,5.1-4.4c14.7-10.6,35.3-7.3,45.9,7.4c5.2,7.2,6.2,16.2,3.5,24c0.9-1,1.9-1.9,3-2.7
				c7.1-5.1,17-3.5,22.2,3.6c4.1,5.7,2.8,13.6-2.9,17.7c-4.6,3.3-10.9,2.3-14.2-2.3c-2.6-3.6-1.8-8.7,1.8-11.3
				c2.9-2.1,7-1.4,9.1,1.5c1.7,2.3,1.2,5.6-1.2,7.3c-1.9,1.3-4.3,0.9-5.6-1c0.8,1.2,2.7,1.4,3.9,0.6c1.5-1.1,1.8-3.2,0.7-4.7
				c-1.3-1.9-3.9-2.3-5.7-1c-2.3,1.7-2.8,4.9-1.1,7.3c2.1,2.9,6.1,3.6,8.9,1.5c3.6-2.6,4.4-7.7,1.8-11.4c-3.2-4.6-9.5-5.6-13.9-2.3
				c-5.6,4.1-6.8,12.1-2.8,17.8c5.5,7.8,19.3,7.3,31.8,5.8c-2.8-0.6-5.4-2-7.3-4.5c-3-4.1-2-9.9,2.1-12.8c3.3-2.4,7.9-1.6,10.3,1.7
				c1.9,2.6,1.3,6.3-1.3,8.2c-2.1,1.5-5,1-6.6-1.1c-1.2-1.7-0.8-4,0.9-5.3c1.3-1,3.2-0.7,4.2,0.7c0.8,1.1,0.5,2.6-0.5,3.4
				c-0.9,0.6-2,0.4-2.6-0.5c0.4,0.6,1.2,0.7,1.8,0.3c0.7-0.5,0.8-1.5,0.3-2.2c-0.6-0.9-1.8-1.1-2.6-0.4c-1.1,0.8-1.3,2.3-0.5,3.4
				c1,1.4,2.8,1.7,4.1,0.7c1.7-1.2,2-3.6,0.8-5.3c-1.5-2.1-4.4-2.6-6.5-1.1c-2.6,1.9-2.9,5.8-1.1,8.5c2,2.8,6.6,3.6,11.1,3.3
				l6.1-6.1L199.3,52.3L52.2,199.3z M207.1,182.7l27.4,51.2l-51.2-27.4l-40.2,41.8l10.2-57.1l-52.2-25.3l57.5-7.9l7.9-57.5
				l25.3,52.2l57.1-10.2L207.1,182.7z"/>
		</g>
	</g>
</g>
</svg>
