<?xml version="1.0" encoding="utf-8"?>
<!-- Generator: Adobe Illustrator 17.1.0, SVG Export Plug-In . SVG Version: 6.00 Build 0)  -->
<!DOCTYPE svg PUBLIC "-//W3C//DTD SVG 1.1//EN" "http://www.w3.org/Graphics/SVG/1.1/DTD/svg11.dtd">
<svg version="1.1" xmlns="http://www.w3.org/2000/svg" xmlns:xlink="http://www.w3.org/1999/xlink" x="0px" y="0px"
	 viewBox="0 0 512 512" enable-background="new 0 0 512 512" xml:space="preserve">
<g id="Layer_1">
	<g>
		<circle fill="#C0CBD1" cx="258" cy="256" r="256"/>
	</g>
	<g>
		<defs>
			<circle id="SVGID_5_" cx="257" cy="256" r="256"/>
		</defs>
		<clipPath id="SVGID_2_">
			<use xlink:href="#SVGID_5_"  overflow="visible"/>
		</clipPath>
	</g>
	<circle fill="none" cx="257" cy="256" r="256"/>
	<g>
		<defs>
			<circle id="SVGID_7_" cx="258" cy="256" r="256"/>
		</defs>
		<clipPath id="SVGID_4_">
			<use xlink:href="#SVGID_7_"  overflow="visible"/>
		</clipPath>
		
			<line clip-path="url(#SVGID_4_)" fill="#FFFFFF" stroke="#E2E9F6" stroke-width="1000" stroke-miterlimit="10" stroke-dasharray="50" x1="20" y1="26" x2="20" y2="492"/>
		<polyline clip-path="url(#SVGID_4_)" fill="#71A39D" points="308,-103.9 193,195 118.9,273.4 100.9,314.7 159,351 194,332 
			284,415 377,415 384,380 371.7,360.5 322,343 292.4,238.1 467.7,6 387.1,-64.3 286.2,-114.8 		"/>
	</g>
	<polygon fill="#FFFFFF" points="166.9,192.3 158.4,131.2 76,88 76,125.4 128.2,149.6 128.8,168.6 76,147 76,167.6 128.2,192.3 
		128.8,210.2 84,189.9 90.2,216 128.8,235 	"/>
</g>
<g id="Layer_2">
</g>
</svg>
