<?xml version="1.0" encoding="utf-8"?>
<!-- Generator: Adobe Illustrator 17.1.0, SVG Export Plug-In . SVG Version: 6.00 Build 0)  -->
<!DOCTYPE svg PUBLIC "-//W3C//DTD SVG 1.1//EN" "http://www.w3.org/Graphics/SVG/1.1/DTD/svg11.dtd">
<svg version="1.1" id="Layer_1" xmlns="http://www.w3.org/2000/svg" xmlns:xlink="http://www.w3.org/1999/xlink" x="0px" y="0px"
	 viewBox="0 0 512 512" enable-background="new 0 0 512 512" xml:space="preserve">
<g>
	<g>
		<path fill="#F3F3F1" d="M89.4,402.9v-28.5c-13,9.2-28,14.6-44.7,14.6c-16.5,0-31.9-5.3-44.3-14.4v28.3H89.4z"/>
		<rect x="0.4" y="434.9" fill="#F3F3F1" width="89" height="60"/>
	</g>
	<g>
		<rect x="0.4" y="-0.1" fill="#F3F3F1" width="89" height="43"/>
		<path fill="#F3F3F1" d="M0.4,73.9v178.5c12.4-9,27.8-14.4,44.3-14.4c16.7,0,31.7,5.4,44.7,14.6V73.9H0.4z"/>
	</g>
</g>
<g>
	<g>
		<path fill="#F3F3F1" d="M195.4,402.9v-28.5c-13,9.2-28,14.6-44.7,14.6c-16.5,0-32.3-5.3-44.3-14.4v28.3H195.4z"/>
		<rect x="106.4" y="434.9" fill="#F3F3F1" width="89" height="60"/>
	</g>
	<g>
		<rect x="106.4" y="-0.1" fill="#F3F3F1" width="89" height="43"/>
		<path fill="#F3F3F1" d="M106.4,73.9v178.5c12-9,27.8-14.4,44.3-14.4c16.7,0,31.7,5.4,44.7,14.6V73.9H106.4z"/>
	</g>
</g>
<g>
	<g>
		<path fill="#F3F3F1" d="M300.4,402.9v-28.5c-12,9.2-28,14.6-44.7,14.6c-16.5,0-31.3-5.3-44.3-14.4v28.3H300.4z"/>
		<rect x="211.4" y="434.9" fill="#F3F3F1" width="89" height="60"/>
	</g>
	<g>
		<rect x="211.4" y="-0.1" fill="#F3F3F1" width="89" height="43"/>
		<path fill="#F3F3F1" d="M211.4,73.9v178.5c13-9,27.8-14.4,44.3-14.4c16.7,0,32.7,5.4,44.7,14.6V73.9H211.4z"/>
	</g>
</g>
<g>
	<g>
		<path fill="#F3F3F1" d="M406.4,402.9v-28.5c-13,9.2-28,14.6-44.7,14.6c-16.5,0-32.3-5.3-44.3-14.4v28.3H406.4z"/>
		<rect x="317.4" y="434.9" fill="#F3F3F1" width="89" height="60"/>
	</g>
	<g>
		<rect x="317.4" y="-0.1" fill="#F3F3F1" width="89" height="43"/>
		<path fill="#F3F3F1" d="M317.4,73.9v178.5c12-9,27.8-14.4,44.3-14.4c16.7,0,31.7,5.4,44.7,14.6V73.9H317.4z"/>
	</g>
</g>
<g>
	<g>
		<path fill="#F3F3F1" d="M512.4,402.9v-28.5c-13,9.2-28,14.6-44.7,14.6c-16.5,0-32.3-5.3-44.3-14.4v28.3H512.4z"/>
		<rect x="423.4" y="434.9" fill="#F3F3F1" width="89" height="60"/>
	</g>
	<g>
		<rect x="423.4" y="-0.1" fill="#F3F3F1" width="89" height="43"/>
		<path fill="#F3F3F1" d="M423.4,73.9v178.5c12-9,27.8-14.4,44.3-14.4c16.7,0,31.7,5.4,44.7,14.6V73.9H423.4z"/>
	</g>
</g>
</svg>
