<?xml version="1.0" encoding="utf-8"?>
<!-- Generator: Adobe Illustrator 17.1.0, SVG Export Plug-In . SVG Version: 6.00 Build 0)  -->
<!DOCTYPE svg PUBLIC "-//W3C//DTD SVG 1.1//EN" "http://www.w3.org/Graphics/SVG/1.1/DTD/svg11.dtd">
<svg version="1.1" id="Layer_1" xmlns="http://www.w3.org/2000/svg" xmlns:xlink="http://www.w3.org/1999/xlink" x="0px" y="0px"
	 viewBox="0 0 512 512" enable-background="new 0 0 512 512" xml:space="preserve">
<g>
	<path opacity="0.5" fill="#003840" d="M147.3,442.6V136.3c0-64.9,52.6-117.6,117.6-117.6h2.4c65.2,0,118,52.8,118,118v305.8H147.3z
		"/>
	<path opacity="0.6" fill="#005A5B" d="M175.5,442.6V208.9c0-49.6,40.2-89.7,89.7-89.7h1.8c49.7,0,90.1,40.3,90.1,90.1v233.4H175.5z
		"/>
	<path opacity="0.7" fill="#007369" d="M198.8,442.6V268.8c0-36.9,29.9-66.7,66.7-66.7h1.4c37,0,67,30,67,67v173.5H198.8z"/>
	<path opacity="0.8" fill="#008C72" d="M221.5,442.6V327.3c0-24.5,19.8-44.3,44.3-44.3h0.9c24.5,0,44.4,19.9,44.4,44.4v115.1H221.5z
		"/>
	<path opacity="0.9" fill="#02A676" d="M241.2,442.6v-64.8c0-13.7,11.1-24.9,24.9-24.9h0.5c13.8,0,25,11.2,25,25v64.7H241.2z"/>
	<rect x="69.5" y="466" fill="none" width="393.7" height="22.6"/>
	
		<text transform="matrix(1 0 0 1 145.7398 481.5713)" fill="#02A676" font-family="'CharlemagneStd-Bold'" font-size="22.1808" letter-spacing="22">CITADEL</text>
</g>
</svg>
