<?xml version="1.0" encoding="UTF-8"?>
<svg xmlns="http://www.w3.org/2000/svg" xmlns:xlink="http://www.w3.org/1999/xlink" width="409pt" height="409pt" viewBox="0 0 409 409" version="1.1">
<g id="surface1">
<path style=" stroke:none;fill-rule:nonzero;fill:rgb(94.901961%,92.54902%,89.411765%);fill-opacity:1;" d="M 408.660156 204.5 C 408.660156 317.253906 317.253906 408.660156 204.5 408.660156 C 91.746094 408.660156 0.339844 317.253906 0.339844 204.5 C 0.339844 91.746094 91.746094 0.339844 204.5 0.339844 C 317.253906 0.339844 408.660156 91.746094 408.660156 204.5 Z "/>
<path style=" stroke:none;fill-rule:nonzero;fill:rgb(20%,20%,20%);fill-opacity:1;" d="M 204.117188 360.730469 L 167.179688 238.753906 L 39.75 241.308594 L 144.34375 168.5 L 102.546875 48.144531 L 204.117188 125.085938 L 305.683594 48.144531 L 263.890625 168.542969 L 368.484375 241.351562 L 241.054688 238.796875 Z M 159.46875 160.617188 L 204.628906 246.125 L 249.789062 160.617188 Z "/>
<path style=" stroke:none;fill-rule:nonzero;fill:rgb(46.666667%,44.705882%,40.392157%);fill-opacity:1;" d="M 173.058594 168.285156 L 204.628906 228.144531 L 236.199219 168.285156 Z "/>
</g>
</svg>
