<?xml version="1.0" encoding="utf-8"?>
<!-- Generator: Adobe Illustrator 16.0.0, SVG Export Plug-In . SVG Version: 6.00 Build 0)  -->
<!DOCTYPE svg PUBLIC "-//W3C//DTD SVG 1.1//EN" "http://www.w3.org/Graphics/SVG/1.1/DTD/svg11.dtd">
<svg version="1.1" id="Layer_2" xmlns="http://www.w3.org/2000/svg" xmlns:xlink="http://www.w3.org/1999/xlink" x="0px" y="0px"
	 width="251.922px" height="421.577px" viewBox="0 0 251.922 421.577" enable-background="new 0 0 251.922 421.577"
	 xml:space="preserve">
<g>
	
		<rect x="17.292" y="314.38" transform="matrix(-0.866 -0.5 0.5 -0.866 -33.6229 627.7505)" fill="#FFFFFF" stroke="#000000" stroke-width="2" stroke-miterlimit="10" width="99.999" height="8"/>
	<polygon fill="#FFFFFF" stroke="#000000" stroke-width="2" stroke-miterlimit="10" points="72.685,333.04 51.899,321.04 
		22.729,381.564 34.854,388.564 	"/>
	<path fill="#FFFFFF" stroke="#000000" stroke-width="2" stroke-miterlimit="10" d="M82.435,316.153l-20.352-11.75l110.25-190.959
		c0,0,69.002-116.817,76.797-112.317s-58.178,123.067-58.178,123.067L82.435,316.153z"/>
	<path fill="#FFFFFF" stroke="#000000" stroke-width="2" stroke-miterlimit="10" d="M31.854,393.76l-12.125-7
		c0,0-12.098,14.955-16.428,12.455s-2.67,14.624,5.99,19.624s24.32-2.124,19.99-4.624S31.854,393.76,31.854,393.76z"/>
</g>
<g>
	<g>
		<path fill="#FFFFFF" d="M3.13,1.127c-7.794,4.5,57.84,123.067,57.84,123.067l47.454,83.943l12.918-22.375l-41.752-72.318
			C79.589,113.444,10.924-3.373,3.13,1.127z M225.931,289.916l-86.602,50l4,6.928l86.602-50L225.931,289.916z M189.839,304.403
			l-46.268-80.139l-13.015,23.022l38.931,68.866L189.839,304.403z M248.62,399.215c-4.33,2.5-16.428-12.455-16.428-12.455l-12.125,7
			c0,0,6.902,17.955,2.572,20.455s11.33,9.624,19.99,4.624S252.95,396.715,248.62,399.215z M200.022,321.04l-20.785,12l37.83,55.524
			l12.125-7L200.022,321.04z"/>
	</g>
	<g>
		<path fill="none" stroke="#000000" stroke-width="2" stroke-miterlimit="10" d="M3.13,1.127
			c-7.794,4.5,57.84,123.067,57.84,123.067l47.454,83.943l12.918-22.375l-41.752-72.318C79.589,113.444,10.924-3.373,3.13,1.127z
			 M225.931,289.916l-86.602,50l4,6.928l86.602-50L225.931,289.916z M189.839,304.403l-46.268-80.139l-13.015,23.022l38.931,68.866
			L189.839,304.403z M248.62,399.215c-4.33,2.5-16.428-12.455-16.428-12.455l-12.125,7c0,0,6.902,17.955,2.572,20.455
			s11.33,9.624,19.99,4.624S252.95,396.715,248.62,399.215z M200.022,321.04l-20.785,12l37.83,55.524l12.125-7L200.022,321.04z"/>
	</g>
</g>
</svg>
