<?xml version="1.0" encoding="utf-8"?>
<!-- Generator: Adobe Illustrator 15.0.0, SVG Export Plug-In . SVG Version: 6.00 Build 0)  -->
<!DOCTYPE svg PUBLIC "-//W3C//DTD SVG 1.1//EN" "http://www.w3.org/Graphics/SVG/1.1/DTD/svg11.dtd">
<svg version="1.1" id="Layer_1" xmlns="http://www.w3.org/2000/svg" xmlns:xlink="http://www.w3.org/1999/xlink" x="0px" y="0px"
	 width="41.771px" height="36px" viewBox="0 0 41.771 36" enable-background="new 0 0 41.771 36" xml:space="preserve">
<g>
	<polygon fill="#998675" points="10.443,36 0,18 10.443,0 31.328,0 41.771,18 31.328,36 	"/>
	<path d="M31.152,8.248C31.152,7.559,30.593,7,29.904,7H11.4c-0.689,0-1.248,0.559-1.248,1.248v18.504
		C10.152,27.441,10.71,28,11.4,28h18.504c0.689,0,1.248-0.559,1.248-1.248V8.248z M15.46,14.616c-1.34,0-2.426-1.087-2.426-2.427
		s1.086-2.426,2.426-2.426c1.34,0,2.427,1.086,2.427,2.426S16.801,14.616,15.46,14.616z M26.692,25.639
		c-1.341,0-2.427-1.086-2.427-2.427c0-1.339,1.086-2.426,2.427-2.426c1.34,0,2.426,1.087,2.426,2.426
		C29.118,24.553,28.032,25.639,26.692,25.639z"/>
</g>
</svg>
