<?xml version="1.0" encoding="utf-8"?>
<!-- Generator: Adobe Illustrator 16.0.0, SVG Export Plug-In . SVG Version: 6.00 Build 0)  -->
<!DOCTYPE svg PUBLIC "-//W3C//DTD SVG 1.1//EN" "http://www.w3.org/Graphics/SVG/1.1/DTD/svg11.dtd">
<svg version="1.1" id="Layer_2" xmlns="http://www.w3.org/2000/svg" xmlns:xlink="http://www.w3.org/1999/xlink" x="0px" y="0px"
	 width="334.65px" height="464px" viewBox="0 0 334.65 464" enable-background="new 0 0 334.65 464" xml:space="preserve">
<g>
	<g>
		<g>
			<path fill="#FFFFFF" stroke="#000000" stroke-width="2" stroke-miterlimit="10" d="M256.398,162.614l29.93-7.881
				C266.021,74.257,206.298,1,94.414,1C195.987,19.752,241.396,92.226,256.398,162.614z"/>
			<path fill="#FFFFFF" stroke="#000000" stroke-width="2" stroke-miterlimit="10" d="M288.175,162.52l-30.228,7.96
				c0.613,3.369,1.156,6.728,1.637,10.072l30.973-5.788C289.857,170.675,289.07,166.59,288.175,162.52z"/>
			<path fill="#FFFFFF" stroke="#000000" stroke-width="2" stroke-miterlimit="10" d="M260.609,188.498
				c1.232,10.791,1.805,21.363,1.805,31.502c7,0,24,0,32,0c0-12.272-0.864-24.796-2.623-37.329L260.609,188.498z"/>
		</g>
	</g>
	<polygon fill="#FFFFFF" stroke="#000000" stroke-width="2" stroke-miterlimit="10" points="137.414,22 128.414,22 23.414,212 
		32.414,212 	"/>
</g>
<g>
	<g>
		<g>
			<path fill="#FFFFFF" stroke="#000000" stroke-width="2" stroke-miterlimit="10" d="M256.398,301.386l29.93,7.882
				C266.021,389.743,206.298,463,94.414,463C195.987,444.248,241.396,371.774,256.398,301.386z"/>
			<path fill="#FFFFFF" stroke="#000000" stroke-width="2" stroke-miterlimit="10" d="M288.175,301.48l-30.228-7.96
				c0.613-3.369,1.156-6.728,1.637-10.071l30.973,5.787C289.857,293.325,289.07,297.41,288.175,301.48z"/>
			<path fill="#FFFFFF" stroke="#000000" stroke-width="2" stroke-miterlimit="10" d="M260.609,275.502
				c1.232-10.791,1.805-21.363,1.805-31.502c7,0,24,0,32,0c0,12.272-0.864,24.797-2.623,37.329L260.609,275.502z"/>
		</g>
	</g>
	<polygon fill="#FFFFFF" stroke="#000000" stroke-width="2" stroke-miterlimit="10" points="137.414,442 128.414,442 23.414,252 
		32.414,252 	"/>
</g>
<polygon fill="#FFFFFF" stroke="#000000" stroke-width="2" stroke-miterlimit="10" points="332.414,232 312.414,216 312.414,226 
	39.414,226 32.414,219 2.414,219 12.414,232 2.414,245 32.414,245 39.414,238 312.414,238 312.414,248 "/>
</svg>
