<?xml version="1.0" encoding="utf-8"?>
<!-- Generator: Adobe Illustrator 16.0.0, SVG Export Plug-In . SVG Version: 6.00 Build 0)  -->
<!DOCTYPE svg PUBLIC "-//W3C//DTD SVG 1.1//EN" "http://www.w3.org/Graphics/SVG/1.1/DTD/svg11.dtd">
<svg version="1.1" id="Layer_2" xmlns="http://www.w3.org/2000/svg" xmlns:xlink="http://www.w3.org/1999/xlink" x="0px" y="0px"
	 width="108px" height="92px" viewBox="968.743 704.743 108 92" enable-background="new 968.743 704.743 108 92"
	 xml:space="preserve">
<rect x="968.743" y="704.743" display="none" fill="#FFFFFF" width="108" height="92"/>
<polygon display="none" fill="#FFFFFF" points="995.743,796.743 968.743,750.743 995.743,704.743 1049.743,704.743 
	1076.743,750.743 1049.743,796.743 "/>
<path fill="#FFFFFF" d="M1062.312,733.689c-0.512,0.273-1.072,0.558-1.674,0.834c1.065-1.158-0.63-3.342-2.545-2.575
	c-0.18,0.07-0.355,0.145-0.536,0.217c1.065-1.357-0.61-3.607-2.429-2.54c-1.916,1.125-4.123,2.364-6.451,3.316
	c0.803-0.643,1.536-1.333,2.143-2.097c1.186-1.486-0.812-2.921-2.347-2.389c0.172-0.214,0.33-0.433,0.474-0.659
	c1.053-1.666-1.186-3.185-2.612-2.359c0.225-0.402,0.437-0.814,0.614-1.247c0.866-2.102-2.759-3-3.613-0.927
	c-0.396,0.953-1.027,1.811-1.776,2.595c0.015-0.031,0.033-0.062,0.048-0.092c0.938-2.041-2.291-3.816-3.234-1.758
	c-0.381,0.824-0.951,1.601-1.604,2.338c-0.162-0.494-0.509-0.918-0.976-1.144c1.029-1.419,1.798-2.954,2.101-4.643
	c0.237-1.33-1.262-2.958-2.753-1.968c-1.051,0.7-1.955,1.511-2.799,2.37c0.242-0.568,0.484-1.138,0.71-1.709
	c0.506-1.281-0.726-2.176-1.914-2.138c-0.04-0.708-0.124-1.417-0.271-2.125c-0.105-0.5-0.392-0.838-0.758-1.036
	c-0.901-1.74-4.11-0.814-3.481,1.236c0.221,0.719,0.332,1.446,0.375,2.182c-0.023,0.15-0.056,0.299-0.084,0.448
	c-0.355-1.252-0.906-2.442-1.707-3.537c-0.462-0.633-1.146-0.837-1.794-0.768c-0.647-0.069-1.332,0.135-1.794,0.768
	c-0.8,1.095-1.351,2.284-1.707,3.537c-0.028-0.149-0.062-0.3-0.084-0.448c0.043-0.734,0.155-1.463,0.375-2.182
	c0.63-2.051-2.579-2.978-3.48-1.236c-0.366,0.198-0.651,0.537-0.757,1.036c-0.146,0.709-0.23,1.417-0.271,2.125
	c-1.189-0.039-2.42,0.855-1.916,2.138c0.227,0.571,0.469,1.141,0.712,1.709c-0.846-0.857-1.748-1.67-2.8-2.37
	c-1.49-0.99-2.99,0.638-2.753,1.968c0.303,1.688,1.07,3.223,2.101,4.643c-0.467,0.226-0.812,0.647-0.978,1.144
	c-0.652-0.737-1.224-1.514-1.603-2.338c-0.948-2.06-4.175-0.283-3.237,1.758c0.015,0.03,0.034,0.061,0.049,0.092
	c-0.75-0.785-1.385-1.643-1.776-2.595c-0.854-2.073-4.48-1.175-3.613,0.927c0.178,0.433,0.389,0.845,0.614,1.247
	c-1.429-0.824-3.665,0.694-2.612,2.359c0.143,0.228,0.301,0.444,0.471,0.659c-1.535-0.533-3.529,0.901-2.347,2.389
	c0.606,0.764,1.341,1.453,2.144,2.097c-2.327-0.952-4.534-2.191-6.449-3.316c-1.818-1.068-3.496,1.183-2.432,2.54
	c-0.179-0.073-0.355-0.146-0.537-0.217c-1.912-0.767-3.61,1.417-2.545,2.575c-0.599-0.276-1.16-0.56-1.672-0.834
	c-2.092-1.135-3.978,1.877-1.891,3.007c1.966,1.062,4.446,2.118,7.039,2.767c-0.707,0.1-1.438,0.129-2.188,0.083
	c-2.413-0.146-2.397,3.336,0,3.482c0.344,0.021,0.681,0.023,1.015,0.021c-0.044,0.902,0.549,1.795,1.797,1.722
	c0.996-0.062,2.022-0.219,3.022-0.476c-0.058,0.273-0.062,0.549,0.012,0.792c0.298,1.005,1.294,1.343,2.305,1.215
	c0.676-0.084,1.297-0.26,1.863-0.5c0.09,0.76,0.588,1.266,1.356,1.542c1.489,0.533,3.944-1.391,5.032-2.1
	c0.171-0.111,0.348-0.227,0.524-0.341c-0.475,1.139-1.301,2.104-2.726,2.716c-2.19,0.941-0.288,3.941,1.892,3.008
	c1.559-0.668,2.682-1.667,3.477-2.858c-0.116,0.354-0.252,0.709-0.417,1.058c-0.965,2.035,2.266,3.808,3.237,1.756
	c0.742-1.562,1.121-3.123,1.312-4.707c0.499,1.244,1.078,2.466,1.695,3.691c1.023,2.033,4.256,0.265,3.236-1.758
	c-0.27-0.531-0.537-1.068-0.797-1.613c0.086,0.014,0.17,0.021,0.257,0.033c0.447,0.162,0.909,0.294,1.383,0.393
	c0.021,0.016,0.046,0.033,0.069,0.049c0.114,0.079,0.233,0.161,0.354,0.243c0.109,7.148,0.031,19.409-3.676,26.904
	c-3.658,7.4-10.707,3.338-13.447,11.753c2.117-1.451,3.245-2.485,7.335-3.201s7.685-1.869,9.812-3.619
	c-0.338,2.903-3.45,7.11-7.188,6.82c1.494,1.597,5.729,2.9,9.338-3.201c-0.373,4.507,2.366,7.119,3.86,8.135
	c1.493-1.016,4.232-3.628,3.857-8.135c3.611,6.104,7.845,4.798,9.339,3.201c-3.734,0.29-6.849-3.917-7.188-6.82
	c2.129,1.75,5.724,2.903,9.812,3.619c4.09,0.715,5.219,1.75,7.336,3.201c-2.739-8.415-9.788-4.353-13.447-11.753
	c-3.706-7.495-3.784-19.756-3.676-26.904c0.119-0.082,0.238-0.164,0.354-0.243c0.022-0.016,0.046-0.034,0.07-0.049
	c0.472-0.098,0.934-0.229,1.382-0.393c0.086-0.014,0.172-0.021,0.258-0.033c-0.26,0.544-0.53,1.082-0.799,1.613
	c-1.018,2.021,2.213,3.791,3.237,1.758c0.618-1.228,1.196-2.448,1.696-3.691c0.19,1.584,0.57,3.145,1.312,4.707
	c0.974,2.052,4.202,0.279,3.237-1.756c-0.166-0.349-0.301-0.702-0.418-1.058c0.795,1.191,1.918,2.189,3.476,2.858
	c2.179,0.936,4.084-2.065,1.892-3.008c-1.424-0.611-2.25-1.577-2.725-2.716c0.176,0.114,0.354,0.229,0.525,0.341
	c1.087,0.71,3.541,2.633,5.029,2.1c0.771-0.277,1.27-0.782,1.358-1.542c0.565,0.24,1.188,0.416,1.862,0.5
	c1.012,0.13,2.007-0.21,2.305-1.215c0.073-0.244,0.068-0.52,0.014-0.792c0.998,0.257,2.025,0.414,3.022,0.476
	c1.247,0.074,1.84-0.817,1.796-1.722c0.334,0.003,0.673,0,1.016-0.021c2.396-0.146,2.414-3.629,0-3.482
	c-0.752,0.046-1.481,0.017-2.188-0.083c2.593-0.647,5.073-1.703,7.039-2.767C1066.291,735.566,1064.406,732.556,1062.312,733.689z"
	/>
</svg>
