<?xml version="1.0" encoding="utf-8"?>
<!-- Generator: Adobe Illustrator 16.0.0, SVG Export Plug-In . SVG Version: 6.00 Build 0)  -->
<!DOCTYPE svg PUBLIC "-//W3C//DTD SVG 1.1//EN" "http://www.w3.org/Graphics/SVG/1.1/DTD/svg11.dtd">
<svg version="1.1" id="Layer_2" xmlns="http://www.w3.org/2000/svg" xmlns:xlink="http://www.w3.org/1999/xlink" x="0px" y="0px"
	 width="108px" height="92px" viewBox="952.75 731.75 108 92" enable-background="new 952.75 731.75 108 92" xml:space="preserve">
<rect x="952.75" y="731.75" display="none" fill="#00D7FF" width="108" height="92"/>
<polygon fill="#FFFFFF" points="979.75,823.75 952.75,777.75 979.75,731.75 1033.75,731.75 1060.75,777.75 1033.75,823.75 "/>
<g>
	<g>
		<g>
			<defs>
				<polygon id="SVGID_1_" points="979.75,823.75 952.75,777.75 979.75,731.75 1033.75,731.75 1060.75,777.75 1033.75,823.75 				
					"/>
			</defs>
			<clipPath id="SVGID_2_">
				<use xlink:href="#SVGID_1_"  overflow="visible"/>
			</clipPath>
			<path clip-path="url(#SVGID_2_)" d="M1007.217,816.481c9.533-19.7,3.274-54.801,0-77.038c0,0-0.011,0.064-0.025,0.159
				c-0.017-0.095-0.027-0.159-0.027-0.159c-3.443,23.384-8.873,55.889,0,77.148c0,0,0.011-0.022,0.027-0.055
				c0.015,0.031,0.025,0.055,0.025,0.055V816.481z"/>
		</g>
	</g>
	<g>
		<g>
			<defs>
				<polygon id="SVGID_3_" points="979.75,823.75 952.75,777.75 979.75,731.75 1033.75,731.75 1060.75,777.75 1033.75,823.75 				
					"/>
			</defs>
			<clipPath id="SVGID_4_">
				<use xlink:href="#SVGID_3_"  overflow="visible"/>
			</clipPath>
			<g clip-path="url(#SVGID_4_)">
				<path d="M1031.969,806.906c-5.18,0-10.747-3.107-15.658-5.849c-3.287-1.836-6.397-3.57-9-4.202
					c-2.604,0.632-5.714,2.366-9.003,4.202c-4.911,2.74-10.479,5.849-15.657,5.849c-2.898,0-5.627-2.167-8.108-6.44l-0.69-1.189
					l0.029-0.002l-0.17-0.331c-0.975-1.901-1.929-4.172-2.836-6.747L970.453,791h0.009l-0.124-0.376
					c-0.705-2.135-1.394-4.495-2.048-7.017l-0.333-1.284l0.006,0.001l-0.088-0.354c-0.559-2.26-1.1-4.686-1.607-7.208l-0.292-1.447
					l0.007,0.003l-0.055-0.282c-1.031-5.37-1.555-9.295-1.561-9.334l-0.217-1.635l1.494,0.746c0.172,0.084,17.185,8.498,30.95,8.498
					c1.867,0,2.865,3.247,3.208,4.644l0.103,0.413l-0.271,0.332c-1.326,1.64-4.687,6.738-2.805,8.59
					c2.09,2.055,6.931,3.16,10.479,3.49c3.548-0.329,8.392-1.437,10.479-3.49c1.886-1.854-1.479-6.95-2.805-8.589l-0.27-0.333
					l0.102-0.413c0.343-1.396,1.341-4.644,3.209-4.644c13.766,0,30.778-8.412,30.949-8.498l1.493-0.745l-0.216,1.634
					c-0.006,0.039-0.527,3.965-1.561,9.335l-0.056,0.282l0.009-0.002l-0.293,1.445c-0.51,2.524-1.051,4.949-1.607,7.209
					l-0.088,0.354h0.006l-0.332,1.285c-0.654,2.522-1.344,4.884-2.048,7.016l-0.124,0.375h0.009l-0.422,1.196
					c-0.909,2.575-1.862,4.847-2.838,6.747l-0.169,0.331l0.031,0.002l-0.691,1.189
					C1037.593,804.739,1034.865,806.906,1031.969,806.906z"/>
				<path fill="#FFFFFF" d="M1049.373,763.588c0,0-0.513,3.878-1.553,9.286c-8.053,2.648-14.959,3.333-17.451,3.375
					c-0.111,0.494-0.229,0.996-0.35,1.503c0.151,0.006,0.311,0.01,0.484,0.01c3.202,0,9.932-0.958,16.979-3.169
					c-0.453,2.239-0.984,4.677-1.601,7.173c-5.637,0.927-10.499,1.184-13.851,1.184c-1.372,0-2.491-0.043-3.307-0.102
					c-0.137,0.502-0.275,1.006-0.42,1.512c1.098,0.109,2.451,0.142,3.642,0.142c0.977,0,1.84-0.021,2.352-0.036
					c2.754-0.085,6.625-0.354,11.171-1.071c-0.606,2.337-1.282,4.695-2.031,6.964c-1.384,0.051-2.705,0.072-3.961,0.072
					c-5.976,0-10.466-0.512-12.763-0.914c-0.166,0.495-0.335,0.985-0.51,1.472c2.078,0.405,4.975,0.646,6.147,0.73
					c1.896,0.14,4.308,0.251,7.136,0.251c1.079,0,2.225-0.021,3.418-0.058c-0.847,2.397-1.775,4.659-2.791,6.64
					c-7.855-0.577-13.484-1.773-15.939-2.478c-0.218,0.481-0.44,0.953-0.667,1.411c2.178,0.688,5.596,1.279,6.923,1.498
					c2.276,0.369,5.275,0.769,8.874,1.052c-2.104,3.625-4.55,6.002-7.339,6.002c-8.384,0-17.905-8.569-24.659-10.074
					c-6.754,1.506-16.274,10.074-24.658,10.074c-2.791,0-5.234-2.377-7.34-6.002c3.599-0.283,6.598-0.684,8.872-1.052
					c1.328-0.219,4.748-0.81,6.925-1.498c-0.228-0.458-0.448-0.93-0.668-1.411c-2.453,0.703-8.082,1.898-15.938,2.478
					c-1.016-1.979-1.946-4.242-2.791-6.64c1.195,0.037,2.34,0.058,3.419,0.058c2.827,0,5.238-0.111,7.135-0.251
					c1.172-0.086,4.07-0.325,6.147-0.73c-0.173-0.485-0.345-0.977-0.511-1.472c-2.295,0.402-6.785,0.914-12.761,0.914
					c-1.256,0-2.58-0.021-3.96-0.072c-0.749-2.269-1.426-4.626-2.031-6.964c4.545,0.718,8.416,0.985,11.17,1.071
					c0.512,0.016,1.375,0.036,2.352,0.036c1.189,0,2.544-0.031,3.641-0.142c-0.144-0.506-0.283-1.01-0.42-1.512
					c-0.814,0.059-1.933,0.102-3.305,0.102c-3.352,0-8.214-0.257-13.85-1.184c-0.615-2.496-1.148-4.934-1.601-7.173
					c7.046,2.211,13.774,3.169,16.978,3.169c0.174,0,0.333-0.004,0.484-0.01c-0.119-0.507-0.236-1.009-0.349-1.503
					c-2.492-0.042-9.399-0.727-17.451-3.375c-1.04-5.408-1.552-9.286-1.552-9.286s17.205,8.593,31.35,8.593
					c1.371,0,2.349,3.976,2.349,3.976s-5.607,6.926-2.739,9.747c2.375,2.337,7.657,3.439,11.105,3.75
					c3.448-0.311,8.729-1.413,11.105-3.75c2.869-2.821-2.739-9.747-2.739-9.747s0.977-3.976,2.347-3.976
					C1032.169,772.18,1049.373,763.588,1049.373,763.588 M963.057,760.542l0.434,3.271c0.02,0.148,0.459,3.45,1.35,8.231
					l-0.023-0.007l0.414,2.053l0.021,0.109h0.001l0.146,0.73c0.443,2.195,0.911,4.319,1.394,6.326l-0.026-0.004l0.442,1.705
					l0.083,0.334h0.005l0.137,0.53c0.578,2.228,1.184,4.33,1.804,6.268l-0.04-0.001l0.564,1.604l0.118,0.355h0.008l0.151,0.432
					c0.793,2.25,1.623,4.271,2.472,6.026l-0.119,0.011l0.951,1.637l0.112,0.22l0.014-0.002l0.306,0.525
					c2.652,4.564,5.639,6.88,8.877,6.88c5.412,0,11.088-3.167,16.095-5.962c3.143-1.755,6.12-3.415,8.564-4.062
					c2.445,0.646,5.423,2.308,8.565,4.062c5.006,2.795,10.682,5.962,16.094,5.962c3.238,0,6.226-2.314,8.876-6.88l0.307-0.525
					l0.014,0.002l0.108-0.212l0.956-1.645l-0.12-0.011c0.849-1.753,1.678-3.775,2.471-6.026l0.152-0.432h0.01l0.129-0.389
					l0.553-1.571l-0.038,0.001c0.618-1.935,1.225-4.038,1.803-6.268l0.137-0.53h0.006l0.086-0.355l0.438-1.684l-0.025,0.005
					c0.479-2.007,0.949-4.13,1.392-6.327l0.148-0.73h0.001l0.012-0.068l0.423-2.094l-0.023,0.008
					c0.891-4.782,1.331-8.084,1.35-8.232l0.432-3.269l-2.986,1.491c-0.169,0.084-17.001,8.404-30.55,8.404
					c-2.283,0-3.473,2.887-4.067,5.309l-0.203,0.827l0.54,0.666c1.884,2.336,3.992,6.328,2.871,7.431
					c-1.788,1.758-6.207,2.883-9.854,3.231c-3.647-0.351-8.065-1.475-9.854-3.231c-0.711-0.701-0.099-3.75,2.873-7.432l0.536-0.666
					l-0.201-0.826c-0.596-2.422-1.784-5.309-4.068-5.309c-13.566,0-30.38-8.319-30.548-8.404L963.057,760.542L963.057,760.542z"/>
			</g>
		</g>
	</g>
</g>
</svg>
