<?xml version="1.0" encoding="UTF-8"?>
<svg xmlns="http://www.w3.org/2000/svg" xmlns:xlink="http://www.w3.org/1999/xlink" width="409pt" height="409pt" viewBox="0 0 409 409" version="1.1">
<g id="surface1">
<path style=" stroke:none;fill-rule:nonzero;fill:rgb(0.784314%,65.098039%,46.27451%);fill-opacity:1;" d="M 409.339844 205.054688 C 409.339844 317.785156 317.953125 409.171875 205.222656 409.171875 C 92.492188 409.171875 1.109375 317.785156 1.109375 205.054688 C 1.109375 92.324219 92.492188 0.9375 205.222656 0.9375 C 317.953125 0.9375 409.339844 92.324219 409.339844 205.054688 Z "/>
<path style=" stroke:none;fill-rule:nonzero;fill:rgb(0%,35.294118%,35.686275%);fill-opacity:1;" d="M 364.09375 240.289062 C 253.792969 205.90625 148.007812 206.628906 46.351562 240.289062 C 65.652344 216.046875 64.460938 192.613281 46.351562 169.863281 C 152.523438 201.132812 258.4375 200.410156 364.09375 169.863281 C 349.609375 193.550781 347.222656 217.066406 364.09375 240.289062 Z "/>
<path style=" stroke:none;fill-rule:nonzero;fill:rgb(0%,35.294118%,35.686275%);fill-opacity:1;" d="M 170.886719 362.007812 C 204.839844 253.027344 204.117188 148.5625 170.886719 48.144531 C 194.871094 67.230469 218.003906 65.992188 240.457031 48.144531 C 209.570312 153.035156 210.292969 257.628906 240.457031 362.007812 C 217.027344 347.691406 193.804688 345.347656 170.886719 362.007812 Z "/>
<path style=" stroke:none;fill-rule:nonzero;fill:rgb(0%,45.098039%,41.176471%);fill-opacity:1;" d="M 245.316406 205.648438 C 245.316406 227.15625 227.878906 244.589844 206.375 244.589844 C 184.867188 244.589844 167.433594 227.15625 167.433594 205.648438 C 167.433594 184.144531 184.867188 166.710938 206.375 166.710938 C 227.878906 166.710938 245.316406 184.144531 245.316406 205.648438 Z "/>
<path style=" stroke:none;fill-rule:nonzero;fill:rgb(0%,54.901961%,44.705882%);fill-opacity:1;" d="M 233.171875 205.648438 C 233.171875 220.449219 221.175781 232.449219 206.375 232.449219 C 191.574219 232.449219 179.578125 220.449219 179.578125 205.648438 C 179.578125 190.851562 191.574219 178.851562 206.375 178.851562 C 221.175781 178.851562 233.171875 190.851562 233.171875 205.648438 Z "/>
</g>
</svg>
