<?xml version="1.0" encoding="UTF-8"?>
<svg xmlns="http://www.w3.org/2000/svg" xmlns:xlink="http://www.w3.org/1999/xlink" width="409pt" height="409pt" viewBox="0 0 409 409" version="1.1">
<g id="surface1">
<path style=" stroke:none;fill-rule:nonzero;fill:rgb(52.156863%,62.352941%,47.843137%);fill-opacity:1;" d="M 409.253906 204.5 C 409.253906 317.582031 317.582031 409.253906 204.5 409.253906 C 91.417969 409.253906 -0.253906 317.582031 -0.253906 204.5 C -0.253906 91.417969 91.417969 -0.253906 204.5 -0.253906 C 317.582031 -0.253906 409.253906 91.417969 409.253906 204.5 Z "/>
<path style=" stroke:none;fill-rule:nonzero;fill:rgb(90.588235%,87.058824%,80.392157%);fill-opacity:1;" d="M 309.222656 90.703125 L 55.9375 223.332031 C 53.085938 224.820312 49.546875 223.714844 48.058594 220.859375 L 45.332031 215.621094 C 43.839844 212.765625 44.949219 209.230469 47.800781 207.738281 L 301.125 75.152344 C 303.980469 73.664062 307.515625 74.769531 309.007812 77.625 L 311.734375 82.863281 C 313.183594 85.71875 312.074219 89.214844 309.222656 90.703125 Z "/>
<path style=" stroke:none;fill-rule:nonzero;fill:rgb(97.254902%,89.803922%,53.72549%);fill-opacity:1;" d="M 77.960938 233.457031 L 305.238281 114.480469 L 349.441406 198.921875 L 122.164062 317.894531 Z "/>
<path style=" stroke:none;fill-rule:nonzero;fill:rgb(90.588235%,87.058824%,80.392157%);fill-opacity:1;" d="M 358.8125 195.511719 L 108.554688 326.476562 C 104.847656 328.433594 100.246094 326.988281 98.332031 323.28125 L 97.222656 321.109375 C 95.261719 317.402344 96.710938 312.800781 100.417969 310.882812 L 350.632812 179.917969 C 354.339844 177.957031 358.941406 179.40625 360.855469 183.113281 L 361.964844 185.285156 C 363.925781 188.949219 362.519531 193.550781 358.8125 195.511719 Z "/>
<path style=" stroke:none;fill-rule:nonzero;fill:rgb(85.490196%,86.27451%,66.666667%);fill-opacity:1;" d="M 105.847656 286.71875 L 333.125 167.742188 L 355.550781 210.585938 L 128.273438 329.5625 Z "/>
<path style=" stroke:none;fill-rule:nonzero;fill:rgb(85.490196%,86.27451%,66.666667%);fill-opacity:1;" d="M 133.695312 339.992188 L 360.972656 221.019531 L 364.371094 227.511719 L 137.09375 346.484375 Z "/>
<path style=" stroke:none;fill-rule:nonzero;fill:rgb(85.490196%,86.27451%,66.666667%);fill-opacity:1;" d="M 50.742188 181.496094 L 278.019531 62.523438 L 300.445312 105.367188 L 73.167969 224.339844 Z "/>
</g>
</svg>
