<?xml version="1.0" encoding="utf-8"?>
<!-- Generator: Adobe Illustrator 17.1.0, SVG Export Plug-In . SVG Version: 6.00 Build 0)  -->
<!DOCTYPE svg PUBLIC "-//W3C//DTD SVG 1.0//EN" "http://www.w3.org/TR/2001/REC-SVG-20010904/DTD/svg10.dtd">
<svg version="1.0" xmlns="http://www.w3.org/2000/svg" xmlns:xlink="http://www.w3.org/1999/xlink" x="0px" y="0px"
	 viewBox="0 0 512 512" enable-background="new 0 0 512 512" xml:space="preserve">
<g id="Piece_x5F_1">
</g>
<g id="Layer_4">
	<g>
		<path fill="#4A2C42" d="M477,384.8v-256L255.5,0.8L34,128.8v256l220.6,127.5h1.7L477,384.8z M170.2,383.2l13.9-7.3l-4.6-8.9
			l0.6-0.3l-63.9-122.1h0l-5.3-10.2l-14,7.3l-9.2-17.5l14-7.3L96,206.1L306,96.1l5.7,10.8l14.4-7.5l9.2,17.5l-14.4,7.5l5.3,10.2
			l-156.3,81.8l156.3-81.8l63.9,122.1l0,0l4.6,8.9l13.9-7.3l9.2,17.5l-13.9,7.3l4.6,8.9L197.9,402.3l-4.6-8.9l-13.9,7.3L170.2,383.2
			z"/>
		<path fill="#CC9459" d="M326.2,134.7l-156.3,81.8l-53.7,28.1l0,0h0L180,366.7l210.1-110L326.2,134.7z M256,288.3
			c-20.4,0-37-16.6-37-37s16.6-37,37-37s37,16.6,37,37S276.4,288.3,256,288.3z"/>
		
			<rect x="89.4" y="221.5" transform="matrix(-0.4638 -0.886 0.886 -0.4638 -57.9316 423.6048)" fill="#59210D" width="19.7" height="15.8"/>
		
			<rect x="313.6" y="103.9" transform="matrix(0.4638 0.886 -0.886 0.4638 272.6512 -226.5252)" fill="#59210D" width="19.7" height="16.2"/>
		
			<rect x="396.4" y="263" transform="matrix(0.4638 0.886 -0.886 0.4638 457.7637 -214.7467)" fill="#59210D" width="19.7" height="15.6"/>
		
			<rect x="173.9" y="378.4" transform="matrix(0.886 -0.4638 0.4638 0.886 -159.3509 128.5654)" fill="#59210D" width="15.6" height="19.7"/>
		
			<rect x="181.7" y="366.3" transform="matrix(0.8859 -0.4638 0.4638 0.8859 -151.4556 126.7954)" fill="#884051" width="0.7" height="10"/>
		
			<rect x="387.4" y="261.2" transform="matrix(0.4638 0.886 -0.886 0.4638 441.8733 -207.6086)" fill="#884051" width="10" height="0"/>
		
			<rect x="182" y="337.7" transform="matrix(-0.886 0.4638 -0.4638 -0.886 726.4603 506.8239)" fill="#884051" width="237.8" height="10"/>
		
			<rect x="282.4" y="197.7" transform="matrix(0.4638 0.886 -0.886 0.4638 434.2581 -85.0617)" fill="#884051" width="10" height="237.1"/>
		<polygon fill="#884051" points="403.9,283.1 394.8,265.7 394.7,265.7 402,279.5 191.9,389.5 184.7,375.6 184.1,375.9 193.3,393.4 
					"/>
		
			<rect x="174.8" y="319.7" transform="matrix(-0.886 0.4638 -0.4638 -0.886 705.1386 481.7258)" fill="#884051" width="237.1" height="15.6"/>
		
			<rect x="85.3" y="150.4" transform="matrix(0.886 -0.4638 0.4638 0.886 -49.3505 112.3728)" fill="#B86451" width="237.1" height="12.2"/>
		<polygon fill="#B86451" points="326.2,134.7 320.8,124.5 110.8,234.4 116.1,244.6 169.9,216.5 		"/>
		<polygon fill="#B86451" points="169.9,216.5 116.1,244.6 116.1,244.6 		"/>
		
			<rect x="92.7" y="160.8" transform="matrix(0.886 -0.4638 0.4638 0.886 -55.0763 117.4288)" fill="#B86451" width="237.1" height="19.7"/>
		<circle fill="#CC9459" cx="256" cy="251.3" r="37"/>
	</g>
</g>
<g id="Layer_5" display="none">
</g>
<g id="Layer_7">
</g>
<g id="Grid" display="none">
</g>
<g id="Lines" display="none">
	<line display="inline" fill="none" stroke="#91A29E" stroke-miterlimit="10" x1="-253" y1="-460.1" x2="259" y2="51.9"/>
	<line display="inline" fill="none" stroke="#91A29E" stroke-miterlimit="10" x1="325" y1="-462.1" x2="-187" y2="49.9"/>
</g>
<g id="Layer_6">
</g>
</svg>
