<?xml version="1.0" encoding="utf-8"?>
<!-- Generator: Adobe Illustrator 17.1.0, SVG Export Plug-In . SVG Version: 6.00 Build 0)  -->
<!DOCTYPE svg PUBLIC "-//W3C//DTD SVG 1.0//EN" "http://www.w3.org/TR/2001/REC-SVG-20010904/DTD/svg10.dtd">
<svg version="1.0" xmlns="http://www.w3.org/2000/svg" xmlns:xlink="http://www.w3.org/1999/xlink" x="0px" y="0px"
	 viewBox="0 0 512 512" enable-background="new 0 0 512 512" xml:space="preserve">
<g id="Piece_x5F_1">
</g>
<g id="Layer_4">
	<g>
		<path fill="#002800" d="M477.5,384.8v-256L256,0.8l-221.5,128v256l220.6,127.5h1.7L477.5,384.8z M175.3,117.3h72.2v-19h16v19h71.3
			l79.8,137.5l-79.8,137.5H175.3L95.5,254.8L175.3,117.3z"/>
		<path fill="#8AC212" d="M334.8,392.3l79.8-137.5l-79.8-137.5h-71.3v48h26.6L255,197.4l-35.1-32.1h27.6v-48h-72.2L95.5,254.8
			l79.8,137.5H334.8z M353.9,257.3l-48.8,84.5l-48.8-84.5H353.9z"/>
		<rect x="247.5" y="98.3" fill="#087200" width="16" height="19"/>
		<polygon fill="#087200" points="219.9,165.3 255,197.4 290.1,165.3 263.5,165.3 263.5,117.3 247.5,117.3 247.5,165.3 		"/>
		<polygon fill="#087200" points="353.9,257.3 256.4,257.3 305.2,341.8 		"/>
	</g>
</g>
<g id="Layer_5" display="none">
</g>
<g id="Layer_7">
</g>
<g id="Grid" display="none">
</g>
<g id="Lines" display="none">
	<line display="inline" fill="none" stroke="#91A29E" stroke-miterlimit="10" x1="1.5" y1="-460.1" x2="513.5" y2="51.9"/>
	<line display="inline" fill="none" stroke="#91A29E" stroke-miterlimit="10" x1="-278.5" y1="-462.1" x2="233.5" y2="49.9"/>
	<line display="inline" fill="none" stroke="#91A29E" stroke-miterlimit="10" x1="281.5" y1="-460.1" x2="793.5" y2="51.9"/>
	<line display="inline" fill="none" stroke="#91A29E" stroke-miterlimit="10" x1="859.5" y1="-462.1" x2="347.5" y2="49.9"/>
	<line display="inline" fill="none" stroke="#91A29E" stroke-miterlimit="10" x1="299.5" y1="-460.1" x2="-212.5" y2="51.9"/>
</g>
<g id="Layer_6">
</g>
</svg>
