<?xml version="1.0" encoding="UTF-8"?>
<svg xmlns="http://www.w3.org/2000/svg" xmlns:xlink="http://www.w3.org/1999/xlink" width="409pt" height="409pt" viewBox="0 0 409 409" version="1.1">
<defs>
<clipPath id="clip1">
  <path d="M 162 146 L 197 146 L 197 185 L 162 185 Z "/>
</clipPath>
<clipPath id="clip2">
  <path d="M 196.105469 165.859375 L 196.105469 184.730469 C 196.105469 174.039062 187.117188 165.390625 176.082031 165.390625 C 165.007812 165.390625 156.058594 174.039062 156.058594 184.730469 L 156.058594 165.859375 C 156.058594 155.164062 165.046875 146.515625 176.082031 146.515625 C 187.160156 146.515625 196.105469 155.164062 196.105469 165.859375 Z "/>
</clipPath>
<clipPath id="clip3">
  <path d="M 159 151 L 163 151 L 163 175 L 159 175 Z "/>
</clipPath>
<clipPath id="clip4">
  <path d="M 196.105469 165.859375 L 196.105469 184.730469 C 196.105469 174.039062 187.117188 165.390625 176.082031 165.390625 C 165.007812 165.390625 156.058594 174.039062 156.058594 184.730469 L 156.058594 165.859375 C 156.058594 155.164062 165.046875 146.515625 176.082031 146.515625 C 187.160156 146.515625 196.105469 155.164062 196.105469 165.859375 Z "/>
</clipPath>
<clipPath id="clip5">
  <path d="M 156 155 L 159 155 L 159 180 L 156 180 Z "/>
</clipPath>
<clipPath id="clip6">
  <path d="M 196.105469 165.859375 L 196.105469 184.730469 C 196.105469 174.039062 187.117188 165.390625 176.082031 165.390625 C 165.007812 165.390625 156.058594 174.039062 156.058594 184.730469 L 156.058594 165.859375 C 156.058594 155.164062 165.046875 146.515625 176.082031 146.515625 C 187.160156 146.515625 196.105469 155.164062 196.105469 165.859375 Z "/>
</clipPath>
<clipPath id="clip7">
  <path d="M 156 160 L 157 160 L 157 185 L 156 185 Z "/>
</clipPath>
<clipPath id="clip8">
  <path d="M 196.105469 165.859375 L 196.105469 184.730469 C 196.105469 174.039062 187.117188 165.390625 176.082031 165.390625 C 165.007812 165.390625 156.058594 174.039062 156.058594 184.730469 L 156.058594 165.859375 C 156.058594 155.164062 165.046875 146.515625 176.082031 146.515625 C 187.160156 146.515625 196.105469 155.164062 196.105469 165.859375 Z "/>
</clipPath>
<clipPath id="clip9">
  <path d="M 195 165 L 197 165 L 197 191 L 195 191 Z "/>
</clipPath>
<clipPath id="clip10">
  <path d="M 176.082031 204.074219 C 165.007812 204.074219 156.058594 195.425781 156.058594 184.730469 L 156.058594 165.859375 C 156.058594 176.550781 165.046875 185.199219 176.082031 185.199219 C 187.160156 185.199219 196.105469 176.550781 196.105469 165.859375 L 196.105469 184.730469 C 196.105469 195.425781 187.160156 204.074219 176.082031 204.074219 Z "/>
</clipPath>
<clipPath id="clip11">
  <path d="M 193 171 L 196 171 L 196 195 L 193 195 Z "/>
</clipPath>
<clipPath id="clip12">
  <path d="M 176.082031 204.074219 C 165.007812 204.074219 156.058594 195.425781 156.058594 184.730469 L 156.058594 165.859375 C 156.058594 176.550781 165.046875 185.199219 176.082031 185.199219 C 187.160156 185.199219 196.105469 176.550781 196.105469 165.859375 L 196.105469 184.730469 C 196.105469 195.425781 187.160156 204.074219 176.082031 204.074219 Z "/>
</clipPath>
<clipPath id="clip13">
  <path d="M 189 175 L 194 175 L 194 199 L 189 199 Z "/>
</clipPath>
<clipPath id="clip14">
  <path d="M 176.082031 204.074219 C 165.007812 204.074219 156.058594 195.425781 156.058594 184.730469 L 156.058594 165.859375 C 156.058594 176.550781 165.046875 185.199219 176.082031 185.199219 C 187.160156 185.199219 196.105469 176.550781 196.105469 165.859375 L 196.105469 184.730469 C 196.105469 195.425781 187.160156 204.074219 176.082031 204.074219 Z "/>
</clipPath>
<clipPath id="clip15">
  <path d="M 156 165 L 190 165 L 190 205 L 156 205 Z "/>
</clipPath>
<clipPath id="clip16">
  <path d="M 176.082031 204.074219 C 165.007812 204.074219 156.058594 195.425781 156.058594 184.730469 L 156.058594 165.859375 C 156.058594 176.550781 165.046875 185.199219 176.082031 185.199219 C 187.160156 185.199219 196.105469 176.550781 196.105469 165.859375 L 196.105469 184.730469 C 196.105469 195.425781 187.160156 204.074219 176.082031 204.074219 Z "/>
</clipPath>
<clipPath id="clip17">
  <path d="M 337 195 L 344 195 L 344 254 L 337 254 Z "/>
</clipPath>
<clipPath id="clip18">
  <path d="M 343.304688 195.425781 L 343.304688 214.300781 C 343.304688 288.34375 281.144531 348.375 204.5 348.375 C 127.855469 348.375 65.695312 288.34375 65.695312 214.300781 L 65.695312 195.425781 C 65.695312 269.472656 127.855469 329.5 204.5 329.5 C 281.144531 329.5 343.304688 269.472656 343.304688 195.425781 Z "/>
</clipPath>
<clipPath id="clip19">
  <path d="M 322 234 L 338 234 L 338 285 L 322 285 Z "/>
</clipPath>
<clipPath id="clip20">
  <path d="M 343.304688 195.425781 L 343.304688 214.300781 C 343.304688 288.34375 281.144531 348.375 204.5 348.375 C 127.855469 348.375 65.695312 288.34375 65.695312 214.300781 L 65.695312 195.425781 C 65.695312 269.472656 127.855469 329.5 204.5 329.5 C 281.144531 329.5 343.304688 269.472656 343.304688 195.425781 Z "/>
</clipPath>
<clipPath id="clip21">
  <path d="M 300 265 L 323 265 L 323 312 L 300 312 Z "/>
</clipPath>
<clipPath id="clip22">
  <path d="M 343.304688 195.425781 L 343.304688 214.300781 C 343.304688 288.34375 281.144531 348.375 204.5 348.375 C 127.855469 348.375 65.695312 288.34375 65.695312 214.300781 L 65.695312 195.425781 C 65.695312 269.472656 127.855469 329.5 204.5 329.5 C 281.144531 329.5 343.304688 269.472656 343.304688 195.425781 Z "/>
</clipPath>
<clipPath id="clip23">
  <path d="M 65 195 L 301 195 L 301 349 L 65 349 Z "/>
</clipPath>
<clipPath id="clip24">
  <path d="M 343.304688 195.425781 L 343.304688 214.300781 C 343.304688 288.34375 281.144531 348.375 204.5 348.375 C 127.855469 348.375 65.695312 288.34375 65.695312 214.300781 L 65.695312 195.425781 C 65.695312 269.472656 127.855469 329.5 204.5 329.5 C 281.144531 329.5 343.304688 269.472656 343.304688 195.425781 Z "/>
</clipPath>
</defs>
<g id="surface1">
<path style=" stroke:none;fill-rule:nonzero;fill:rgb(98.039216%,79.215686%,40%);fill-opacity:1;" d="M 408.019531 204.5 C 408.019531 316.902344 316.902344 408.019531 204.5 408.019531 C 92.097656 408.019531 0.980469 316.902344 0.980469 204.5 C 0.980469 92.097656 92.097656 0.980469 204.5 0.980469 C 316.902344 0.980469 408.019531 92.097656 408.019531 204.5 Z "/>
<path style=" stroke:none;fill-rule:nonzero;fill:rgb(48.627451%,32.54902%,12.941176%);fill-opacity:1;" d="M 260.949219 97.945312 L 260.949219 116.820312 L 175.699219 117.332031 L 175.699219 98.5 Z "/>
<path style=" stroke:none;fill-rule:nonzero;fill:rgb(52.156863%,34.901961%,13.72549%);fill-opacity:1;" d="M 175.699219 98.5 L 175.699219 117.332031 L 127.640625 163.984375 L 127.640625 145.109375 Z "/>
<g clip-path="url(#clip1)" clip-rule="nonzero">
<g clip-path="url(#clip2)" clip-rule="nonzero">
<path style=" stroke:none;fill-rule:nonzero;fill:rgb(50.980392%,41.176471%,20.784314%);fill-opacity:1;" d="M 196.105469 165.859375 L 196.105469 184.730469 C 196.105469 174.039062 187.117188 165.390625 176.082031 165.390625 C 170.714844 165.390625 165.859375 167.433594 162.238281 170.757812 L 162.238281 151.882812 C 165.816406 148.5625 170.714844 146.515625 176.082031 146.515625 C 187.160156 146.515625 196.105469 155.164062 196.105469 165.859375 "/>
</g>
</g>
<g clip-path="url(#clip3)" clip-rule="nonzero">
<g clip-path="url(#clip4)" clip-rule="nonzero">
<path style=" stroke:none;fill-rule:nonzero;fill:rgb(52.941176%,42.745098%,21.568627%);fill-opacity:1;" d="M 162.238281 151.882812 L 162.238281 170.757812 C 161 171.90625 159.894531 173.1875 159 174.632812 L 159 155.761719 C 159.894531 154.3125 161 153.035156 162.238281 151.882812 "/>
</g>
</g>
<g clip-path="url(#clip5)" clip-rule="nonzero">
<g clip-path="url(#clip6)" clip-rule="nonzero">
<path style=" stroke:none;fill-rule:nonzero;fill:rgb(54.901961%,44.313725%,22.352941%);fill-opacity:1;" d="M 159 155.761719 L 159 174.632812 C 158.148438 175.996094 157.421875 177.488281 156.910156 179.066406 L 156.910156 160.191406 C 157.421875 158.617188 158.148438 157.125 159 155.761719 "/>
</g>
</g>
<g clip-path="url(#clip7)" clip-rule="nonzero">
<g clip-path="url(#clip8)" clip-rule="nonzero">
<path style=" stroke:none;fill-rule:nonzero;fill:rgb(56.862745%,45.882353%,23.137255%);fill-opacity:1;" d="M 156.910156 160.191406 L 156.910156 179.066406 C 156.355469 180.855469 156.015625 182.773438 156.015625 184.773438 L 156.015625 165.902344 C 156.058594 163.898438 156.355469 161.980469 156.910156 160.191406 "/>
</g>
</g>
<path style=" stroke:none;fill-rule:nonzero;fill:rgb(49.019608%,39.607843%,20%);fill-opacity:1;" d="M 142.382812 166.921875 L 142.382812 185.796875 L 127.640625 163.984375 L 127.640625 145.109375 Z "/>
<path style=" stroke:none;fill-rule:nonzero;fill:rgb(48.627451%,32.54902%,12.941176%);fill-opacity:1;" d="M 304.703125 166.921875 L 304.703125 185.796875 L 260.949219 116.820312 L 260.949219 97.945312 Z "/>
<g clip-path="url(#clip9)" clip-rule="nonzero">
<g clip-path="url(#clip10)" clip-rule="nonzero">
<path style=" stroke:none;fill-rule:nonzero;fill:rgb(56.078431%,37.647059%,14.901961%);fill-opacity:1;" d="M 196.105469 165.859375 L 196.105469 184.730469 C 196.105469 186.734375 195.808594 188.652344 195.210938 190.441406 L 195.210938 171.566406 C 195.808594 169.777344 196.105469 167.859375 196.105469 165.859375 "/>
</g>
</g>
<g clip-path="url(#clip11)" clip-rule="nonzero">
<g clip-path="url(#clip12)" clip-rule="nonzero">
<path style=" stroke:none;fill-rule:nonzero;fill:rgb(54.117647%,36.078431%,14.117647%);fill-opacity:1;" d="M 195.253906 171.566406 L 195.253906 190.441406 C 194.742188 192.015625 194.0625 193.507812 193.167969 194.871094 L 193.167969 175.996094 C 194.019531 174.632812 194.742188 173.144531 195.253906 171.566406 "/>
</g>
</g>
<g clip-path="url(#clip13)" clip-rule="nonzero">
<g clip-path="url(#clip14)" clip-rule="nonzero">
<path style=" stroke:none;fill-rule:nonzero;fill:rgb(52.156863%,34.901961%,13.72549%);fill-opacity:1;" d="M 193.167969 175.996094 L 193.167969 194.871094 C 192.273438 196.277344 191.164062 197.597656 189.929688 198.75 L 189.929688 179.875 C 191.164062 178.722656 192.273438 177.402344 193.167969 175.996094 "/>
</g>
</g>
<g clip-path="url(#clip15)" clip-rule="nonzero">
<g clip-path="url(#clip16)" clip-rule="nonzero">
<path style=" stroke:none;fill-rule:nonzero;fill:rgb(50.196078%,33.72549%,13.333333%);fill-opacity:1;" d="M 189.929688 179.875 L 189.929688 198.75 C 186.351562 202.070312 181.449219 204.117188 176.082031 204.117188 C 165.007812 204.117188 156.058594 195.46875 156.058594 184.773438 L 156.058594 165.902344 C 156.058594 176.59375 165.046875 185.242188 176.082031 185.242188 C 181.449219 185.242188 186.308594 183.199219 189.929688 179.875 "/>
</g>
</g>
<path style=" stroke:none;fill-rule:nonzero;fill:rgb(54.509804%,43.921569%,22.352941%);fill-opacity:1;" d="M 304.703125 166.921875 L 304.703125 185.796875 L 258.054688 255.453125 L 258.054688 236.625 Z "/>
<path style=" stroke:none;fill-rule:nonzero;fill:rgb(54.901961%,36.470588%,14.509804%);fill-opacity:1;" d="M 142.382812 166.921875 L 142.382812 185.796875 L 113.15625 256.09375 L 113.15625 237.21875 Z "/>
<path style=" stroke:none;fill-rule:nonzero;fill:rgb(49.019608%,39.607843%,20%);fill-opacity:1;" d="M 258.054688 236.625 L 258.054688 255.453125 L 174.25 256.859375 L 174.25 238.03125 Z "/>
<path style=" stroke:none;fill-rule:nonzero;fill:rgb(49.019608%,39.607843%,20%);fill-opacity:1;" d="M 174.25 294.140625 L 174.25 313.011719 L 113.15625 256.09375 L 113.15625 237.21875 Z "/>
<path style=" stroke:none;fill-rule:nonzero;fill:rgb(87.843137%,58.823529%,23.137255%);fill-opacity:1;" d="M 204.5 61.351562 C 281.144531 61.351562 343.304688 121.378906 343.304688 195.425781 C 343.304688 269.472656 281.144531 329.5 204.5 329.5 C 127.855469 329.5 65.695312 269.472656 65.695312 195.425781 C 65.695312 121.378906 127.855469 61.351562 204.5 61.351562 Z M 258.054688 236.625 L 304.703125 166.964844 L 260.949219 97.945312 L 175.699219 98.457031 L 127.640625 145.109375 L 142.382812 166.921875 L 113.15625 237.21875 L 174.25 294.140625 L 174.25 238.03125 L 258.054688 236.625 "/>
<path style=" stroke:none;fill-rule:nonzero;fill:rgb(87.843137%,58.823529%,23.137255%);fill-opacity:1;" d="M 176.082031 146.515625 C 187.160156 146.515625 196.105469 155.164062 196.105469 165.859375 C 196.105469 176.550781 187.117188 185.199219 176.082031 185.199219 C 165.007812 185.199219 156.058594 176.550781 156.058594 165.859375 C 156.058594 155.164062 165.007812 146.515625 176.082031 146.515625 Z "/>
<path style=" stroke:none;fill-rule:nonzero;fill:rgb(89.019608%,71.764706%,36.470588%);fill-opacity:1;" d="M 260.949219 97.945312 L 304.664062 166.921875 L 258.054688 236.625 L 174.25 238.03125 L 174.25 294.140625 L 113.15625 237.21875 L 142.382812 166.921875 L 127.640625 145.109375 L 175.742188 98.5 Z M 176.082031 185.242188 C 187.160156 185.242188 196.105469 176.59375 196.105469 165.902344 C 196.105469 155.207031 187.117188 146.558594 176.082031 146.558594 C 165.007812 146.558594 156.058594 155.207031 156.058594 165.902344 C 156.058594 176.550781 165.007812 185.242188 176.082031 185.242188 "/>
<g clip-path="url(#clip17)" clip-rule="nonzero">
<g clip-path="url(#clip18)" clip-rule="nonzero">
<path style=" stroke:none;fill-rule:nonzero;fill:rgb(56.078431%,37.647059%,14.901961%);fill-opacity:1;" d="M 343.304688 195.425781 L 343.304688 214.300781 C 343.304688 228.058594 341.175781 241.308594 337.167969 253.792969 L 337.167969 234.917969 C 341.175781 222.4375 343.304688 209.1875 343.304688 195.425781 "/>
</g>
</g>
<g clip-path="url(#clip19)" clip-rule="nonzero">
<g clip-path="url(#clip20)" clip-rule="nonzero">
<path style=" stroke:none;fill-rule:nonzero;fill:rgb(54.117647%,36.078431%,14.117647%);fill-opacity:1;" d="M 337.167969 234.960938 L 337.167969 253.835938 C 333.71875 264.699219 328.863281 274.96875 322.8125 284.46875 L 322.8125 265.59375 C 328.863281 256.09375 333.71875 245.785156 337.167969 234.960938 "/>
</g>
</g>
<g clip-path="url(#clip21)" clip-rule="nonzero">
<g clip-path="url(#clip22)" clip-rule="nonzero">
<path style=" stroke:none;fill-rule:nonzero;fill:rgb(52.156863%,34.901961%,13.72549%);fill-opacity:1;" d="M 322.8125 265.550781 L 322.8125 284.425781 C 316.550781 294.265625 309.007812 303.300781 300.359375 311.222656 L 300.359375 292.351562 C 309.007812 284.425781 316.550781 275.4375 322.8125 265.550781 "/>
</g>
</g>
<g clip-path="url(#clip23)" clip-rule="nonzero">
<g clip-path="url(#clip24)" clip-rule="nonzero">
<path style=" stroke:none;fill-rule:nonzero;fill:rgb(50.196078%,33.72549%,13.333333%);fill-opacity:1;" d="M 300.402344 292.390625 L 300.402344 311.265625 C 275.480469 334.273438 241.695312 348.417969 204.5 348.417969 C 127.855469 348.417969 65.695312 288.386719 65.695312 214.339844 L 65.695312 195.46875 C 65.695312 269.515625 127.855469 329.542969 204.5 329.542969 C 241.695312 329.5 275.480469 315.398438 300.402344 292.390625 "/>
</g>
</g>
</g>
</svg>
