<?xml version="1.0" encoding="utf-8"?>
<!-- Generator: Adobe Illustrator 16.0.0, SVG Export Plug-In . SVG Version: 6.00 Build 0)  -->
<!DOCTYPE svg PUBLIC "-//W3C//DTD SVG 1.1//EN" "http://www.w3.org/Graphics/SVG/1.1/DTD/svg11.dtd">
<svg version="1.1" id="Layer_2" xmlns="http://www.w3.org/2000/svg" xmlns:xlink="http://www.w3.org/1999/xlink" x="0px" y="0px"
	 width="108px" height="92px" viewBox="968.743 704.743 108 92" enable-background="new 968.743 704.743 108 92"
	 xml:space="preserve">
<rect x="968.743" y="704.743" display="none" fill="#00D7FF" width="108" height="92"/>
<polygon fill="#B5353D" points="995.743,796.743 968.743,750.744 995.743,704.743 1049.743,704.743 1076.743,750.744 
	1049.743,796.743 "/>
<g>
	<path fill="none" stroke="#000000" stroke-width="6" stroke-linejoin="round" stroke-miterlimit="10" d="M1007.551,717.543
		c0,0,5.128-4.474,15.508-4.474c10.381,0,15.509,4.474,15.509,4.474s0,1.76,0,11.009s-15.509,22.916-15.509,22.916
		s-15.508-12.151-15.508-22.916C1007.551,717.788,1007.551,717.543,1007.551,717.543z"/>
	<path stroke="#000000" stroke-width="6" stroke-linejoin="round" stroke-miterlimit="10" d="M1007.551,785.393
		c0,0,5.128,4.476,15.508,4.476c10.381,0,15.509-4.476,15.509-4.476s0-1.759,0-11.009c0-9.249-15.509-22.916-15.509-22.916
		s-15.508,12.151-15.508,22.916S1007.551,785.393,1007.551,785.393z"/>
	<path fill="#B5353D" d="M1029.081,775.093c0,4.659-2.774,8.438-6.196,8.438c-3.425,0-6.199-3.779-6.199-8.438
		c0-4.536,6.199-13.902,6.199-17.288C1022.885,761.093,1029.081,770.432,1029.081,775.093z"/>
	<path d="M1029.081,727.844c0-4.66-2.774-8.438-6.196-8.438c-3.425,0-6.199,3.777-6.199,8.438c0,4.536,6.199,13.902,6.199,17.288
		C1022.885,741.844,1029.081,732.505,1029.081,727.844z"/>
</g>
</svg>
