<?xml version="1.0" encoding="utf-8"?>
<!-- Generator: Adobe Illustrator 16.0.0, SVG Export Plug-In . SVG Version: 6.00 Build 0)  -->
<!DOCTYPE svg PUBLIC "-//W3C//DTD SVG 1.1//EN" "http://www.w3.org/Graphics/SVG/1.1/DTD/svg11.dtd">
<svg version="1.1" id="Layer_2" xmlns="http://www.w3.org/2000/svg" xmlns:xlink="http://www.w3.org/1999/xlink" x="0px" y="0px"
	 width="108px" height="92px" viewBox="969.75 721.75 108 92" enable-background="new 969.75 721.75 108 92" xml:space="preserve">
<rect x="969.75" y="721.75" display="none" fill="#00D7FF" width="108" height="92"/>
<polygon fill="#FFA812" points="996.75,813.75 969.75,767.75 996.75,721.75 1050.75,721.75 1077.75,767.75 1050.75,813.75 "/>
<path d="M1049.807,741.384v-11.939h-9.846v5.948h-5.754v-5.948h-7.266v5.948h-5.752v-5.948h-7.265v5.948h-5.753v-5.948h-9.847
	v11.939l7.186,7.068c0,0-7.186,23.072-7.186,58.186h18.366v-28.295c0,0,2.654-3.918,7.375-3.918c4.72,0,7.375,3.918,7.375,3.918
	v28.295h18.365c0-35.114-7.187-58.186-7.187-58.186L1049.807,741.384z"/>
</svg>
