<?xml version="1.0" encoding="UTF-8"?>
<svg xmlns="http://www.w3.org/2000/svg" xmlns:xlink="http://www.w3.org/1999/xlink" width="409pt" height="409pt" viewBox="0 0 409 409" version="1.1">
<g id="surface1">
<path style=" stroke:none;fill-rule:nonzero;fill:rgb(34.117647%,12.54902%,16.862745%);fill-opacity:1;" d="M 409.382812 204.542969 C 409.382812 317.648438 317.691406 409.339844 204.585938 409.339844 C 91.476562 409.339844 -0.214844 317.648438 -0.214844 204.542969 C -0.214844 91.4375 91.476562 -0.253906 204.585938 -0.253906 C 317.691406 -0.253906 409.382812 91.4375 409.382812 204.542969 Z "/>
<path style=" stroke:none;fill-rule:nonzero;fill:rgb(65.490196%,18.823529%,18.039216%);fill-opacity:1;" d="M 310.160156 274.925781 C 310.160156 333.503906 262.65625 380.964844 204.117188 380.964844 C 145.578125 380.964844 98.074219 333.503906 98.074219 274.925781 C 98.074219 216.34375 204.117188 28.117188 204.117188 28.117188 C 204.117188 28.117188 310.160156 216.34375 310.160156 274.925781 Z "/>
<path style=" stroke:none;fill-rule:nonzero;fill:rgb(84.705882%,40.392157%,29.411765%);fill-opacity:1;" d="M 141.742188 334.484375 C 157.210938 351.355469 179.660156 361.964844 204.585938 361.964844 C 251.28125 361.964844 289.15625 324.8125 289.15625 278.972656 C 289.15625 257.585938 280.890625 238.070312 267.339844 223.375 Z "/>
</g>
</svg>
