<?xml version="1.0" encoding="utf-8"?>
<!-- Generator: Adobe Illustrator 16.0.0, SVG Export Plug-In . SVG Version: 6.00 Build 0)  -->
<!DOCTYPE svg PUBLIC "-//W3C//DTD SVG 1.1//EN" "http://www.w3.org/Graphics/SVG/1.1/DTD/svg11.dtd">
<svg version="1.1" id="Layer_2" xmlns="http://www.w3.org/2000/svg" xmlns:xlink="http://www.w3.org/1999/xlink" x="0px" y="0px"
	 width="108px" height="92px" viewBox="968.743 704.743 108 92" enable-background="new 968.743 704.743 108 92"
	 xml:space="preserve">
<rect x="968.743" y="704.743" display="none" fill="#00D7FF" width="108" height="92"/>
<polygon fill="#FFFFFF" points="995.743,796.743 968.743,750.743 995.743,704.743 1049.743,704.743 1076.743,750.743 
	1049.743,796.743 "/>
<path stroke="#FFFFFF" stroke-miterlimit="10" d="M1062.312,733.689c-0.511,0.274-1.072,0.558-1.673,0.834
	c1.065-1.158-0.63-3.341-2.545-2.575c-0.18,0.071-0.356,0.145-0.536,0.217c1.065-1.357-0.611-3.607-2.429-2.54
	c-1.916,1.125-4.123,2.364-6.451,3.316c0.802-0.642,1.536-1.333,2.143-2.096c1.185-1.487-0.812-2.921-2.347-2.389
	c0.172-0.214,0.33-0.433,0.473-0.659c1.053-1.666-1.185-3.185-2.612-2.359c0.225-0.403,0.437-0.815,0.614-1.248
	c0.867-2.101-2.758-3-3.613-0.926c-0.395,0.953-1.027,1.81-1.776,2.594c0.015-0.031,0.033-0.061,0.048-0.091
	c0.938-2.041-2.291-3.817-3.235-1.758c-0.38,0.824-0.951,1.6-1.604,2.338c-0.162-0.494-0.509-0.918-0.976-1.144
	c1.029-1.419,1.798-2.954,2.101-4.642c0.237-1.33-1.262-2.958-2.753-1.968c-1.051,0.7-1.955,1.511-2.799,2.37
	c0.242-0.568,0.484-1.138,0.71-1.709c0.506-1.281-0.725-2.176-1.914-2.138c-0.04-0.708-0.124-1.417-0.271-2.125
	c-0.105-0.5-0.391-0.838-0.757-1.036c-0.902-1.74-4.111-0.814-3.482,1.236c0.221,0.719,0.332,1.447,0.375,2.182
	c-0.023,0.15-0.056,0.299-0.084,0.448c-0.355-1.252-0.906-2.442-1.707-3.537c-0.462-0.633-1.146-0.837-1.794-0.767
	c-0.647-0.07-1.332,0.134-1.794,0.767c-0.8,1.095-1.35,2.284-1.707,3.537c-0.028-0.149-0.061-0.299-0.084-0.448
	c0.043-0.734,0.155-1.463,0.375-2.182c0.63-2.05-2.579-2.977-3.48-1.236c-0.367,0.198-0.652,0.537-0.757,1.036
	c-0.147,0.709-0.231,1.417-0.271,2.125c-1.19-0.039-2.421,0.856-1.916,2.138c0.226,0.571,0.468,1.141,0.711,1.709
	c-0.845-0.858-1.748-1.67-2.799-2.37c-1.491-0.99-2.991,0.638-2.753,1.968c0.302,1.688,1.07,3.222,2.1,4.642
	c-0.467,0.226-0.812,0.648-0.977,1.144c-0.653-0.738-1.224-1.514-1.603-2.338c-0.948-2.06-4.175-0.283-3.237,1.758
	c0.015,0.03,0.034,0.06,0.049,0.091c-0.75-0.785-1.385-1.642-1.777-2.594c-0.854-2.074-4.48-1.175-3.613,0.926
	c0.178,0.433,0.389,0.845,0.614,1.248c-1.429-0.825-3.665,0.694-2.612,2.359c0.143,0.227,0.301,0.444,0.471,0.659
	c-1.535-0.533-3.53,0.901-2.347,2.389c0.606,0.763,1.341,1.453,2.143,2.096c-2.327-0.952-4.534-2.191-6.449-3.316
	c-1.818-1.068-3.496,1.183-2.431,2.54c-0.179-0.073-0.356-0.146-0.537-0.217c-1.913-0.766-3.611,1.417-2.545,2.575
	c-0.599-0.276-1.161-0.559-1.672-0.834c-2.092-1.134-3.978,1.877-1.891,3.007c1.966,1.063,4.446,2.118,7.039,2.767
	c-0.707,0.099-1.438,0.129-2.188,0.083c-2.414-0.146-2.398,3.336,0,3.482c0.343,0.021,0.68,0.024,1.014,0.021
	c-0.044,0.902,0.549,1.795,1.797,1.721c0.996-0.062,2.023-0.218,3.023-0.475c-0.058,0.273-0.062,0.549,0.011,0.792
	c0.298,1.005,1.294,1.343,2.305,1.215c0.676-0.084,1.297-0.26,1.863-0.5c0.09,0.759,0.588,1.265,1.357,1.542
	c1.489,0.533,3.944-1.391,5.032-2.1c0.171-0.111,0.348-0.227,0.525-0.341c-0.475,1.139-1.301,2.104-2.726,2.716
	c-2.191,0.941-0.288,3.941,1.892,3.008c1.558-0.668,2.681-1.667,3.476-2.859c-0.116,0.355-0.252,0.709-0.417,1.058
	c-0.965,2.035,2.266,3.808,3.237,1.756c0.742-1.563,1.121-3.123,1.313-4.707c0.499,1.244,1.078,2.466,1.695,3.691
	c1.024,2.033,4.256,0.265,3.237-1.757c-0.27-0.532-0.538-1.069-0.798-1.614c0.086,0.014,0.171,0.021,0.257,0.033
	c0.448,0.163,0.91,0.294,1.383,0.393c0.022,0.016,0.046,0.033,0.069,0.049c0.115,0.079,0.234,0.161,0.354,0.243
	c0.109,7.148,0.031,19.409-3.676,26.904c-3.658,7.401-10.707,3.338-13.447,11.753c2.117-1.451,3.245-2.485,7.335-3.201
	s7.685-1.869,9.812-3.619c-0.338,2.903-3.451,7.11-7.188,6.82c1.494,1.597,5.729,2.901,9.338-3.201
	c-0.373,4.507,2.366,7.119,3.86,8.135c1.494-1.016,4.233-3.628,3.858-8.135c3.611,6.104,7.845,4.798,9.339,3.201
	c-3.735,0.29-6.849-3.917-7.188-6.82c2.129,1.75,5.724,2.903,9.812,3.619c4.091,0.715,5.219,1.75,7.337,3.201
	c-2.74-8.415-9.789-4.352-13.448-11.753c-3.706-7.495-3.784-19.756-3.675-26.904c0.119-0.082,0.238-0.164,0.354-0.243
	c0.023-0.016,0.046-0.034,0.07-0.049c0.472-0.098,0.934-0.229,1.382-0.393c0.086-0.013,0.172-0.02,0.258-0.033
	c-0.26,0.544-0.53,1.082-0.799,1.614c-1.018,2.021,2.213,3.791,3.237,1.757c0.618-1.227,1.197-2.448,1.696-3.691
	c0.191,1.584,0.571,3.144,1.312,4.707c0.974,2.052,4.202,0.279,3.237-1.756c-0.166-0.349-0.301-0.702-0.418-1.058
	c0.795,1.192,1.918,2.19,3.476,2.859c2.179,0.935,4.084-2.066,1.892-3.008c-1.424-0.611-2.25-1.577-2.725-2.716
	c0.176,0.114,0.354,0.229,0.525,0.341c1.087,0.71,3.541,2.633,5.03,2.1c0.771-0.278,1.269-0.783,1.358-1.542
	c0.565,0.24,1.188,0.416,1.862,0.5c1.012,0.129,2.007-0.21,2.305-1.215c0.073-0.244,0.068-0.52,0.013-0.792
	c0.999,0.257,2.026,0.414,3.023,0.475c1.247,0.075,1.84-0.817,1.796-1.721c0.334,0.003,0.673,0,1.016-0.021
	c2.396-0.146,2.414-3.629,0-3.482c-0.752,0.046-1.482,0.016-2.189-0.083c2.593-0.648,5.073-1.703,7.039-2.767
	C1066.291,735.566,1064.406,732.556,1062.312,733.689z"/>
</svg>
