<?xml version="1.0" encoding="utf-8"?>
<!-- Generator: Adobe Illustrator 17.1.0, SVG Export Plug-In . SVG Version: 6.00 Build 0)  -->
<!DOCTYPE svg PUBLIC "-//W3C//DTD SVG 1.1//EN" "http://www.w3.org/Graphics/SVG/1.1/DTD/svg11.dtd">
<svg version="1.1" xmlns="http://www.w3.org/2000/svg" xmlns:xlink="http://www.w3.org/1999/xlink" x="0px" y="0px"
	 viewBox="0 0 512 512" enable-background="new 0 0 512 512" xml:space="preserve">
<g id="Color">
	<g>
		<circle fill="#FACA66" cx="256" cy="256" r="256"/>
		<g>
			<g>
				<g enable-background="new    ">
					<g>
						<polygon fill="#7A4800" points="335.6,105.7 335.6,132.3 215.4,133.1 215.4,106.5 						"/>
					</g>
					<g>
						<polygon fill="#834D00" points="215.4,106.5 215.4,133.1 147.6,198.8 147.6,172.2 						"/>
					</g>
					<g enable-background="new    ">
						<defs>
							<path id="SVGID_1_" enable-background="new    " d="M244.2,201.5v26.6c0-15.1-12.7-27.3-28.3-27.3
								c-15.6,0-28.3,12.2-28.3,27.3v-26.6c0-15.1,12.6-27.3,28.3-27.3C231.5,174.2,244.2,186.4,244.2,201.5z"/>
						</defs>
						<clipPath id="SVGID_2_">
							<use xlink:href="#SVGID_1_"  overflow="visible"/>
						</clipPath>
						<g clip-path="url(#SVGID_2_)" enable-background="new    ">
							<path fill="#826935" d="M244.2,201.5v26.6c0-15.1-12.7-27.3-28.3-27.3c-7.6,0-14.4,2.9-19.5,7.6v-26.6
								c5.1-4.7,11.9-7.6,19.5-7.6C231.5,174.2,244.2,186.4,244.2,201.5"/>
							<path fill="#876D37" d="M196.4,181.8v26.6c-1.8,1.6-3.3,3.5-4.6,5.5v-26.6C193.1,185.2,194.7,183.4,196.4,181.8"/>
							<path fill="#8C7139" d="M191.9,187.2v26.6c-1.2,1.9-2.2,4-2.9,6.2v-26.6C189.6,191.2,190.6,189.2,191.9,187.2"/>
							<path fill="#91753B" d="M188.9,193.4V220c-0.8,2.5-1.2,5.2-1.2,8v-26.6C187.7,198.7,188.1,196,188.9,193.4"/>
						</g>
					</g>
					<g>
						<polygon fill="#7D6533" points="168.3,203 168.3,229.6 147.6,198.8 147.6,172.2 						"/>
					</g>
					<g>
						<polygon fill="#7A4800" points="397.2,203 397.2,229.6 335.6,132.3 335.6,105.7 						"/>
					</g>
					<g enable-background="new    ">
						<defs>
							<path id="SVGID_3_" enable-background="new    " d="M215.9,255.4c-15.6,0-28.3-12.2-28.3-27.3v-26.6
								c0,15.1,12.6,27.3,28.3,27.3c15.6,0,28.3-12.2,28.3-27.3v26.6C244.2,243.1,231.5,255.4,215.9,255.4z"/>
						</defs>
						<clipPath id="SVGID_4_">
							<use xlink:href="#SVGID_3_"  overflow="visible"/>
						</clipPath>
						<g clip-path="url(#SVGID_4_)" enable-background="new    ">
							<path fill="#8D5300" d="M244.2,201.5v26.6c0,2.8-0.4,5.5-1.2,8v-26.6C243.8,207,244.2,204.3,244.2,201.5"/>
							<path fill="#885000" d="M242.9,209.5v26.6c-0.7,2.2-1.7,4.3-2.9,6.2v-26.6C241.3,213.8,242.2,211.7,242.9,209.5"/>
							<path fill="#834D00" d="M240,215.8v26.6c-1.3,2-2.8,3.8-4.6,5.5v-26.6C237.2,219.6,238.7,217.8,240,215.8"/>
							<path fill="#7E4A00" d="M235.5,221.2v26.6c-5.1,4.7-11.9,7.6-19.5,7.6c-15.6,0-28.3-12.2-28.3-27.3v-26.6
								c0,15.1,12.6,27.3,28.3,27.3C223.5,228.8,230.4,225.9,235.5,221.2"/>
						</g>
					</g>
					<g>
						<path fill="#DD8200" d="M215.9,174.2c15.6,0,28.3,12.2,28.3,27.3c0,15.1-12.7,27.3-28.3,27.3c-15.6,0-28.3-12.2-28.3-27.3
							C187.7,186.4,200.3,174.2,215.9,174.2z"/>
					</g>
					<g>
						<polygon fill="#8B7039" points="397.2,203 397.2,229.6 331.3,327.8 331.3,301.2 						"/>
					</g>
					<g>
						<polygon fill="#8A5100" points="168.3,203 168.3,229.6 127,328.7 127,302.1 						"/>
					</g>
					<g>
						<polygon fill="#7D6533" points="331.3,301.2 331.3,327.8 213,329.8 213,303.2 						"/>
					</g>
					<g>
						<polygon fill="#7D6533" points="213,382.3 213,408.9 127,328.7 127,302.1 						"/>
					</g>
					<g>
						<path fill="#DD8200" d="M256,54.1c108.1,0,195.7,84.6,195.7,189c0,104.4-87.6,189-195.7,189c-108.1,0-195.7-84.6-195.7-189
							C60.3,138.8,147.9,54.1,256,54.1z M331.3,301.2l65.9-98.2l-61.6-97.2l-120.2,0.7l-67.8,65.7l20.7,30.8L127,302.1l86,80.2
							v-79.1L331.3,301.2"/>
					</g>
					<g>
						<path fill="#E3B75D" d="M335.6,105.7l61.6,97.2l-65.9,98.2l-118.3,2v79.1l-86-80.2l41.3-99.1l-20.7-30.8l67.8-65.7
							L335.6,105.7z M215.9,228.8c15.6,0,28.3-12.2,28.3-27.3c0-15.1-12.7-27.3-28.3-27.3c-15.6,0-28.3,12.2-28.3,27.3
							C187.7,216.6,200.3,228.8,215.9,228.8"/>
					</g>
					<g enable-background="new    ">
						<defs>
							<path id="SVGID_5_" enable-background="new    " d="M451.7,243.2v26.6c0,104.4-87.6,189-195.7,189
								c-108.1,0-195.7-84.6-195.7-189l0-26.6c0,104.4,87.6,189,195.7,189C364.1,432.2,451.7,347.6,451.7,243.2z"/>
						</defs>
						<clipPath id="SVGID_6_">
							<use xlink:href="#SVGID_5_"  overflow="visible"/>
						</clipPath>
						<g clip-path="url(#SVGID_6_)" enable-background="new    ">
							<path fill="#8D5300" d="M451.7,243.2v26.6c0,19.4-3,38.1-8.6,55.7v-26.6C448.7,281.3,451.7,262.6,451.7,243.2"/>
							<path fill="#885000" d="M443.1,298.9v26.6c-4.9,15.3-11.7,29.8-20.2,43.2V342C431.3,328.7,438.2,314.2,443.1,298.9"/>
							<path fill="#834D00" d="M422.8,342v26.6c-8.8,13.9-19.5,26.6-31.6,37.8v-26.6C403.3,368.6,414,355.9,422.8,342"/>
							<path fill="#7E4A00" d="M391.2,379.8v26.6c-35.1,32.4-82.8,52.4-135.2,52.4c-108.1,0-195.7-84.6-195.7-189v-26.6
								c0,104.4,87.6,189,195.7,189C308.4,432.2,356.1,412.3,391.2,379.8"/>
						</g>
					</g>
				</g>
			</g>
		</g>
	</g>
</g>
<g id="BW" display="none">
	<g display="inline">
		<circle cx="209.1" cy="177.7" r="32.9"/>
		<path d="M255.8,455.9c125.9,0,228-102.1,228-228c0-125.9-102.1-228-228-228c-125.9,0-228,102.1-228,228
			C27.9,353.8,129.9,455.9,255.8,455.9z M129.6,142.4l79-79.3l140-0.9l71.8,117.3L344.7,298L208,300.3v95.4L106.7,299l47.5-119.5
			L129.6,142.4z"/>
		<path d="M490.3,270.4c-8.7,116.8-110.3,209-234.3,209c-124,0-225.6-92.2-234.3-209c-0.4,5.4-0.6,10.8-0.6,16.3
			C21.1,411.1,126.3,512,256,512c129.7,0,234.9-100.9,234.9-225.3C490.9,281.2,490.7,275.8,490.3,270.4z"/>
	</g>
</g>
</svg>
