<?xml version="1.0" encoding="utf-8"?>
<!-- Generator: Adobe Illustrator 16.0.0, SVG Export Plug-In . SVG Version: 6.00 Build 0)  -->
<!DOCTYPE svg PUBLIC "-//W3C//DTD SVG 1.1//EN" "http://www.w3.org/Graphics/SVG/1.1/DTD/svg11.dtd">
<svg version="1.1" id="Layer_2" xmlns="http://www.w3.org/2000/svg" xmlns:xlink="http://www.w3.org/1999/xlink" x="0px" y="0px"
	 width="108px" height="92px" viewBox="968.743 704.743 108 92" enable-background="new 968.743 704.743 108 92"
	 xml:space="preserve">
<rect x="968.743" y="704.743" display="none" fill="#FFFFFF" width="108" height="92"/>
<polygon display="none" fill="#FFFFFF" points="995.743,796.743 968.743,750.744 995.743,704.743 1049.743,704.743 
	1076.743,750.744 1049.743,796.743 "/>
<g fill="#FFFFFF">
	<path d="M1041.568,728.552v-11.009c0-0.867-0.375-1.691-1.028-2.261c-0.244-0.213-6.106-5.213-17.481-5.213
		c-11.374,0-17.236,5-17.48,5.213c-0.652,0.57-1.027,1.395-1.027,2.261v11.009c0,5.219,2.862,11.101,8.507,17.482
		c1.952,2.207,3.891,4.076,5.39,5.434c-1.499,1.357-3.438,3.227-5.39,5.434c-5.645,6.382-8.507,12.264-8.507,17.482v11.009
		c0,0.866,0.374,1.69,1.027,2.26c0.244,0.213,6.106,5.217,17.48,5.217c11.375,0,17.238-5.003,17.482-5.217
		c0.652-0.569,1.027-1.394,1.027-2.26v-11.009c0-8.219-9.428-18.378-14.107-22.916
		C1032.141,746.93,1041.568,736.771,1041.568,728.552z M1010.551,728.552v-9.445c1.799-1.081,5.959-3.037,12.508-3.037
		c6.598,0,10.723,1.944,12.51,3.028v9.454c0,5.126-7.096,13.641-12.604,18.924C1018.283,743.338,1010.551,735.125,1010.551,728.552z
		 M1029.081,775.093c0,4.659-2.774,8.438-6.196,8.438c-3.425,0-6.199-3.779-6.199-8.438c0-4.536,6.199-13.901,6.199-17.288
		C1022.885,761.093,1029.081,770.432,1029.081,775.093z"/>
	<path d="M1029.081,727.844c0-4.66-2.774-8.438-6.196-8.438c-3.425,0-6.199,3.776-6.199,8.438c0,4.536,6.199,13.902,6.199,17.288
		C1022.885,741.844,1029.081,732.505,1029.081,727.844z"/>
</g>
</svg>
