<?xml version="1.0" encoding="utf-8"?>
<!-- Generator: Adobe Illustrator 17.1.0, SVG Export Plug-In . SVG Version: 6.00 Build 0)  -->
<!DOCTYPE svg PUBLIC "-//W3C//DTD SVG 1.1//EN" "http://www.w3.org/Graphics/SVG/1.1/DTD/svg11.dtd">
<svg version="1.1" xmlns="http://www.w3.org/2000/svg" xmlns:xlink="http://www.w3.org/1999/xlink" x="0px" y="0px"
	 viewBox="0 0 512 512" enable-background="new 0 0 512 512" xml:space="preserve">
<g id="Color">
	<g>
		<circle fill="#02A676" cx="256" cy="256" r="256"/>
		<path fill="#005A5B" d="M478.7,305.4c-154.7-48.2-303-47.2-445.5,0c27.1-34,25.4-66.9,0-98.7c148.9,43.9,297.3,42.8,445.5,0
			C458.5,239.9,455.1,272.8,478.7,305.4z"/>
		<path fill="#005A5B" d="M207.8,476c47.6-152.8,46.6-299.3,0-440c33.6,26.7,66,25.1,97.5,0c-43.3,147-42.3,293.7,0,440
			C272.5,456,240,452.7,207.8,476z"/>
		<circle fill="#007369" cx="257.6" cy="256.8" r="54.6"/>
		<circle fill="#008C72" cx="257.6" cy="256.8" r="37.5"/>
	</g>
</g>
<g id="BW" display="none">
	<g display="inline">
		<path d="M200,0c21.3,64.4,34.4,129.8,39.1,196.3c5.9-1.8,12.3-2.8,18.8-2.8c7.1,0,13.8,1.2,20.2,3.3c4.3-65.5,16-131.1,35.4-196.7
			C276.8,29.2,239.1,31.1,200,0z"/>
		<path d="M-3.2,198.6c29.5,37.1,31.5,75.3,0,114.9c65.5-21.7,132.1-34.9,199.8-39.6c-1.5-5.4-2.3-11-2.3-16.9
			c0-7.9,1.4-15.4,4.1-22.4C131.3,230.3,64.1,218.4-3.2,198.6z"/>
		<path d="M515.2,198.6c-65.9,19.1-131.9,31-198,35.6c2.7,7.1,4.2,14.7,4.2,22.8c0,6.1-0.9,12.1-2.5,17.7
			c64.4,5.3,129.9,18.1,196.3,38.8C487.7,275.6,491.6,237.2,515.2,198.6z"/>
		<path d="M257.9,320.4c-6.8,0-13.4-1.1-19.5-3.1c-5.2,63.9-17.9,128.8-38.4,194.6c37.4-27.1,75.3-23.3,113.5,0
			c-18.8-64.9-30.5-129.9-35.2-194.9C271.9,319.2,265,320.4,257.9,320.4z"/>
		<circle cx="257.9" cy="256.9" r="43.7"/>
	</g>
</g>
</svg>
