<?xml version="1.0" encoding="utf-8"?>
<!-- Generator: Adobe Illustrator 16.0.0, SVG Export Plug-In . SVG Version: 6.00 Build 0)  -->
<!DOCTYPE svg PUBLIC "-//W3C//DTD SVG 1.1//EN" "http://www.w3.org/Graphics/SVG/1.1/DTD/svg11.dtd">
<svg version="1.1" id="Layer_2" xmlns="http://www.w3.org/2000/svg" xmlns:xlink="http://www.w3.org/1999/xlink" x="0px" y="0px"
	 width="108px" height="92px" viewBox="952.75 731.75 108 92" enable-background="new 952.75 731.75 108 92" xml:space="preserve">
<rect x="952.75" y="731.75" display="none" fill="#FFFFFF" width="108" height="92"/>
<polygon display="none" fill="#FFFFFF" points="979.75,823.75 952.75,777.75 979.75,731.75 1033.75,731.75 1060.75,777.75 
	1033.75,823.75 "/>
<g fill="#FFFFFF">
	<path d="M1007.312,797.751c-1.299,0.344-2.752,0.979-4.297,1.757c0.704,6.157,2.007,11.95,4.149,17.083
		c0,0,0.011-0.021,0.026-0.055c0.016,0.031,0.025,0.055,0.025,0.055v-0.109c2.349-4.854,3.735-10.646,4.448-16.946
		C1010.1,798.744,1008.627,798.098,1007.312,797.751z"/>
	<path d="M1007.32,787.902c1.599-0.152,3.346-0.455,4.954-0.895c-0.087-16.431-3.103-34.289-5.058-47.564
		c0,0-0.011,0.063-0.025,0.158c-0.017-0.095-0.026-0.158-0.026-0.158c-2.066,14.035-4.845,31.354-4.821,47.557
		C1003.959,787.442,1005.714,787.747,1007.32,787.902z"/>
	<path d="M1047.82,772.874c1.04-5.408,1.553-9.286,1.553-9.286s-17.204,8.592-31.352,8.593c-1.371,0-2.348,3.977-2.348,3.977
		s5.608,6.926,2.739,9.747c-2.376,2.337-7.657,3.438-11.105,3.75c-3.447-0.312-8.729-1.413-11.104-3.75
		c-2.868-2.821,2.739-9.747,2.739-9.747s-0.979-3.977-2.35-3.977c-14.145,0-31.35-8.593-31.35-8.593s0.512,3.878,1.552,9.286
		c8.052,2.648,14.959,3.333,17.451,3.375c0.113,0.494,0.23,0.996,0.349,1.503c-0.15,0.006-0.31,0.01-0.483,0.01
		c-3.204,0-9.933-0.958-16.979-3.169c0.453,2.239,0.986,4.677,1.602,7.173c5.636,0.928,10.498,1.185,13.85,1.185
		c1.372,0,2.491-0.043,3.305-0.103c0.137,0.502,0.276,1.007,0.42,1.513c-1.097,0.11-2.451,0.142-3.641,0.142
		c-0.977,0-1.84-0.02-2.352-0.036c-2.754-0.086-6.625-0.353-11.17-1.07c0.604,2.338,1.281,4.694,2.03,6.964
		c1.38,0.051,2.704,0.071,3.96,0.071c5.977,0,10.467-0.512,12.762-0.913c0.166,0.494,0.338,0.986,0.511,1.472
		c-2.077,0.405-4.976,0.644-6.147,0.729c-1.896,0.141-4.308,0.251-7.135,0.251c-1.079,0-2.224-0.021-3.419-0.058
		c0.845,2.398,1.775,4.661,2.791,6.64c7.856-0.58,13.485-1.774,15.938-2.478c0.22,0.48,0.439,0.953,0.668,1.411
		c-2.178,0.688-5.598,1.278-6.926,1.498c-2.273,0.367-5.272,0.769-8.871,1.052c2.105,3.625,4.549,6.002,7.34,6.002
		c8.384,0,17.903-8.568,24.658-10.074c6.754,1.505,16.274,10.074,24.658,10.074c2.789,0,5.235-2.377,7.339-6.002
		c-3.599-0.283-6.598-0.684-8.874-1.052c-1.326-0.22-4.744-0.811-6.923-1.498c0.228-0.458,0.449-0.931,0.667-1.411
		c2.455,0.705,8.084,1.9,15.939,2.478c1.016-1.98,1.943-4.243,2.791-6.64c-1.193,0.037-2.339,0.058-3.418,0.058
		c-2.828,0-5.24-0.11-7.137-0.251c-1.172-0.084-4.068-0.324-6.146-0.729c0.175-0.487,0.344-0.978,0.51-1.472
		c2.297,0.401,6.787,0.913,12.764,0.913c1.256,0,2.576-0.021,3.961-0.071c0.749-2.27,1.425-4.627,2.03-6.964
		c-4.546,0.717-8.417,0.985-11.171,1.07c-0.512,0.016-1.375,0.036-2.352,0.036c-1.191,0-2.544-0.033-3.643-0.142
		c0.146-0.507,0.283-1.011,0.42-1.513c0.816,0.06,1.936,0.103,3.308,0.103c3.352,0,8.214-0.257,13.851-1.185
		c0.617-2.496,1.148-4.934,1.602-7.173c-7.047,2.211-13.777,3.169-16.979,3.169c-0.173,0-0.333-0.004-0.483-0.01
		c0.12-0.507,0.238-1.009,0.35-1.503C1032.861,776.207,1039.768,775.522,1047.82,772.874z"/>
</g>
</svg>
