<?xml version="1.0" encoding="utf-8"?>
<!-- Generator: Adobe Illustrator 16.0.0, SVG Export Plug-In . SVG Version: 6.00 Build 0)  -->
<!DOCTYPE svg PUBLIC "-//W3C//DTD SVG 1.1//EN" "http://www.w3.org/Graphics/SVG/1.1/DTD/svg11.dtd">
<svg version="1.1" id="Layer_2" xmlns="http://www.w3.org/2000/svg" xmlns:xlink="http://www.w3.org/1999/xlink" x="0px" y="0px"
	 width="108px" height="92px" viewBox="969.75 704.743 108 92" enable-background="new 969.75 704.743 108 92" xml:space="preserve"
	>
<rect x="969.75" y="704.743" display="none" fill="#FFFFFF" width="108" height="92"/>
<polygon display="none" fill="#FFFFFF" points="996.75,796.743 969.75,750.744 996.75,704.743 1050.75,704.743 1077.75,750.744 
	1050.75,796.743 "/>
<g fill="#FFFFFF">
	<g>
		<path d="M1016.65,782.367c1.789-12.299,2.695-22.468,2.695-38.778c0-15.061-2.19-27.811-3.312-33.342
			c-1.318,0.367-2.37,0.848-2.978,1.446c1.584,13.057,3.527,52.391-0.841,69.414C1012.218,781.106,1013.556,781.832,1016.65,782.367
			z"/>
		<path d="M1034.301,711.693c-2.261-2.226-10.606-2.852-16.299-1.881c1.137,5.604,3.361,18.524,3.361,33.775
			c0,16.43-0.915,26.671-2.717,39.062c1.473,0.166,3.223,0.274,5.274,0.274c8.362,0,11.22-1.816,11.22-1.816
			C1030.771,764.083,1033.293,720.288,1034.301,711.693z"/>
	</g>
	<path d="M1056.895,742.642c-0.256-0.644-0.569-1.264-0.932-1.855c-0.18-0.293-0.369-0.58-0.568-0.86
		c0.022-0.385,0.035-0.771,0.022-1.154c-0.042-1.395-0.37-2.825-1.144-4.009c-0.634-0.963-1.521-1.688-2.649-2.001
		c-1.396-0.354-2.851-0.342-4.28-0.428c-1.31-0.08-2.646-0.214-3.887-0.666c-0.581-0.211-1.129-0.496-1.619-0.871
		c-0.551-0.422-0.854-1.148-1.133-1.766c-1.232-2.726-1.673-5.853-1.656-8.813c-0.054,0.199-0.088,0.402-0.135,0.604
		c0.005-0.229,0.008-0.354,0.008-0.354c-1.146,5.77-2.126,11.705-2.139,17.594c-0.009,3.604,0.417,7.271,1.878,10.607
		c1.441,3.3,3.756,5.997,6.532,8.295c0.352,0.291,0.716,0.568,1.072,0.851c0.146,0.11,0.279,0.226,0.408,0.354
		c0.146,0.15,0.271,0.322,0.379,0.5c-0.073,0.274-0.146,0.547-0.221,0.821c-0.479,1.791-0.891,3.597-1.256,5.412
		c-0.706,3.483-1.184,6.989-1.546,10.522c-0.173,1.658-0.208,3.328-0.374,4.986c-0.065,0.661-0.121,1.324-0.138,1.988
		c-0.086,0.358-0.396,0.396-0.729,0.533c-0.489,0.2-0.982,0.392-1.48,0.568c-3.615,1.302-7.434,2.104-11.249,2.575
		c-3.198,0.396-6.333,0.521-9.546,0.316c-3.857-0.247-7.699-0.92-11.425-1.929c-1.774-0.479-3.536-1.073-5.215-1.818
		c-0.146-0.579-0.105-1.218-0.157-1.812c-0.073-0.841-0.125-1.684-0.186-2.526c-0.251-3.479-0.631-6.938-1.212-10.385
		c-0.31-1.816-0.664-3.627-1.077-5.426c-0.2-0.871-0.404-1.738-0.635-2.604c-0.106-0.408-0.219-0.818-0.328-1.229
		c0.172-0.281,0.383-0.531,0.641-0.738c2.428-1.95,4.688-3.973,6.368-6.611c3.94-6.196,3.583-13.938,2.723-20.906
		c-0.411-3.328-0.942-6.652-1.599-9.943c0,0,0.003,0.128,0.009,0.354c-0.046-0.2-0.081-0.403-0.135-0.604
		c0.019,3.381-0.493,7.302-2.408,10.198c-0.798,1.207-2.903,1.591-4.231,1.767c-1.688,0.227-3.408,0.136-5.093,0.406
		c-1.561,0.251-2.767,0.98-3.59,2.332c-0.913,1.5-1.126,3.291-1.021,5.006c-0.99,1.392-1.8,2.993-2.039,4.688
		c-0.215,1.512,0.095,3.423,1.748,4.021c1.015,0.366,2.072,0.063,3.022-0.336c0.444,1.019,0.865,2.043,1.258,3.08
		c-1.693,2.513-3.141,5.229-2.718,8.349c0.385,3.088,2.195,5.788,3.562,8.524c1.407,2.821,2.199,5.837,2.822,8.91
		c0.528,2.607,0.719,5.257,1.183,7.869c3.048,1.466,6.271,2.405,9.579,3.12c3.998,0.863,8.187,1.32,12.279,1.32v0.014
		c0.688-0.004,1.373-0.004,2.06,0v-0.014c4.022,0,8.122-0.456,12.058-1.271c3.384-0.703,6.691-1.672,9.802-3.169
		c0.45-2.539,0.636-5.115,1.14-7.653c0.607-3.068,1.379-6.104,2.77-8.93c1.354-2.746,3.178-5.434,3.629-8.511
		c0.475-3.214-0.938-5.962-2.688-8.559c0.395-1.037,0.812-2.062,1.259-3.08c1.343,0.567,3.01,0.851,4.076-0.393
		C1057.973,746.462,1057.511,744.24,1056.895,742.642C1056.507,741.666,1057.232,743.517,1056.895,742.642z M994.229,735.812
		c0.559-1.009,1.339-1.591,2.477-1.82c1.287-0.26,2.619-0.29,3.921-0.447c-2.627,0.965-5.089,2.426-7.039,4.426
		C993.678,737.193,993.879,736.459,994.229,735.812C994.451,735.411,993.879,736.459,994.229,735.812z M993.913,746.832
		c-0.711,0.318-1.427,0.378-1.762,0.16c-0.544-0.289-0.542-1.178-0.5-1.688c0.07-0.861,0.379-1.703,0.761-2.477
		c0.364,1.394,0.932,2.686,1.57,3.976C993.96,746.814,993.936,746.823,993.913,746.832
		C993.202,747.15,993.936,746.823,993.913,746.832z M996.527,757.242c-0.693,1.479-0.823,3.139-0.69,4.745
		c-0.593-1.39-0.957-2.862-0.787-4.374c0.171-1.528,0.812-2.931,1.609-4.234c0.229,0.67,0.452,1.343,0.665,2.021
		c0.141,0.447,0.036,0.486-0.227,0.857C996.883,756.569,996.689,756.9,996.527,757.242
		C996.224,757.89,996.77,756.734,996.527,757.242z M997.771,747.729c-0.055,0.603-0.375,1.192-0.654,1.719
		c-0.248-0.587-0.51-1.168-0.773-1.749c0.369-0.104,1.048-0.348,1.423-0.161C997.773,747.567,997.783,747.635,997.771,747.729
		C997.748,747.995,997.783,747.635,997.771,747.729z M999.181,754.269l-0.184,0.143c-0.175-0.523-0.361-1.042-0.55-1.562
		c-0.145-0.393-0.655-1.25-0.439-1.604c0.529-0.866,1.053-1.792,1.299-2.78c0.232-0.926,0.098-2.01-0.905-2.423
		c-0.87-0.357-1.914-0.085-2.771,0.169c-0.576-1.128-1.131-2.24-1.5-3.455c-0.192-0.634-0.342-1.275-0.448-1.932
		c0.426-0.544,0.894-1.062,1.395-1.538c1.832-1.744,4.042-3.075,6.409-3.993c1.2-0.465,2.476-0.717,3.551-1.452
		c2.112-1.447,3.088-3.963,3.516-6.363c0.074,5.021,0.105,10.242-1.188,15.137C1006.104,747.355,1003.173,751.356,999.181,754.269z
		 M1048.333,733.713c1.174,0.113,2.688,0.083,3.683,0.801c1.095,0.788,1.584,2.187,1.734,3.457c-1.949-2-4.411-3.461-7.039-4.426
		C1047.25,733.609,1047.793,733.663,1048.333,733.713C1049.319,733.808,1047.793,733.663,1048.333,733.713z M1049.564,747.729
		c-0.012-0.094-0.002-0.16,0.006-0.19c0.375-0.185,1.054,0.059,1.423,0.161c-0.263,0.581-0.525,1.161-0.773,1.749
		C1049.939,748.921,1049.618,748.33,1049.564,747.729C1049.555,747.635,1049.589,747.995,1049.564,747.729z M1051.53,754.958
		c1.057,2.332,0.964,4.698-0.031,7.028c0.121-1.465,0.026-2.975-0.521-4.354c-0.264-0.662-0.635-1.283-1.096-1.832
		c0.252-0.81,0.516-1.619,0.791-2.422C1050.992,753.896,1051.287,754.419,1051.53,754.958
		C1052.192,756.418,1051.287,754.419,1051.53,754.958z M1052.439,744.77c-0.201,0.437-0.479,0.942-0.731,1.441
		c-0.857-0.254-1.901-0.527-2.772-0.169c-1,0.413-1.138,1.497-0.903,2.423c0.247,0.989,0.77,1.914,1.299,2.78
		c0.216,0.354-0.297,1.212-0.439,1.604c-0.188,0.519-0.375,1.036-0.55,1.561c-1.826-1.404-3.55-2.949-4.959-4.77
		c-1.536-1.979-2.615-4.226-3.292-6.623c-1.414-5.003-1.376-10.385-1.302-15.538c0.41,2.299,1.305,4.641,3.211,6.14
		c0.933,0.731,1.975,1.016,3.074,1.389c2.271,0.784,4.436,1.94,6.277,3.47c0.418,0.349,0.823,0.711,1.205,1.1
		c0.34,0.343,1.146,0.986,1.062,1.475C1053.395,742.333,1052.988,743.587,1052.439,744.77
		C1052.238,745.205,1052.895,743.792,1052.439,744.77z M1055.186,746.992c-0.521,0.339-1.328,0.021-1.832-0.188
		c0.641-1.29,1.207-2.582,1.57-3.976c0.354,0.717,0.641,1.487,0.74,2.282C1055.733,745.657,1055.785,746.674,1055.186,746.992
		C1054.85,747.21,1055.52,746.814,1055.186,746.992z"/>
</g>
</svg>
