<?xml version="1.0" encoding="utf-8"?>
<!-- Generator: Adobe Illustrator 17.1.0, SVG Export Plug-In . SVG Version: 6.00 Build 0)  -->
<!DOCTYPE svg PUBLIC "-//W3C//DTD SVG 1.0//EN" "http://www.w3.org/TR/2001/REC-SVG-20010904/DTD/svg10.dtd">
<svg version="1.0" xmlns="http://www.w3.org/2000/svg" xmlns:xlink="http://www.w3.org/1999/xlink" x="0px" y="0px"
	 viewBox="0 0 512 512" enable-background="new 0 0 512 512" xml:space="preserve">
<g id="Piece_x5F_1">
</g>
<g id="Layer_4">
	<g>
		<path fill="#02A676" d="M477,384.9v-256L255.5,0.9L34,128.9v256l221.1,127.5h1.7L477,384.9z M95,301.5v-7v-78.6v-7.3l6.8,8.2
			l119,16l13.9-13.9l-16.6-118l-8.5-6.4h92.9l-7.2,5.4l-16.5,119.7l13.5,13.5L410,216.7l6-8.1v7.3v78.6v7l-5.7-7.8l-117.3-15.2
			l-13.1,13.2l15.7,120.8l7.7,6h-92.9l7.3-5.8l16-120.4l-13.9-13.9l-118.2,15.3L95,301.5z"/>
		<polygon fill="#005A5B" points="278.8,219.6 295.3,99.9 302.6,94.4 209.7,94.4 218.2,100.9 234.8,218.9 256.5,197.2 		"/>
		<polygon fill="#005A5B" points="233.7,292.3 217.7,412.6 210.4,418.4 303.3,418.4 295.6,412.4 279.9,291.6 256.5,315 		"/>
		<polygon fill="#005A5B" points="197.5,256.1 220.9,232.8 101.8,216.7 95,208.6 95,215.9 95,294.5 95,301.5 101.5,293.7 
			219.7,278.4 		"/>
		<polygon fill="#005A5B" points="293.1,278.4 410.3,293.7 416,301.5 416,294.5 416,215.9 416,208.6 410,216.7 292.2,233.1 
			315.3,256.1 		"/>
		<polygon fill="#02A676" points="279.9,291.6 293.1,278.4 277.9,276.5 		"/>
		<polygon fill="#02A676" points="219.8,278.4 233.7,292.3 235.8,276.3 		"/>
		<polygon fill="#02A676" points="234.8,218.9 220.9,232.8 237,234.9 		"/>
		<polygon fill="#02A676" points="292.4,233.1 278.8,219.6 276.7,235.3 		"/>
		<path fill="#02A676" d="M219.8,278.4l16-2.1l-2.1,16l22.8,22.8l23.4-23.4l-2-15.1l15.1,2l22.3-22.3l-23-23l-15.7,2.2l2.2-15.7
			l-22.4-22.4l-21.7,21.7l2.3,16.1l-16.1-2.2l-23.3,23.3L219.8,278.4z M256.3,218.3l37.9,37.9l-37.9,37.9l-37.9-37.9L256.3,218.3z"
			/>
		
			<rect x="229.5" y="229.4" transform="matrix(-0.7071 0.7071 -0.7071 -0.7071 618.738 256.1226)" fill="#003840" width="53.7" height="53.7"/>
	</g>
</g>
<g id="Layer_5" display="none">
</g>
<g id="Layer_7">
</g>
<g id="Grid" display="none">
</g>
<g id="Lines" display="none">
</g>
<g id="Layer_6">
</g>
</svg>
