<?xml version="1.0" encoding="utf-8"?>
<!-- Generator: Adobe Illustrator 17.1.0, SVG Export Plug-In . SVG Version: 6.00 Build 0)  -->
<!DOCTYPE svg PUBLIC "-//W3C//DTD SVG 1.1//EN" "http://www.w3.org/Graphics/SVG/1.1/DTD/svg11.dtd">
<svg version="1.1" xmlns="http://www.w3.org/2000/svg" xmlns:xlink="http://www.w3.org/1999/xlink" x="0px" y="0px"
	 viewBox="0 0 512 512" enable-background="new 0 0 512 512" xml:space="preserve">
<g id="Color">
	<g>
		<circle fill="#57202B" cx="256" cy="256" r="256"/>
		<path fill="#A7302E" d="M388,344c0,73.2-59.4,132.6-132.6,132.6S122.8,417.2,122.8,344S255.4,35.4,255.4,35.4S388,270.8,388,344z"
			/>
		<path fill="#D8674B" d="M177.4,418.4c19.4,21.1,47.4,34.4,78.6,34.4c58.4,0,105.7-46.4,105.7-103.7c0-26.7-10.3-51.1-27.3-69.5
			L177.4,418.4z"/>
	</g>
</g>
<g id="BW" display="none">
	<path display="inline" d="M256,0c0,0-153.9,273.1-153.9,358.1S171,512,256,512c85,0,153.9-68.9,153.9-153.9S256,0,256,0z
		 M256.7,484.4c-36.2,0-68.7-15.4-91.2-39.9l182.3-161.2c19.7,21.4,31.6,49.6,31.6,80.7C379.4,430.5,324.5,484.4,256.7,484.4z"/>
</g>
</svg>
