<?xml version="1.0" encoding="utf-8"?>
<!-- Generator: Adobe Illustrator 17.1.0, SVG Export Plug-In . SVG Version: 6.00 Build 0)  -->
<!DOCTYPE svg PUBLIC "-//W3C//DTD SVG 1.1//EN" "http://www.w3.org/Graphics/SVG/1.1/DTD/svg11.dtd">
<svg version="1.1" xmlns="http://www.w3.org/2000/svg" xmlns:xlink="http://www.w3.org/1999/xlink" x="0px" y="0px"
	 viewBox="0 0 512 512" enable-background="new 0 0 512 512" xml:space="preserve">
<g id="Color">
	<g>
		<path fill="#002800" d="M510.8,280.9c-11.5,121.6-108.4,218.5-230,230C128.3,525.3,0,405.6,0,256C0-12.4,246.6,0,256,0
			C405.6,0,525.2,128.3,510.8,280.9z"/>
		<path fill="#8AC212" d="M210.9,198.2h-2.3c-2.5-23.7-2.6-47.7-0.3-72h2.7C212.3,150.2,212.4,174.2,210.9,198.2z"/>
		<path fill="#8AC212" d="M234.5,235.9c-71.1,1.3-134.3,29.2-199.3,71l-2.1,3.2c64-42.6,131.5-67,203.8-67L234.5,235.9z"/>
		<g>
			<polygon fill="#36A441" points="479.7,209.6 432.7,397.4 293.5,262.8 			"/>
			<polygon fill="#69C173" points="325.4,311 422.9,406.9 291.1,443.4 			"/>
			<path fill="#42BD49" d="M476.3,195.3l2.3-0.7l-5.2-0.5L243.1,93.6L33,182.4l3.3,20l27.8,6.1l26.3,35.9l-7.6-31.8l136.3,29.8
				L219,243l-96.6,28.4l-13.9-41.2l-1.3,45.6l-34.2,10l22.2,23.7l226.7-68L479,196.5L476.3,195.3z M211.4,185
				c-16.7,1.3-30.5-12.5-29.2-29.2c1-13.1,11.7-23.8,24.8-24.8c16.7-1.3,30.5,12.5,29.2,29.2C235.2,173.3,224.5,184,211.4,185z"/>
		</g>
	</g>
</g>
<g id="BW" display="none">
	<g display="inline">
		<polygon points="298.2,249.5 456.2,402.4 509.6,189.1 		"/>
		<polygon points="295.5,454.6 445.1,413.1 334.4,304.3 		"/>
		<path d="M330.5,225.4l178.3-51.2l-3.1-1.4l2.6-0.8l-5.9-0.6l-261.5-114L2.4,158.3L6.2,181l31.6,6.9l29.8,40.7L59,192.6l134.1,29.4
			c-31.9,4.4-62.7,13.4-92.9,26.2l-12-35.6L87,253.9c-27.5,12.5-54.6,28-82.1,45.6l-2.4,3.7c15-10,30.2-19.1,45.6-27.3l25,26.7
			L330.5,225.4z M233.1,133c-1.2,14.8-13.2,26.9-28,28.1c0.8-20.4,0.6-40.9-0.4-61.3C221.5,101.1,234.5,115.7,233.1,133z M171.8,128
			c1.2-14.9,13.3-27,28.2-28.2c0.3,0,0.7,0,1-0.1c-1.7,20.7-1.9,41.1-0.5,61.4C183.6,160.1,170.4,145.5,171.8,128z M210.7,227.9
			l-106.8,31.4l-2.5-7.5C136.8,238.4,173.2,230.3,210.7,227.9z M86.9,257.5l-0.2,6.8l-37.5,11C61.6,268.7,74.2,262.8,86.9,257.5z"/>
	</g>
</g>
</svg>
