<?xml version="1.0" encoding="utf-8"?>
<!-- Generator: Adobe Illustrator 17.1.0, SVG Export Plug-In . SVG Version: 6.00 Build 0)  -->
<!DOCTYPE svg PUBLIC "-//W3C//DTD SVG 1.1//EN" "http://www.w3.org/Graphics/SVG/1.1/DTD/svg11.dtd">
<svg version="1.1" xmlns="http://www.w3.org/2000/svg" xmlns:xlink="http://www.w3.org/1999/xlink" x="0px" y="0px"
	 viewBox="0 0 512 512" enable-background="new 0 0 512 512" xml:space="preserve">
<g id="Color">
	<g>
		<circle fill="#4A2C42" cx="256" cy="256" r="256"/>
		<g>
			<path fill="#C88757" d="M406.5,92.2L41.7,283.1c-4.1,2.2-9.2,0.6-11.3-3.5l-4-7.6c-2.2-4.1-0.6-9.2,3.5-11.3L394.7,69.7
				c4.1-2.2,9.2-0.6,11.3,3.5l4,7.6C412.2,84.9,410.6,90,406.5,92.2z"/>
			
				<rect x="83.8" y="204.1" transform="matrix(0.886 -0.4638 0.4638 0.886 -95.8544 155.6046)" fill="#CC9459" width="369.4" height="137.2"/>
			<path fill="#C88757" d="M477.8,243L117.5,431.6c-5.3,2.8-11.9,0.7-14.7-4.6l-1.6-3.1c-2.8-5.3-0.7-11.9,4.6-14.7l360.3-188.6
				c5.3-2.8,11.9-0.7,14.7,4.6l1.6,3.1C485.2,233.6,483.2,240.2,477.8,243z"/>
			
				<rect x="108.3" y="284.6" transform="matrix(0.886 -0.4638 0.4638 0.886 -114.7453 172.2851)" fill="#B86451" width="369.4" height="69.7"/>
			
				<rect x="134.7" y="364.7" transform="matrix(0.886 -0.4638 0.4638 0.886 -135.1475 190.3)" fill="#B86451" width="369.4" height="10.6"/>
			
				<rect x="29" y="133.2" transform="matrix(0.886 -0.4638 0.4638 0.886 -53.5387 118.2404)" fill="#B86451" width="369.4" height="69.7"/>
		</g>
	</g>
</g>
<g id="BW" display="none">
	<g display="inline">
		<rect x="213.2" y="40.8" transform="matrix(0.4638 0.886 -0.886 0.4638 351.6474 -95.7002)" width="83.4" height="403.7"/>
		<path d="M498.1,272.5l-8.6-16.3l14-7.3c5.8-3.1,8.1-10.3,5-16.1l-1.8-3.4c-3.1-5.8-10.3-8.1-16.1-5l-14,7.3L462.8,205L105.1,392.2
			l13.9,26.6l-22.1,11.6c-5.8,3.1-8.1,10.3-5,16.1l1.8,3.4c3.1,5.8,10.3,8.1,16.1,5l22.1-11.6l8.6,16.3L498.1,272.5z"/>
		<rect x="128.7" y="381.8" transform="matrix(0.886 -0.4638 0.4638 0.886 -142.0231 197.4607)" width="403.7" height="11.5"/>
		<path d="M402.3,93.2l-6.4-12.3l20.5-10.7c4.5-2.4,6.2-7.9,3.9-12.4l-4.3-8.3c-2.4-4.5-7.9-6.2-12.4-3.9l-20.5,10.7l-16-30.7
			L9.4,213l16,30.7L4.9,254.4c-4.5,2.4-6.2,7.9-3.9,12.4l4.3,8.3c2.4,4.5,7.9,6.2,12.4,3.9l20.5-10.7l6.4,12.3L402.3,93.2z"/>
	</g>
</g>
</svg>
