<?xml version="1.0" encoding="utf-8"?>
<!-- Generator: Adobe Illustrator 17.1.0, SVG Export Plug-In . SVG Version: 6.00 Build 0)  -->
<!DOCTYPE svg PUBLIC "-//W3C//DTD SVG 1.0//EN" "http://www.w3.org/TR/2001/REC-SVG-20010904/DTD/svg10.dtd">
<svg version="1.0" xmlns="http://www.w3.org/2000/svg" xmlns:xlink="http://www.w3.org/1999/xlink" x="0px" y="0px"
	 viewBox="0 0 512 512" enable-background="new 0 0 512 512" xml:space="preserve">
<g id="Piece_x5F_1">
</g>
<g id="Layer_4">
	<g>
		<defs>
			<polygon id="SVGID_1_" points="34,128.5 255.5,0.5 477,128.5 477,384.5 255.5,512.5 34,384.5 			"/>
		</defs>
		<clipPath id="SVGID_2_">
			<use xlink:href="#SVGID_1_"  overflow="visible"/>
		</clipPath>
		<g clip-path="url(#SVGID_2_)">
			<rect fill="#FACA66" width="512" height="512"/>
			<g>
				<g>
					<g enable-background="new    ">
						<g>
							<polygon fill="#7E4A00" points="256,150.2 256,171.4 255.2,171.8 255.2,150.6 							"/>
						</g>
						<g>
							<polygon fill="#7A4800" points="256.8,150.6 256.8,171.8 256,171.4 256,150.2 							"/>
						</g>
						<g enable-background="new    ">
							<defs>
								<path id="SVGID_3_" enable-background="new    " d="M351.4,263.9c0-50.4-42.4-91.7-94.6-92.1v-21.2
									c52.2,0.4,94.6,41.7,94.6,92.1C351.4,249.1,351.4,257.6,351.4,263.9z"/>
							</defs>
							<clipPath id="SVGID_4_">
								<use xlink:href="#SVGID_3_"  overflow="visible"/>
							</clipPath>
							<g clip-path="url(#SVGID_4_)" enable-background="new    ">
								<path fill="#7E4A00" d="M351.4,242.7v21.2c0-50.4-42.4-91.7-94.6-92.1v-21.2C309,151,351.4,192.3,351.4,242.7"/>
							</g>
						</g>
						<g enable-background="new    ">
							<defs>
								<path id="SVGID_5_" enable-background="new    " d="M255.2,171.8c-52.2,0.4-94.6,41.7-94.6,92.1l0-21.2
									c0-50.4,42.4-91.7,94.6-92.1C255.2,157,255.2,165.4,255.2,171.8z"/>
							</defs>
							<clipPath id="SVGID_6_">
								<use xlink:href="#SVGID_5_"  overflow="visible"/>
							</clipPath>
							<g clip-path="url(#SVGID_6_)" enable-background="new    ">
								<path fill="#7E4A00" d="M255.2,150.6v21.2c-25.2,0.2-48.1,9.9-65,25.6v-21.2C207.1,160.5,230,150.8,255.2,150.6"/>
								<path fill="#834D00" d="M190.2,176.2v21.2c-6,5.5-11.2,11.7-15.5,18.5v-21.2C179,187.9,184.2,181.7,190.2,176.2"/>
								<path fill="#885000" d="M174.7,194.7v21.2c-4.2,6.5-7.5,13.6-9.9,21.1v-21.2C167.2,208.3,170.5,201.2,174.7,194.7"/>
								<path fill="#8D5300" d="M164.8,215.8v21.2c-2.7,8.5-4.2,17.6-4.2,27v-21.2C160.6,233.4,162.1,224.3,164.8,215.8"/>
							</g>
						</g>
						<g enable-background="new    ">
							<defs>
								<path id="SVGID_7_" enable-background="new    " d="M256.7,151.6v21.2c-53,0.3-95.1,41.2-95.1,91.2l0-21.2
									C161.6,192.8,203.6,151.9,256.7,151.6z"/>
							</defs>
							<clipPath id="SVGID_8_">
								<use xlink:href="#SVGID_7_"  overflow="visible"/>
							</clipPath>
							<g clip-path="url(#SVGID_8_)" enable-background="new    ">
								<path fill="#7E4A00" d="M256.7,151.6v21.2c-25.8,0.2-49,9.9-66,25.6v-21.2C207.7,161.5,230.9,151.7,256.7,151.6"/>
								<path fill="#834D00" d="M190.7,177.2v21.2c-5.9,5.4-11,11.5-15.3,18.2v-21.2C179.7,188.7,184.8,182.6,190.7,177.2"/>
								<path fill="#885000" d="M175.4,195.4v21.2c-4.1,6.4-7.4,13.4-9.7,20.7v-21.2C168.1,208.8,171.3,201.9,175.4,195.4"/>
								<path fill="#8D5300" d="M165.7,216.1v21.2c-2.7,8.4-4.1,17.4-4.1,26.6v-21.2C161.6,233.5,163,224.6,165.7,216.1"/>
							</g>
						</g>
						<g enable-background="new    ">
							<defs>
								<path id="SVGID_9_" enable-background="new    " d="M350.4,242.7l0,21.2c0-49.9-42-90.8-93.7-91.2v-21.2
									C308.4,151.9,350.4,192.8,350.4,242.7z"/>
							</defs>
							<clipPath id="SVGID_10_">
								<use xlink:href="#SVGID_9_"  overflow="visible"/>
							</clipPath>
							<g clip-path="url(#SVGID_10_)" enable-background="new    ">
								<path fill="#7E4A00" d="M350.4,242.7v21.2c0-49.9-42-90.8-93.7-91.2v-21.2C308.4,151.9,350.4,192.8,350.4,242.7"/>
							</g>
						</g>
						<g enable-background="new    ">
							<defs>
								<path id="SVGID_11_" enable-background="new    " d="M161.7,267.4c0-1.2-0.1-2.3-0.1-3.5l0-21.2c0,1.2,0,2.4,0.1,3.5
									c0,0.6,0,1.4,0,2.1c0,0.7,0,1.5,0,2.2c0,0.7,0,1.6,0,2.3c0,0.7,0,1.6,0,2.3s0,1.6,0,2.3c0,0.7,0,1.6,0,2.3
									c0,0.7,0,1.5,0,2.2c0,0.6,0,1.4,0,2.1c0,0.1,0,0.3,0,0.4c0,0.1,0,0.3,0,0.4c0,0.1,0,0.3,0,0.5c0,0.1,0,0.3,0,0.5
									s0,0.3,0,0.5c0,0.1,0,0.3,0,0.5c0,0.1,0,0.3,0,0.4C161.7,267.2,161.7,267.3,161.7,267.4z"/>
							</defs>
							<clipPath id="SVGID_12_">
								<use xlink:href="#SVGID_11_"  overflow="visible"/>
							</clipPath>
							<g clip-path="url(#SVGID_12_)" enable-background="new    ">
								<path fill="#856100" d="M174.5,288.8v21.2c-8.5-14-12.9-29.9-12.9-46v-21.2C161.6,258.9,166,274.8,174.5,288.8"/>
							</g>
						</g>
						<g enable-background="new    ">
							<defs>
								<path id="SVGID_13_" enable-background="new    " d="M297.9,258.7c-13.7,0-24.8,10.8-24.8,24v-21.2c0-13.2,11.1-24,24.8-24
									c4.9,0,9.4,1.4,13.3,3.7c0,0.6,0,1.5,0,2.1c0,0.7,0,1.6,0,2.2c0,0.7,0,1.6,0,2.3c0,0.7,0,1.6,0,2.3s0,1.6,0,2.3
									c0,0.7,0,1.6,0,2.3c0,0.7,0,1.6,0,2.2c0,0.6,0,1.5,0,2.1c0,0.1,0,0.3,0,0.4c0,0.1,0,0.3,0,0.4c0,0.1,0,0.3,0,0.4
									c0,0.1,0,0.3,0,0.4c0,0.1,0,0.3,0,0.4c0,0.1,0,0.3,0,0.4c0,0.1,0,0.3,0,0.4c0,0.1,0,0.3,0,0.4
									C307.4,260.1,302.8,258.7,297.9,258.7z"/>
							</defs>
							<clipPath id="SVGID_14_">
								<use xlink:href="#SVGID_13_"  overflow="visible"/>
							</clipPath>
							<g clip-path="url(#SVGID_14_)" enable-background="new    ">
								<path fill="#856100" d="M322.8,261.6v21.2c0-13.2-11.1-24-24.8-24c-6.6,0-12.7,2.5-17.2,6.7v-21.2
									c4.5-4.1,10.5-6.7,17.2-6.7C311.6,237.6,322.8,248.3,322.8,261.6"/>
								<path fill="#8A6400" d="M280.8,244.2v21.2c-1.5,1.4-2.9,3-4,4.8V249C277.9,247.3,279.2,245.7,280.8,244.2"/>
								<path fill="#8F6800" d="M276.8,249v21.2c-1.1,1.7-2,3.5-2.6,5.5v-21.2C274.8,252.6,275.7,250.7,276.8,249"/>
								<path fill="#946C00" d="M274.2,254.5v21.2c-0.7,2.2-1.1,4.6-1.1,7v-21.2C273.1,259.1,273.5,256.8,274.2,254.5"/>
							</g>
						</g>
						<g enable-background="new    ">
							<defs>
								<path id="SVGID_15_" enable-background="new    " d="M311.2,262.5c0-0.1,0-0.3,0-0.4c0-0.1,0-0.3,0-0.4c0-0.1,0-0.3,0-0.4
									c0-0.1,0-0.3,0-0.4c0-0.1,0-0.3,0-0.4c0-0.1,0-0.3,0-0.4c0-0.1,0-0.3,0-0.4c0-0.1,0-0.3,0-0.4c0-0.6,0-1.5,0-2.1
									c0-0.7,0-1.6,0-2.2c0-0.7,0-1.6,0-2.3c0-0.7,0-1.6,0-2.3s0-1.6,0-2.3c0-0.7,0-1.6,0-2.3c0-0.7,0-1.6,0-2.2
									c0-0.6,0-1.5,0-2.1c6.9,4.3,11.6,11.8,11.6,20.3v21.2C322.8,274.2,318.2,266.7,311.2,262.5z"/>
							</defs>
							<clipPath id="SVGID_16_">
								<use xlink:href="#SVGID_15_"  overflow="visible"/>
							</clipPath>
							<g clip-path="url(#SVGID_16_)" enable-background="new    ">
								<path fill="#856100" d="M322.8,261.6v21.2c0-13.2-11.1-24-24.8-24c-6.6,0-12.7,2.5-17.2,6.7v-21.2
									c4.5-4.1,10.5-6.7,17.2-6.7C311.6,237.6,322.8,248.3,322.8,261.6"/>
							</g>
						</g>
						<g enable-background="new    ">
							<defs>
								<path id="SVGID_17_" enable-background="new    " d="M238.5,261.6l0,21.2c0-13.2-11.1-24-24.8-24s-24.8,10.8-24.8,24l0-21.2
									c0-13.2,11.1-24,24.8-24S238.5,248.3,238.5,261.6z"/>
							</defs>
							<clipPath id="SVGID_18_">
								<use xlink:href="#SVGID_17_"  overflow="visible"/>
							</clipPath>
							<g clip-path="url(#SVGID_18_)" enable-background="new    ">
								<path fill="#856100" d="M238.5,261.6v21.2c0-13.2-11.1-24-24.8-24c-6.6,0-12.7,2.5-17.2,6.7v-21.2
									c4.5-4.1,10.5-6.7,17.2-6.7C227.4,237.6,238.5,248.3,238.5,261.6"/>
								<path fill="#8A6400" d="M196.5,244.2v21.2c-1.5,1.4-2.9,3-4,4.8V249C193.6,247.3,195,245.7,196.5,244.2"/>
								<path fill="#8F6800" d="M192.5,249v21.2c-1.1,1.7-2,3.5-2.6,5.5v-21.2C190.5,252.6,191.4,250.7,192.5,249"/>
								<path fill="#946C00" d="M189.9,254.5v21.2c-0.7,2.2-1.1,4.6-1.1,7v-21.2C188.8,259.1,189.2,256.8,189.9,254.5"/>
							</g>
						</g>
						<g enable-background="new    ">
							<defs>
								<path id="SVGID_19_" enable-background="new    " d="M237.5,261.6l0,21.2c0-12.7-10.7-23-23.8-23c-13.1,0-23.8,10.3-23.8,23
									l0-21.2c0-12.7,10.7-23,23.8-23C226.8,238.5,237.5,248.9,237.5,261.6z"/>
							</defs>
							<clipPath id="SVGID_20_">
								<use xlink:href="#SVGID_19_"  overflow="visible"/>
							</clipPath>
							<g clip-path="url(#SVGID_20_)" enable-background="new    ">
								<path fill="#7E4A00" d="M237.5,261.6v21.2c0-12.7-10.7-23-23.8-23c-6.4,0-12.2,2.4-16.5,6.4v-21.2c4.3-4,10.1-6.4,16.5-6.4
									C226.8,238.5,237.5,248.9,237.5,261.6"/>
								<path fill="#834D00" d="M197.2,244.9v21.2c-1.5,1.4-2.8,2.9-3.9,4.6v-21.2C194.4,247.8,195.7,246.3,197.2,244.9"/>
								<path fill="#885000" d="M193.3,249.5v21.2c-1,1.6-1.9,3.4-2.5,5.3v-21.2C191.5,252.9,192.3,251.2,193.3,249.5"/>
								<path fill="#8D5300" d="M190.9,254.8V276c-0.7,2.1-1,4.4-1,6.8v-21.2C189.8,259.2,190.2,256.9,190.9,254.8"/>
							</g>
						</g>
						<g enable-background="new    ">
							<defs>
								<path id="SVGID_21_" enable-background="new    " d="M321.8,261.6v21.2c0-12.7-10.7-23-23.8-23c-13.1,0-23.8,10.3-23.8,23
									l0-21.2c0-12.7,10.7-23,23.8-23C311.1,238.5,321.8,248.9,321.8,261.6z"/>
							</defs>
							<clipPath id="SVGID_22_">
								<use xlink:href="#SVGID_21_"  overflow="visible"/>
							</clipPath>
							<g clip-path="url(#SVGID_22_)" enable-background="new    ">
								<path fill="#7E4A00" d="M321.8,261.6v21.2c0-12.7-10.7-23-23.8-23c-6.4,0-12.2,2.4-16.5,6.4v-21.2c4.3-4,10.1-6.4,16.5-6.4
									C311.1,238.5,321.8,248.9,321.8,261.6"/>
								<path fill="#834D00" d="M281.5,244.9v21.2c-1.5,1.4-2.8,2.9-3.9,4.6v-21.2C278.7,247.8,280,246.3,281.5,244.9"/>
								<path fill="#885000" d="M277.6,249.5v21.2c-1,1.6-1.9,3.4-2.5,5.3v-21.2C275.7,252.9,276.6,251.2,277.6,249.5"/>
								<path fill="#8D5300" d="M275.1,254.8V276c-0.7,2.1-1,4.4-1,6.8v-21.2C274.1,259.2,274.5,256.9,275.1,254.8"/>
							</g>
						</g>
						<g enable-background="new    ">
							<defs>
								<path id="SVGID_23_" enable-background="new    " d="M274.1,282.7C274.1,282.7,274.1,282.7,274.1,282.7L274.1,282.7l0-21.2
									c0,0,0,0,0,0c0,0.7,0,1.7,0,2.5c0,0.8,0,1.8,0,2.6c0,0.8,0,1.9,0,2.7c0,0.8,0,1.9,0,2.8c0,0.8,0,1.9,0,2.8
									c0,0.8,0,1.9,0,2.7c0,0.8,0,1.8,0,2.6C274.1,281,274.1,282,274.1,282.7z"/>
							</defs>
							<clipPath id="SVGID_24_">
								<use xlink:href="#SVGID_23_"  overflow="visible"/>
							</clipPath>
							<g clip-path="url(#SVGID_24_)" enable-background="new    ">
								<path fill="#7E4A00" d="M314.4,278.2v21.2c-4.3,4-10.1,6.4-16.5,6.4c-13.1,0-23.8-10.3-23.8-23v-21.2
									c0,12.7,10.7,23,23.8,23C304.3,284.6,310.1,282.2,314.4,278.2"/>
							</g>
						</g>
						<g enable-background="new    ">
							<defs>
								<path id="SVGID_25_" enable-background="new    " d="M192.7,293.7c-1.8-3.3-2.9-7-2.9-11l0,0l0-21.2c0,4,1,7.7,2.9,11
									c0,0.4,0,0.9,0,1.2c0,0.4,0,0.9,0,1.3c0,0.4,0,1,0,1.4c0,0.4,0,1,0,1.4c0,0.4,0,1,0,1.4c0,0.4,0,1,0,1.4c0,0.4,0,0.9,0,1.3
									c0,0.4,0,0.9,0,1.2c0,0.4,0,0.9,0,1.2c0,0.4,0,0.9,0,1.3c0,0.4,0,0.9,0,1.3c0,0.4,0,1,0,1.4c0,0.4,0,1,0,1.4
									c0,0.4,0,0.9,0,1.3c0,0.4,0,0.9,0,1.3C192.7,292.9,192.7,293.4,192.7,293.7z"/>
							</defs>
							<clipPath id="SVGID_26_">
								<use xlink:href="#SVGID_25_"  overflow="visible"/>
							</clipPath>
							<g clip-path="url(#SVGID_26_)" enable-background="new    ">
								<path fill="#7E4A00" d="M230.1,278.2v21.2c-4.3,4-10.1,6.4-16.5,6.4c-13.1,0-23.8-10.3-23.8-23v-21.2
									c0,12.7,10.7,23,23.8,23C220,284.6,225.8,282.2,230.1,278.2"/>
							</g>
						</g>
						<g>
							<path fill="#DD8200" d="M213.7,238.5c13.1,0,23.8,10.3,23.8,23c0,12.7-10.7,23-23.8,23c-13.1,0-23.8-10.3-23.8-23
								C189.8,248.9,200.5,238.5,213.7,238.5z"/>
						</g>
						<g enable-background="new    ">
							<defs>
								<path id="SVGID_27_" enable-background="new    " d="M192.7,293.7c-0.1-0.4,0-0.9,0-1.2c0-0.4,0-0.9,0-1.3
									c0-0.4,0-0.9,0-1.3c0-0.4,0-1,0-1.4c0-0.4,0-1,0-1.4c0-0.4,0-0.9,0-1.3c0-0.4,0-0.9,0-1.3c0-0.4,0-0.9,0-1.2
									c0-0.4,0-0.9,0-1.2c0-0.4,0-0.9,0-1.3c0-0.4,0-1,0-1.4c0-0.4,0-1,0-1.4c0-0.4,0-1,0-1.4c0-0.4,0-1,0-1.4c0-0.4,0-0.9,0-1.3
									c0-0.4,0-0.9,0-1.2c4,7.2,11.9,12,20.9,12c13.1,0,23.8-10.3,23.8-23v21.2c0,12.7-10.7,23-23.8,23
									C204.6,305.8,196.8,300.9,192.7,293.7z"/>
							</defs>
							<clipPath id="SVGID_28_">
								<use xlink:href="#SVGID_27_"  overflow="visible"/>
							</clipPath>
							<g clip-path="url(#SVGID_28_)" enable-background="new    ">
								<path fill="#8D5300" d="M237.5,261.6v21.2c0,2.4-0.4,4.6-1,6.8v-21.2C237.1,266.2,237.5,263.9,237.5,261.6"/>
								<path fill="#885000" d="M236.5,268.3v21.2c-0.6,1.9-1.4,3.6-2.5,5.3v-21.2C235,272,235.9,270.2,236.5,268.3"/>
								<path fill="#834D00" d="M234,273.6v21.2c-1.1,1.7-2.4,3.2-3.9,4.6v-21.2C231.6,276.8,232.9,275.3,234,273.6"/>
								<path fill="#7E4A00" d="M230.1,278.2v21.2c-4.3,4-10.1,6.4-16.5,6.4c-13.1,0-23.8-10.3-23.8-23v-21.2
									c0,12.7,10.7,23,23.8,23C220,284.6,225.8,282.2,230.1,278.2"/>
							</g>
						</g>
						<g enable-background="new    ">
							<defs>
								<path id="SVGID_29_" enable-background="new    " d="M274.3,285.6c0-0.3,0-0.7,0-1c0-0.3,0-0.7,0-1c0-0.3,0-0.7,0-1.1
									c0-0.3,0-0.8,0-1.1c0-0.3,0-0.8,0-1.1c0-0.3,0-0.7,0-1.1c0-0.3,0-0.7,0-1c0-0.3,0-0.7,0-1c0-0.5,0-1.1,0-1.5
									c0-0.5,0-1.1,0-1.6c0-0.5,0-1.2,0-1.7c0-0.5,0-1.2,0-1.7s0-1.2,0-1.7c0-0.5,0-1.2,0-1.7c0-0.5,0-1.1,0-1.6
									c0-0.5,0-1.1,0-1.5c1.5,11.3,11.5,20.2,23.7,20.2c13.1,0,23.8-10.3,23.8-23v21.2c0,12.7-10.7,23-23.8,23
									C285.8,305.8,275.7,297,274.3,285.6z"/>
							</defs>
							<clipPath id="SVGID_30_">
								<use xlink:href="#SVGID_29_"  overflow="visible"/>
							</clipPath>
							<g clip-path="url(#SVGID_30_)" enable-background="new    ">
								<path fill="#8D5300" d="M321.8,261.6v21.2c0,2.4-0.4,4.6-1,6.8v-21.2C321.4,266.2,321.8,263.9,321.8,261.6"/>
								<path fill="#885000" d="M320.7,268.3v21.2c-0.6,1.9-1.4,3.6-2.5,5.3v-21.2C319.3,272,320.1,270.2,320.7,268.3"/>
								<path fill="#834D00" d="M318.3,273.6v21.2c-1.1,1.7-2.4,3.2-3.9,4.6v-21.2C315.9,276.8,317.2,275.3,318.3,273.6"/>
								<path fill="#7E4A00" d="M314.4,278.2v21.2c-4.3,4-10.1,6.4-16.5,6.4c-13.1,0-23.8-10.3-23.8-23v-21.2
									c0,12.7,10.7,23,23.8,23C304.3,284.6,310.1,282.2,314.4,278.2"/>
							</g>
						</g>
						<g>
							<path fill="#DD8200" d="M297.9,238.5c13.1,0,23.8,10.3,23.8,23c0,12.7-10.7,23-23.8,23c-13.1,0-23.8-10.3-23.8-23
								C274.1,248.9,284.8,238.5,297.9,238.5z"/>
						</g>
						<g enable-background="new    ">
							<defs>
								<path id="SVGID_31_" enable-background="new    " d="M238.5,261.6v21.2c0,13.2-11.1,24-24.8,24c-13.7,0-24.8-10.8-24.8-24
									v-21.2c0,13.2,11.1,24,24.8,24C227.4,285.6,238.5,274.8,238.5,261.6z"/>
							</defs>
							<clipPath id="SVGID_32_">
								<use xlink:href="#SVGID_31_"  overflow="visible"/>
							</clipPath>
							<g clip-path="url(#SVGID_32_)" enable-background="new    ">
								<path fill="#8D5300" d="M238.5,261.6v21.2c0,2.5-0.4,4.8-1.1,7v-21.2C238.1,266.4,238.5,264,238.5,261.6"/>
								<path fill="#885000" d="M237.4,268.6v21.2c-0.6,1.9-1.5,3.8-2.6,5.5v-21.2C235.9,272.4,236.8,270.6,237.4,268.6"/>
								<path fill="#834D00" d="M234.8,274.1v21.2c-1.1,1.8-2.5,3.4-4,4.8v-21.2C232.4,277.5,233.7,275.9,234.8,274.1"/>
								<path fill="#7E4A00" d="M230.8,278.9v21.2c-4.5,4.1-10.5,6.7-17.2,6.7c-13.7,0-24.8-10.8-24.8-24v-21.2
									c0,13.2,11.1,24,24.8,24C220.3,285.6,226.4,283,230.8,278.9"/>
							</g>
						</g>
						<g enable-background="new    ">
							<defs>
								<path id="SVGID_33_" enable-background="new    " d="M322.8,261.6v21.2c0,13.2-11.1,24-24.8,24c-13.7,0-24.8-10.8-24.8-24
									v-21.2c0,13.2,11.1,24,24.8,24C311.6,285.6,322.8,274.8,322.8,261.6z"/>
							</defs>
							<clipPath id="SVGID_34_">
								<use xlink:href="#SVGID_33_"  overflow="visible"/>
							</clipPath>
							<g clip-path="url(#SVGID_34_)" enable-background="new    ">
								<path fill="#8D5300" d="M322.8,261.6v21.2c0,2.5-0.4,4.8-1.1,7v-21.2C322.4,266.4,322.8,264,322.8,261.6"/>
								<path fill="#885000" d="M321.7,268.6v21.2c-0.6,1.9-1.5,3.8-2.6,5.5v-21.2C320.2,272.4,321.1,270.6,321.7,268.6"/>
								<path fill="#834D00" d="M319.1,274.1v21.2c-1.1,1.8-2.5,3.4-4,4.8v-21.2C316.6,277.5,318,275.9,319.1,274.1"/>
								<path fill="#7E4A00" d="M315.1,278.9v21.2c-4.5,4.1-10.5,6.7-17.2,6.7c-13.7,0-24.8-10.8-24.8-24v-21.2
									c0,13.2,11.1,24,24.8,24C304.6,285.6,310.6,283,315.1,278.9"/>
							</g>
						</g>
						<g enable-background="new    ">
							<defs>
								<path id="SVGID_35_" enable-background="new    " d="M350.4,263.9c0,16.1-4.4,31.9-12.7,45.8v-21.2
									c8.3-13.8,12.7-29.7,12.7-45.8C350.4,249.1,350.4,257.6,350.4,263.9z"/>
							</defs>
							<clipPath id="SVGID_36_">
								<use xlink:href="#SVGID_35_"  overflow="visible"/>
							</clipPath>
							<g clip-path="url(#SVGID_36_)" enable-background="new    ">
								<path fill="#946C00" d="M350.4,242.7v21.2c0,9.2-1.4,18.2-4.2,26.9v-21.2C349,261,350.4,251.9,350.4,242.7"/>
								<path fill="#8F6800" d="M346.2,269.7v21.2c-2.1,6.6-5,12.9-8.5,18.8v-21.2C341.2,282.5,344.1,276.2,346.2,269.7"/>
							</g>
						</g>
						<g enable-background="new    ">
							<defs>
								<path id="SVGID_37_" enable-background="new    " d="M161.7,267.4c0-0.6,0-1.2,0-1.8c0-0.1,0-0.3,0-0.5c0-0.1,0-0.3,0-0.5
									c0-0.1,0-0.3,0-0.4c0-0.1,0-0.3,0-0.4c0-0.6,0-1.4,0-2.1c0-0.7,0-1.5,0-2.2c0-0.7,0-1.6,0-2.3c0-0.7,0-1.6,0-2.3
									s0-1.6,0-2.3c0-0.7,0-1.6,0-2.3c0-0.7,0-1.5,0-2.2c0-0.6,0-1.4,0-2.1c0.6,14.9,5,29.5,12.8,42.5v21.2
									C166.6,296.9,162.3,282.4,161.7,267.4z"/>
							</defs>
							<clipPath id="SVGID_38_">
								<use xlink:href="#SVGID_37_"  overflow="visible"/>
							</clipPath>
							<g clip-path="url(#SVGID_38_)" enable-background="new    ">
								<path fill="#856100" d="M174.5,288.8v21.2c-8.5-14-12.9-29.9-12.9-46v-21.2C161.6,258.9,166,274.8,174.5,288.8"/>
							</g>
						</g>
						<g enable-background="new    ">
							<defs>
								<path id="SVGID_39_" enable-background="new    " d="M351.4,242.7v21.2c0,16.2-4.4,32.1-12.8,46.1v-21.2
									C347,274.9,351.4,259,351.4,242.7z"/>
							</defs>
							<clipPath id="SVGID_40_">
								<use xlink:href="#SVGID_39_"  overflow="visible"/>
							</clipPath>
							<g clip-path="url(#SVGID_40_)" enable-background="new    ">
								<path fill="#8D5300" d="M351.4,242.7v21.2c0,9.3-1.4,18.4-4.2,27.2V270C350,261.2,351.4,252,351.4,242.7"/>
								<path fill="#885000" d="M347.2,270v21.2c-2.1,6.6-5,12.9-8.6,18.9v-21.2C342.2,282.9,345.1,276.5,347.2,270"/>
							</g>
						</g>
						<g enable-background="new    ">
							<defs>
								<path id="SVGID_41_" enable-background="new    " d="M173.5,289v21.2c-8.4-14-12.9-30-12.9-46.2v-21.2
									C160.6,259,165,275,173.5,289z"/>
							</defs>
							<clipPath id="SVGID_42_">
								<use xlink:href="#SVGID_41_"  overflow="visible"/>
							</clipPath>
							<g clip-path="url(#SVGID_42_)" enable-background="new    ">
								<path fill="#7E4A00" d="M173.5,289v21.2c-8.4-14-12.9-30-12.9-46.2v-21.2C160.6,259,165,275,173.5,289"/>
							</g>
						</g>
						<g>
							<polygon fill="#936B00" points="256,258.9 256,280.1 249.3,319.2 249.3,298 							"/>
						</g>
						<g>
							<polygon fill="#805D00" points="262.7,298 262.7,319.2 256,280.1 256,258.9 							"/>
						</g>
						<g>
							<polygon fill="#8C5200" points="256,264.8 256,286 250.5,318.2 250.5,297 							"/>
						</g>
						<g>
							<polygon fill="#7A4800" points="261.5,297 261.5,318.2 256,286 256,264.8 							"/>
						</g>
						<g>
							<rect x="250.5" y="297" fill="#7A4800" width="11" height="21.2"/>
						</g>
						<g>
							<rect x="249.3" y="298" fill="#7A4800" width="13.4" height="21.2"/>
						</g>
						<g>
							<polygon fill="#7A4800" points="338.1,302.5 338.1,323.7 337.6,309.8 337.6,288.6 							"/>
						</g>
						<g>
							<polygon fill="#8C5300" points="174.4,288.6 174.4,309.8 174,323.7 174,302.6 							"/>
						</g>
						<g>
							<polygon fill="#805D00" points="338.1,302.5 338.1,323.7 326.9,324 326.9,302.8 							"/>
						</g>
						<g>
							<polygon fill="#805D00" points="185.2,303.1 185.2,324.2 174,323.7 174,302.6 							"/>
						</g>
						<g>
							<polygon fill="#7A4800" points="339.1,303.4 339.1,324.6 338.6,310 338.6,288.9 							"/>
						</g>
						<g>
							<polygon fill="#8C5300" points="173.5,289 173.5,310.2 173,324.6 173,303.5 							"/>
						</g>
						<g>
							<polygon fill="#7A4800" points="339.1,303.4 339.1,324.6 327.4,324.9 327.4,303.8 							"/>
						</g>
						<g>
							<polygon fill="#7A4800" points="184.6,303.9 184.6,325 173,324.6 173,303.5 							"/>
						</g>
						<g enable-background="new    ">
							<defs>
								<path id="SVGID_43_" enable-background="new    " d="M319.9,330.8c0,0,0-0.1,0-0.1c0,0,0-0.1,0-0.1c0,0,0-0.1,0-0.1
									c0,0,0-0.1,0-0.1c0,0,0-0.1,0-0.1c0,0,0-0.1,0-0.1c0,0,0-0.1,0-0.1c0,0,0-0.1,0-0.1c0-0.7,0-1.7,0-2.4c0-0.8,0-1.8,0-2.5
									c0-0.8,0-1.8,0-2.6c0-0.8,0-1.9,0-2.6c0-0.8,0-1.9,0-2.6c0-0.8,0-1.8,0-2.6c0-0.8,0-1.8,0-2.5c0-0.7,0-1.7,0-2.4
									c2.7-2.4,4.9-4.5,7-6.8V324C324.8,326.3,322.7,328.4,319.9,330.8z"/>
							</defs>
							<clipPath id="SVGID_44_">
								<use xlink:href="#SVGID_43_"  overflow="visible"/>
							</clipPath>
							<g clip-path="url(#SVGID_44_)" enable-background="new    ">
								<path fill="#8A6400" d="M326.9,302.8V324c-1.6,1.7-3.2,3.4-5.1,5.1v-21.2C323.7,306.2,325.4,304.5,326.9,302.8"/>
								<path fill="#856100" d="M321.9,307.9v21.2c-0.7,0.6-1.4,1.3-2.2,2v-21.2C320.5,309.2,321.2,308.5,321.9,307.9"/>
							</g>
						</g>
						<g enable-background="new    ">
							<defs>
								<path id="SVGID_45_" enable-background="new    " d="M319.9,330.8c-0.1,0.1-0.2,0.1-0.2,0.2l0-21.2c0.1-0.1,0.2-0.1,0.2-0.2
									c0,0.7,0,1.7,0,2.4c0,0.8,0,1.8,0,2.5c0,0.8,0,1.8,0,2.6c0,0.8,0,1.9,0,2.6c0,0.8,0,1.9,0,2.6c0,0.8,0,1.8,0,2.6
									c0,0.8,0,1.8,0,2.5c0,0.7,0,1.7,0,2.4c0,0,0,0.1,0,0.1c0,0,0,0.1,0,0.1c0,0,0,0.1,0,0.1c0,0,0,0.1,0,0.1c0,0,0,0.1,0,0.1
									c0,0,0,0.1,0,0.1c0,0,0,0.1,0,0.1C319.9,330.7,319.9,330.8,319.9,330.8z"/>
							</defs>
							<clipPath id="SVGID_46_">
								<use xlink:href="#SVGID_45_"  overflow="visible"/>
							</clipPath>
							<g clip-path="url(#SVGID_46_)" enable-background="new    ">
								<path fill="#856100" d="M321.9,307.9v21.2c-0.7,0.6-1.4,1.3-2.2,2v-21.2C320.5,309.2,321.2,308.5,321.9,307.9"/>
							</g>
						</g>
						<g enable-background="new    ">
							<defs>
								<path id="SVGID_47_" enable-background="new    " d="M192.5,310.2v21.2c-2.5-2.3-4.9-4.6-7.3-7.1v-21.2
									C187.5,305.6,190,307.8,192.5,310.2z"/>
							</defs>
							<clipPath id="SVGID_48_">
								<use xlink:href="#SVGID_47_"  overflow="visible"/>
							</clipPath>
							<g clip-path="url(#SVGID_48_)" enable-background="new    ">
								<path fill="#856100" d="M192.5,310.2v21.2c-2.5-2.3-4.9-4.6-7.3-7.1v-21.2C187.5,305.6,190,307.8,192.5,310.2"/>
							</g>
						</g>
						<g enable-background="new    ">
							<defs>
								<path id="SVGID_49_" enable-background="new    " d="M327.4,303.8l0,21.2c-2,2.1-4.2,4.3-6.9,6.7v-21.2
									C323.2,308,325.4,305.9,327.4,303.8z"/>
							</defs>
							<clipPath id="SVGID_50_">
								<use xlink:href="#SVGID_49_"  overflow="visible"/>
							</clipPath>
							<g clip-path="url(#SVGID_50_)" enable-background="new    ">
								<path fill="#834D00" d="M327.4,303.8v21.2c-1.5,1.6-3.1,3.2-4.9,4.9v-21.2C324.3,307,325.9,305.4,327.4,303.8"/>
								<path fill="#7E4A00" d="M322.5,308.7v21.2c-0.6,0.6-1.3,1.2-2,1.8v-21.2C321.2,309.9,321.8,309.3,322.5,308.7"/>
							</g>
						</g>
						<g enable-background="new    ">
							<defs>
								<path id="SVGID_51_" enable-background="new    " d="M191.5,310.5v21.2c-2.3-2-4.6-4.1-6.9-6.6v-21.2
									C186.9,306.3,189.3,308.5,191.5,310.5z"/>
							</defs>
							<clipPath id="SVGID_52_">
								<use xlink:href="#SVGID_51_"  overflow="visible"/>
							</clipPath>
							<g clip-path="url(#SVGID_52_)" enable-background="new    ">
								<path fill="#7E4A00" d="M191.5,310.5v21.2c-2.3-2-4.6-4.1-6.9-6.6v-21.2C186.9,306.3,189.3,308.5,191.5,310.5"/>
							</g>
						</g>
						<g>
							<polygon fill="#805D00" points="197.4,346 197.4,367.2 192.5,331.4 192.5,310.2 							"/>
						</g>
						<g>
							<polygon fill="#936B00" points="319.7,309.9 319.7,331 312.5,367.2 312.5,346 							"/>
						</g>
						<g>
							<polygon fill="#7A4800" points="196.5,346.7 196.5,367.9 191.5,331.7 191.5,310.5 							"/>
						</g>
						<g>
							<polygon fill="#8C5200" points="320.5,310.5 320.5,331.6 313.4,367.9 313.4,346.7 							"/>
						</g>
						<g>
							<polygon fill="#815E00" points="312.5,346 312.5,367.2 256,385.1 256,363.9 							"/>
						</g>
						<g>
							<polygon fill="#805D00" points="256,363.9 256,385.1 197.4,367.2 197.4,346 							"/>
						</g>
						<g>
							<polygon fill="#7B4900" points="313.4,346.7 313.4,367.9 256,386.1 256,364.9 							"/>
						</g>
						<g>
							<polygon fill="#7A4800" points="256,364.9 256,386.1 196.5,367.9 196.5,346.7 							"/>
						</g>
						<g>
							<path fill="#DD8200" d="M256,109.9c87.7,0,158.8,66.1,158.8,147.6c0,81.5-71.1,147.6-158.8,147.6
								c-87.7,0-158.9-66.1-158.9-147.6C97.1,176,168.3,109.9,256,109.9z M339.1,303.4l-0.5-14.6c8.4-14,12.8-29.9,12.8-46.1
								c0-50.4-42.4-91.7-94.6-92.1l-0.8-0.4l-0.8,0.4c-52.2,0.4-94.6,41.7-94.6,92.1c0,16.3,4.4,32.3,12.9,46.2l-0.5,14.5l11.6,0.4
								c2.3,2.5,4.7,4.6,6.9,6.6l5,36.2l59.5,18.2l57.4-18.2l7.1-36.3c2.7-2.4,4.9-4.6,6.9-6.7L339.1,303.4"/>
						</g>
						<g>
							<path fill="#DD8200" d="M213.7,237.6c13.7,0,24.8,10.8,24.8,24c0,13.2-11.1,24-24.8,24c-13.7,0-24.8-10.8-24.8-24
								C188.8,248.3,200,237.6,213.7,237.6z M213.7,284.6c13.1,0,23.8-10.3,23.8-23c0-12.7-10.7-23-23.8-23
								c-13.1,0-23.8,10.3-23.8,23C189.8,274.3,200.5,284.6,213.7,284.6"/>
						</g>
						<g>
							<path fill="#DD8200" d="M297.9,237.6c13.7,0,24.8,10.8,24.8,24c0,13.2-11.1,24-24.8,24c-13.7,0-24.8-10.8-24.8-24
								C273.1,248.3,284.2,237.6,297.9,237.6z M297.9,284.6c13.1,0,23.8-10.3,23.8-23c0-12.7-10.7-23-23.8-23
								c-13.1,0-23.8,10.3-23.8,23C274.1,274.3,284.8,284.6,297.9,284.6"/>
						</g>
						<g>
							<path fill="#E7A900" d="M337.7,288.5l0.4,14l-11.2,0.3c-2.2,2.4-4.4,4.5-7.2,7l-7.2,36.1L256,363.9L197.4,346l-4.9-35.8
								c-2.5-2.3-4.9-4.6-7.3-7.1l-11.2-0.5l0.5-13.8c-8.5-14-12.9-29.9-12.9-46c0-49.9,42-90.8,93.7-91.2
								c53,0.3,95.1,41.2,95.1,91.2C350.4,258.8,346,274.7,337.7,288.5z M213.7,285.6c13.7,0,24.8-10.8,24.8-24
								c0-13.2-11.1-24-24.8-24s-24.8,10.8-24.8,24C188.8,274.8,200,285.6,213.7,285.6 M297.9,285.6c13.7,0,24.8-10.8,24.8-24
								c0-13.2-11.1-24-24.8-24c-13.7,0-24.8,10.8-24.8,24C273.1,274.8,284.2,285.6,297.9,285.6 M249.3,298h13.4l-6.7-39.1
								L249.3,298"/>
						</g>
						<g>
							<path fill="#DD8200" d="M351.4,242.7c0,16.2-4.4,32.1-12.8,46.1l0.5,14.6l-11.7,0.3c-2,2.1-4.2,4.3-6.9,6.7l-7.1,36.3
								L256,364.9l-59.5-18.2l-5-36.2c-2.3-2-4.6-4.1-6.9-6.6l-11.6-0.4l0.5-14.5c-8.4-14-12.9-30-12.9-46.2
								c0-50.4,42.4-91.7,94.6-92.1l0.8-0.4l0.8,0.4C309,151,351.4,192.3,351.4,242.7z M326.8,303l11.3-0.5l-0.5-13.9
								c8.4-14,12.8-29.8,12.8-45.9c0-49.9-42-90.8-93.7-91.2c-53,0.3-95.1,41.2-95.1,91.2c0,16.1,4.4,32,12.8,45.9l-0.4,13.9
								l11.1,0.4c2.5,2.7,5,4.9,7.3,7l5.1,36.1l58.6,17.9l56.5-17.9l7-36C322.5,307.4,324.8,305.2,326.8,303"/>
						</g>
						<g>
							<polygon fill="#DD8200" points="250.5,297 256,264.8 261.5,297 							"/>
						</g>
						<g>
							<path fill="#DD8200" d="M249.3,298l6.7-39.1l6.7,39.1H249.3z M250.5,297h11l-5.5-32.2L250.5,297"/>
						</g>
						<g enable-background="new    ">
							<defs>
								<path id="SVGID_53_" enable-background="new    " d="M414.8,257.6v21.2c0,81.5-71.1,147.6-158.8,147.6
									c-87.7,0-158.9-66.1-158.9-147.6l0-21.2c0,81.5,71.1,147.6,158.9,147.6C343.7,405.2,414.8,339.1,414.8,257.6z"/>
							</defs>
							<clipPath id="SVGID_54_">
								<use xlink:href="#SVGID_53_"  overflow="visible"/>
							</clipPath>
							<g clip-path="url(#SVGID_54_)" enable-background="new    ">
								<path fill="#8D5300" d="M414.8,257.6v21.2c0,14.6-2.3,28.7-6.5,42v-21.2C412.6,286.3,414.8,272.2,414.8,257.6"/>
								<path fill="#885000" d="M408.3,299.6v21.2c-3.7,11.7-9,22.8-15.5,33.1v-21.2C399.4,322.4,404.6,311.3,408.3,299.6"/>
								<path fill="#834D00" d="M392.8,332.6v21.2c-6.9,10.8-15.2,20.8-24.8,29.6v-21.2C377.6,353.4,385.9,343.5,392.8,332.6"/>
								<path fill="#7E4A00" d="M368,362.2v21.2c-28.7,26.6-68.3,43-112,43c-87.7,0-158.9-66.1-158.9-147.6v-21.2
									c0,81.5,71.1,147.6,158.9,147.6C299.7,405.2,339.3,388.8,368,362.2"/>
							</g>
						</g>
					</g>
				</g>
			</g>
		</g>
	</g>
</g>
<g id="Layer_5" display="none">
</g>
<g id="Layer_7">
</g>
<g id="Grid" display="none">
</g>
<g id="Lines" display="none">
</g>
<g id="Layer_6">
</g>
</svg>
