<?xml version="1.0" encoding="UTF-8"?>
<svg xmlns="http://www.w3.org/2000/svg" xmlns:xlink="http://www.w3.org/1999/xlink" width="409pt" height="409pt" viewBox="0 0 409 409" version="1.1">
<g id="surface1">
<path style=" stroke:none;fill-rule:nonzero;fill:rgb(0%,15.686275%,0%);fill-opacity:1;" d="M 408.019531 204.542969 C 408.019531 316.933594 316.890625 408.0625 204.5 408.0625 C 92.109375 408.0625 0.980469 316.933594 0.980469 204.542969 C 0.980469 -8.902344 197 1.023438 204.5 1.023438 C 316.890625 1.023438 408.019531 92.152344 408.019531 204.542969 Z "/>
<path style=" stroke:none;fill-rule:nonzero;fill:rgb(54.117647%,76.078431%,7.058824%);fill-opacity:1;" d="M 195.296875 87.125 L 41.753906 152.011719 L 44.179688 166.625 L 219.027344 204.925781 L 367.675781 162.238281 Z M 159.125 142.9375 C 151.203125 142.9375 144.769531 136.503906 144.769531 128.578125 C 144.769531 120.65625 151.203125 114.222656 159.125 114.222656 C 167.050781 114.222656 173.484375 120.65625 173.484375 128.578125 C 173.484375 136.503906 167.050781 142.9375 159.125 142.9375 Z "/>
<path style=" stroke:none;fill-rule:nonzero;fill:rgb(54.117647%,76.078431%,7.058824%);fill-opacity:1;" d="M 367.714844 162.277344 L 86.742188 243.695312 L 70.722656 226.226562 L 177.660156 195.894531 L 189.929688 141.871094 Z "/>
<path style=" stroke:none;fill-rule:nonzero;fill:rgb(95.686275%,36.470588%,29.803922%);fill-opacity:1;" d="M 167.5625 128.578125 C 167.5625 133.238281 163.785156 137.015625 159.125 137.015625 C 154.46875 137.015625 150.691406 133.238281 150.691406 128.578125 C 150.691406 123.921875 154.46875 120.144531 159.125 120.144531 C 163.785156 120.144531 167.5625 123.921875 167.5625 128.578125 Z "/>
<path style=" stroke:none;fill-rule:nonzero;fill:rgb(1.568627%,34.117647%,1.568627%);fill-opacity:1;" d="M 368.015625 171.863281 L 333.632812 309.136719 L 231.9375 210.71875 Z "/>
<path style=" stroke:none;fill-rule:nonzero;fill:rgb(1.960784%,25.098039%,0%);fill-opacity:1;" d="M 225.632812 216.8125 L 326.519531 316.082031 L 190.140625 353.828125 Z "/>
<path style=" stroke:none;fill-rule:nonzero;fill:rgb(54.117647%,76.078431%,7.058824%);fill-opacity:1;" d="M 83.761719 197.300781 L 58.835938 163.34375 L 76.304688 166.199219 Z "/>
<path style=" stroke:none;fill-rule:nonzero;fill:rgb(54.117647%,76.078431%,7.058824%);fill-opacity:1;" d="M 96.96875 186.90625 L 95.519531 237.136719 L 108.34375 214.894531 Z "/>
</g>
</svg>
