<?xml version="1.0" encoding="utf-8"?>
<!-- Generator: Adobe Illustrator 18.0.0, SVG Export Plug-In . SVG Version: 6.00 Build 0)  -->
<!DOCTYPE svg PUBLIC "-//W3C//DTD SVG 1.1//EN" "http://www.w3.org/Graphics/SVG/1.1/DTD/svg11.dtd">
<svg version="1.1" id="Layer_1" xmlns="http://www.w3.org/2000/svg" xmlns:xlink="http://www.w3.org/1999/xlink" x="0px" y="0px"
	 viewBox="0 0 512 512" enable-background="new 0 0 512 512" xml:space="preserve">
<circle fill="#F2ECE4" cx="256.5" cy="256" r="238.5"/>
<circle fill="#333333" cx="256.5" cy="256" r="218.3"/>
<path fill="#777267" d="M411.9,168.1l-33.3-28.4l12.6,30l-41.9,17.9l-11.1-18l13.9-50.7l-39.3-44.1l9.2,40.3l-35.2,21.3l-29.9,12
	l-30.9-12l-35.2-21.3l9.2-40.3l-39.3,44.1l13.9,50.7l-11.1,18l-41.9-17.9l12.6-30l-33.3,28.4l22.9,55.4l-20.2-13.1l17.7,50.9l2,61.1
	l34.6,24.8l-12.6-28l18.1-27l31.6,51.2L234,444.3l23.4,9.1l22.4-9.1l38.3-100.9l31.4-51.2l18,27l-12.7,28l34.6-24.8l2-61.1
	l17.7-50.9L389,223.5L411.9,168.1z M194,272.7v-33.4l30.9,46.4L194,272.7z M257.2,148.5l-0.2-0.1l0.4-0.1L257.2,148.5z M319,272.7
	l-30.9,13l30.9-46.4V272.7z"/>
</svg>
