<?xml version="1.0" encoding="utf-8"?>
<!-- Generator: Adobe Illustrator 18.0.0, SVG Export Plug-In . SVG Version: 6.00 Build 0)  -->
<!DOCTYPE svg PUBLIC "-//W3C//DTD SVG 1.1//EN" "http://www.w3.org/Graphics/SVG/1.1/DTD/svg11.dtd">
<svg version="1.1" id="Layer_1" xmlns="http://www.w3.org/2000/svg" xmlns:xlink="http://www.w3.org/1999/xlink" x="0px" y="0px"
	 viewBox="0 0 512 512" enable-background="new 0 0 512 512" xml:space="preserve">
<circle fill="#F2ECE4" cx="256.4" cy="256" r="238.5"/>
<circle fill="#777267" cx="256.4" cy="256" r="218.3"/>
<path fill="#333333" d="M408.1,305.4l-29.3-52.5L371,131.4l-23.3-25l-55.2,62.9l-36.2-6l-36.2,6L165,106.4l-23.3,25L134,252.9
	l-29.3,52.5l19,9.6l-9.5,84.5l28.4-6l3.4,37.9l56.4-66.4l19.4,39.7l34.5,19l34.5-19l19.4-39.7l56.4,66.4l3.4-37.9l28.4,6l-9.5-84.5
	L408.1,305.4z M187,268.9c2,0.8,27-5.9,27-5.9l10.8,27.6L187,268.9z M279,395.4l-21.5,16l-21.5-16V385h20.8h1.2h21V395.4z
	 M296.2,290.6l10.8-27.6c0,0,24.9,6.7,27,5.9L296.2,290.6z"/>
</svg>
