<?xml version="1.0" encoding="utf-8"?>
<!-- Generator: Adobe Illustrator 18.0.0, SVG Export Plug-In . SVG Version: 6.00 Build 0)  -->
<!DOCTYPE svg PUBLIC "-//W3C//DTD SVG 1.1//EN" "http://www.w3.org/Graphics/SVG/1.1/DTD/svg11.dtd">
<svg version="1.1" id="Layer_1" xmlns="http://www.w3.org/2000/svg" xmlns:xlink="http://www.w3.org/1999/xlink" x="0px" y="0px"
	 viewBox="0 0 512 512" enable-background="new 0 0 512 512" xml:space="preserve">
<circle fill="#F2ECE4" cx="255.5" cy="256" r="238.5"/>
<circle fill="#777267" cx="255.5" cy="256" r="218.3"/>
<path fill="#333333" d="M416.8,162.9L404,112.2l-77.4,36.3l-63.1-12.8l-7.9-0.3l-7.9,0.3l-63.1,12.8l-77.4-36.3l-12.8,50.7l22,74.8
	l-0.8,58.6l20.1,58.1l60.3,48.2l15.3,33.5l36.5,21.9h7.7h7.7l36.5-21.9l15.3-34l60.3-48l20.1-58l-0.8-58.6L416.8,162.9z M178.2,264
	l-19.5-22.3l38.9,6.1l16.9,21L178.2,264z M274,369.1l-19.5,14.6L235,369.1V359h19h1.1H274V369.1z M333.4,264l-36.3,4.9l16.9-21
	l38.9-6.1L333.4,264z"/>
</svg>
