<?xml version="1.0" encoding="utf-8"?>
<!-- Generator: Adobe Illustrator 16.0.0, SVG Export Plug-In . SVG Version: 6.00 Build 0)  -->
<!DOCTYPE svg PUBLIC "-//W3C//DTD SVG 1.1//EN" "http://www.w3.org/Graphics/SVG/1.1/DTD/svg11.dtd">
<svg version="1.1" id="Layer_2" xmlns="http://www.w3.org/2000/svg" xmlns:xlink="http://www.w3.org/1999/xlink" x="0px" y="0px"
	 width="511.117px" height="442.078px" viewBox="0 0 511.117 442.078" enable-background="new 0 0 511.117 442.078"
	 xml:space="preserve">
<path fill="#FFFFFF" d="M373.197,17.986l117.401,203.046L373.032,424.078H138.031L20.547,221.08L138.031,18.083h235.33 M383.4,0.077
	H127.767L0,221.077l127.767,221h255.534l127.815-221L383.4,0V0.077z"/>
<g>
	<polygon fill="#FFFFFF" points="81.868,257.078 332.575,257.078 207.222,132.077 	"/>
	<polygon fill="#FFFFFF" points="345.801,167.556 301.382,211.85 346.737,257.078 435.575,257.078 	"/>
	<path fill="#FFFFFF" d="M116.4,297.548c53.974-11.561,118.294-3.744,174,0C245.541,305.062,159.744,311.267,116.4,297.548z"/>
	<path fill="#FFFFFF" d="M251.4,330.091c34.286-7.846,77.245-2.504,113,0C336.431,335.016,278.085,339.242,251.4,330.091z"/>
	<path fill="#FFFFFF" d="M322.4,296.091c22.783-7.846,51.332-2.504,75.092,0C378.906,301.016,340.133,305.242,322.4,296.091z"/>
</g>
</svg>
