<?xml version="1.0" encoding="utf-8"?>
<!-- Generator: Adobe Illustrator 16.0.0, SVG Export Plug-In . SVG Version: 6.00 Build 0)  -->
<!DOCTYPE svg PUBLIC "-//W3C//DTD SVG 1.1//EN" "http://www.w3.org/Graphics/SVG/1.1/DTD/svg11.dtd">
<svg version="1.1" id="Layer_2" xmlns="http://www.w3.org/2000/svg" xmlns:xlink="http://www.w3.org/1999/xlink" x="0px" y="0px"
	 width="511.117px" height="442.077px" viewBox="0 0 511.117 442.077" enable-background="new 0 0 511.117 442.077"
	 xml:space="preserve">
<path fill="#FFFFFF" d="M373.197,17.986l117.402,203.046L373.033,424.077H138.031L20.547,221.08L138.031,18.083h235.33 M383.4,0.077
	H127.767L0,221.077l127.767,221H383.3l127.816-221L383.4,0V0.077z"/>
<g>
	<g>
		<path fill="#FFFFFF" d="M223.848,241.802c10.031,8.326,22.473,12.727,35.98,12.727c19.699,0,38.652-9.223,52-25.304
			c23.194-27.948,21.469-67.78-3.847-88.791c-10.031-8.326-22.474-12.727-35.98-12.727c-19.699,0-38.653,9.223-52,25.305
			C196.807,180.959,198.532,220.791,223.848,241.802z M253.4,172.411c0,0-5.667,11.333-1.333,16.333
			c4.667-11,33.001-32.667,18-40.333c8.666-2.333,17,19.333,7.666,33.667c7.334-4.667,16-9,13-18.667c0,0,10.667,6.667,0.667,20.667
			s-6.999,19-3.333,21s9-3.667,6-7.667c6.666,5,8,29.667-13,36.333c12-24-33.667-23.333-25,2
			C248.066,234.411,211.067,206.411,253.4,172.411z M160.986,145.997c0.378-0.379,0.889-0.586,1.414-0.586
			c0.123,0,0.248,0.011,0.371,0.035c0.65,0.123,1.197,0.558,1.462,1.164c0.279,0.637,0.546,1.264,0.811,1.881
			c1.808,4.229,3.381,7.907,7.186,11.906c1.641-0.055,3.557-0.257,5.403-0.49c4.34-40.46-0.416-65.341-14.524-76.048
			c-0.04-0.03-0.154-0.126-0.192-0.159c-0.132-0.118-0.297-0.263-0.757-0.263c-0.536,0-1.746,0.221-3.833,1.702
			c-11.668,8.281-18.877,33.163-15.125,52.203c1.61,8.172,5.834,18.331,16.706,22.256
			C158.537,150.172,159.946,147.037,160.986,145.997z M376.401,278.86c-2.554-4.424-5.88-6.667-9.887-6.667
			c-0.677,0-1.385,0.063-2.104,0.188c-0.943,0.164-1.893,0.322-2.844,0.478c0.747,5.113,0.511,10.394,0.499,10.646
			c-0.04,0.839-0.601,1.564-1.402,1.814c-0.196,0.062-0.396,0.091-0.596,0.091c-0.612,0-1.204-0.282-1.59-0.786
			c-0.046-0.061-4.408-5.759-8.682-10.042c-20.187,2.62-43.363,4.017-68.932,4.151c-0.808,2.577-1.897,4.858-2.575,6.253
			c-0.003,0.695-0.265,1.337-0.767,1.839c-0.23,0.231-0.771,0.771-1.652,0.772c-0.001,0-0.001,0-0.001,0
			c-0.688,0-1.347-0.363-1.712-0.946c-0.409-0.651-0.369-1.263-0.163-1.874c-0.642-0.78-1.997-2.048-3.132-3.11
			c-0.692-0.648-1.44-1.349-2.206-2.092c0.026,2.829-0.843,6.66-4.023,12.169c-0.359,0.622-1.021,1-1.731,1
			c-0.056,0-0.11-0.002-0.166-0.007c-0.771-0.063-1.436-0.567-1.708-1.292c-0.917-2.447-4.01-7.183-8.525-13.065
			c-15.069-0.445-26.907-1.203-32.922-1.641c4.003,7.097,5.955,19.253,5.066,32.798c-1.01,15.407-5.388,28.919-12.203,38.062
			c13.105-1.935,48.172-6.586,82.946-6.586c25.791,0,46.419,2.496,61.312,7.461c1.282,0.428,2.549,0.604,3.764,0.604
			c0.001,0,0.001,0,0.002,0c5.949,0,10.229-5.207,12.771-9.609C382.693,323.093,384.29,292.525,376.401,278.86z M211.157,278.653
			l-7.776-7.776c-0.595-0.595-0.754-1.498-0.398-2.26c0.331-0.708,1.041-1.154,1.812-1.154c0.058,0,0.117,0.003,0.176,0.008
			l10.961,0.964c1.099,0.095,27.301,2.31,60.831,2.31c20.622,0,39.781-0.815,56.973-2.424
			c15.493-52.743,20.998-99.666,20.998-123.91c0-20.89-6.455-64.026-26.409-64.026c-1.403,0-2.883,0.209-4.397,0.623
			c-23.96,6.534-49.865,9.848-76.996,9.848c-33.538,0-60.78-5.148-73.308-8.003c11.005,12.849,15.245,34.953,12.942,67.186
			c-2.26,31.646-10.309,67.509-17.409,99.151c-5.951,26.515-11.089,49.414-11.089,62.556c0,38.805,26.532,40.612,30.471,40.666
			c0.909-0.188,4.881-1.024,10.888-2.51l3.732-3.731c7.418-7.418,12.467-21.306,13.506-37.15
			C217.549,295.501,215.234,282.73,211.157,278.653z M213.846,147.903c14.872-17.919,36.069-28.196,58.156-28.196
			c15.396,0,29.604,5.039,41.09,14.57c28.709,23.829,30.904,68.714,4.894,100.057c-14.872,17.918-36.069,28.194-58.156,28.194
			c-15.396,0-29.604-5.038-41.09-14.57C190.028,224.129,187.833,179.245,213.846,147.903z"/>
	</g>
</g>
</svg>
